<svg id="Laag_1" data-name="Laag 1" xmlns="http://www.w3.org/2000/svg" width="453.5" height="226.8" viewBox="0 0 453.5 226.8"><title>logo</title><path d="M113.7,88c-1,3.9-3.1,10.1-5.2,16.2L101.9,123h23.7l-6.7-18.8C116.8,98.1,114.8,91.9,113.7,88Z" fill="#c5273b"/><path d="M226.8,0H0V226.8H226.8ZM152.1,86.8l13.1-17.5a2.8,2.8,0,0,1,3.9-.5l6,4.6a2.8,2.8,0,0,1,.5,3.9L162.5,94.8a2.8,2.8,0,0,1-3.9.5l-6-4.6A2.8,2.8,0,0,1,152.1,86.8ZM52.8,73.4l6-4.6a2.8,2.8,0,0,1,3.9.5L75.8,86.8a2.8,2.8,0,0,1-.5,3.9l-6,4.6a2.8,2.8,0,0,1-3.9-.5L52.3,77.3A2.8,2.8,0,0,1,52.8,73.4Zm3.9,69.7-20.6,7.3a2.8,2.8,0,0,1-3.5-1.8l-2.4-7.2a2.8,2.8,0,0,1,1.8-3.5l20.6-7.3a2.8,2.8,0,0,1,3.5,1.8l2.4,7.2A2.8,2.8,0,0,1,56.7,143.1Zm5.7-33.4L60,116.9a2.8,2.8,0,0,1-3.5,1.7l-28.9-9.7a2.8,2.8,0,0,1-1.8-3.5l2.4-7.2a2.8,2.8,0,0,1,3.5-1.7l28.9,9.7a2.8,2.8,0,0,1,1.91,3.47v0Zm78.4,56.2-8.2-23.1h-38l-8.2,23.1h-22L104.1,62.1h20.2l39.4,103.8Zm56.8-24.4-2.4,7.2a2.8,2.8,0,0,1-3.5,1.8l-20.6-7.3a2.8,2.8,0,0,1-1.8-3.5l2.4-7.2a2.8,2.8,0,0,1,3.5-1.8l20.6,7.3a2.8,2.8,0,0,1,1.91,3.47v0Zm2.6-32.6-28.9,9.7a2.8,2.8,0,0,1-3.5-1.7l-2.4-7.2a2.8,2.8,0,0,1,1.8-3.5l28.9-9.7a2.8,2.8,0,0,1,3.5,1.8l2.4,7.2a2.8,2.8,0,0,1-1.7,3.4Z" fill="#d11f38"/><path d="M104.1,62.1,64.4,165.9H86.6l8.2-23.1h38l8.2,23.1h22.8L124.3,62.1ZM101.9,123l6.7-18.8c2.1-6.1,4.2-12.3,5.2-16.2,1,3.9,3.1,10.1,5.2,16.2l6.7,18.8Z" fill="#fff"/><path d="M60.7,106.1,31.8,96.4a2.8,2.8,0,0,0-3.5,1.8l-2.4,7.2a2.8,2.8,0,0,0,1.8,3.5l28.9,9.7a2.8,2.8,0,0,0,3.5-1.7l2.4-7.2a2.8,2.8,0,0,0-1.71-3.57Z" fill="#f79239"/><path d="M56.1,132.4a2.8,2.8,0,0,0-3.5-1.8L31.9,138a2.8,2.8,0,0,0-1.8,3.5l2.4,7.2a2.8,2.8,0,0,0,3.5,1.8l20.6-7.3a2.8,2.8,0,0,0,1.8-3.5Z" fill="#f79239"/><path d="M65.4,94.8a2.8,2.8,0,0,0,3.9.5l6-4.6a2.8,2.8,0,0,0,.5-3.9L62.7,69.2a2.8,2.8,0,0,0-3.9-.5l-6,4.6a2.8,2.8,0,0,0-.5,3.9Z" fill="#f79239"/><path d="M199.6,98.2a2.8,2.8,0,0,0-3.5-1.7l-28.9,9.7a2.8,2.8,0,0,0-1.8,3.5l2.4,7.2a2.8,2.8,0,0,0,3.5,1.7l28.9-9.7a2.8,2.8,0,0,0,1.8-3.5Z" fill="#f79239"/><path d="M195.9,138l-20.6-7.3a2.8,2.8,0,0,0-3.5,1.8l-2.4,7.2a2.8,2.8,0,0,0,1.8,3.5l20.6,7.3a2.8,2.8,0,0,0,3.5-1.8l2.4-7.2A2.8,2.8,0,0,0,195.9,138Z" fill="#f79239"/><path d="M152.6,90.7l6,4.6a2.8,2.8,0,0,0,3.9-.5l13.1-17.5a2.8,2.8,0,0,0-.5-3.9l-6-4.6a2.8,2.8,0,0,0-3.9.5L152.1,86.8A2.8,2.8,0,0,0,152.6,90.7Z" fill="#f79239"/><polygon points="333.6 121.5 345.7 121.5 339.9 104.4 333.6 121.5" fill="#395f7a"/><path d="M226.8,0V226.8H453.5V0ZM352.4,205.8,349,191.2c5.5-1.2,8.5-4.8,8.5-10.7,0-4.2-1.4-7.1-4.3-7.1s-3.4.8-4.8,5.1l-2.6,6.8c-1,2.9-4.8,17.7-17.7,17.8s-19.2-9.9-19.2-23.1c0-11.4,5.6-18.7,15.8-22.2l4.2,14.5c-3.4,1.2-6.1,2.9-6.1,7.3s1.2,5.7,3.8,5.7,3.3-1.2,4.6-4.9l2.3-6.8c4.7-13.5,10.6-17.7,19.1-18,12.9,0,18.8,11.6,18.8,24.8S364.7,204,352.4,205.8Zm.2-60-3.9-10.1h-18l-3.6,10.1H308.4l23.4-60.5h16.1l24,60.5Zm4.7-71.1-2.1-25.6-9.5,25H334.6l-9.5-25L323,74.7H306.2l5.1-56.1h16l12.8,31.9,12.7-31.9h16l5.1,56.1Z" fill="#395f7a"/><rect x="226.8" height="226.77" fill="#0085b1"/><polygon points="352.9 18.6 340.2 50.5 327.4 18.6 311.4 18.6 306.2 74.7 323 74.7 325.1 49.1 334.6 74.1 345.7 74.1 355.2 49.1 357.3 74.7 374.1 74.7 368.9 18.6 352.9 18.6" fill="#fff"/><path d="M331.8,85.2l-23.4,60.5h18.8l3.6-10.1h18l3.9,10.1H372L348,85.2Zm1.8,36.2,6.3-17,5.8,17Z" fill="#fff"/><path d="M352.6,155.7c-8.6.3-14.5,4.5-19.1,18l-2.3,6.8c-1.3,3.7-2.9,4.9-4.6,4.9s-3.8-2.8-3.8-5.7,2.7-6.1,6.1-7.3l-4.2-14.5c-10.1,3.5-15.8,10.7-15.8,22.2,0,13.2,7.5,23.1,19.2,23.1s16.8-14.9,17.7-17.8l2.6-6.8c1.4-4.3,3.3-5.1,4.8-5.1s4.3,2.9,4.3,7.1c0,6-2.9,9.5-8.5,10.7l3.4,14.6c12.2-1.8,19-11.3,19-25.4S365.5,155.7,352.6,155.7Z" fill="#fff"/></svg>