<?xml version="1.0" encoding="UTF-8" standalone="no"?>
<svg width="231px" height="8px" viewBox="0 0 231 8" version="1.1" xmlns="http://www.w3.org/2000/svg" xmlns:xlink="http://www.w3.org/1999/xlink">
    <!-- Generator: Sketch 40.3 (33839) - http://www.bohemiancoding.com/sketch -->
    <title>Page 1</title>
    <desc>Created with Sketch.</desc>
    <defs></defs>
    <g id="Page-1" stroke="none" stroke-width="1" fill="none" fill-rule="evenodd">
        <g id="Artboard-2-Copy-5" transform="translate(-184.000000, -488.000000)" stroke="#FFFFFF">
            <g id="Group-2" transform="translate(180.000000, 354.000000)">
                <polyline id="Page-1" points="5 134.887981 10.5733771 141.70824 16.1473557 134.887981 21.7201314 141.70824 27.2935085 134.887981 32.8674871 141.70824 38.4408642 134.887981 44.0148428 141.70824 49.5888214 134.887981 55.1621986 141.70824 60.7367787 134.887981 66.3101558 141.70824 71.8853374 134.887981 77.459316 141.70824 83.0338961 134.887981 88.6078747 141.70824 94.1824548 134.887981 99.7570349 141.70824 105.331013 134.887981 110.904992 141.70824 116.476565 134.887981 122.050543 141.70824 127.622718 134.887981 133.196696 141.70824 138.769472 134.887981 144.344653 141.70824 149.91803 134.887981 155.493212 141.70824 161.068995 134.887981 166.644177 141.70824 172.219358 134.887981 177.79454 141.70824 183.371526 134.887981 188.947309 141.70824 194.522491 134.887981 200.097071 141.70824 205.672252 134.887981 211.248637 141.70824 216.827427 134.887981 222.403812 141.70824 227.984407 134.887981 233.565002 141.70824"></polyline>
            </g>
        </g>
    </g>
</svg>