<?xml version="1.0" encoding="utf-8"?>
<!-- Generator: Adobe Illustrator 20.0.0, SVG Export Plug-In . SVG Version: 6.00 Build 0)  -->
<svg version="1.1" id="Laag_1" xmlns="http://www.w3.org/2000/svg" xmlns:xlink="http://www.w3.org/1999/xlink" x="0px" y="0px"
	 width="2857.143px" height="2857.407px" viewBox="0 0 2857.143 2857.407" enable-background="new 0 0 2857.143 2857.407"
	 xml:space="preserve">
<g>
	<path fill="#FFFFFF" d="M213.087,1060.232c0.797,0.441,1.59,0.793,2.504,1.186c3.669,1.182,7.149,0.774,10.324-1.44
		c2.453-1.722,4.414-3.954,6.037-6.557c-0.273-0.169-0.474-0.234-0.831-0.324C223.416,1051.277,217.468,1053.745,213.087,1060.232z"
		/>
	<path fill="#FFFFFF" d="M416.791,1062.192c-3.851-6.403-9.531-9.006-17.037-7.927l-1.792,0.591c1.928,2.993,4.31,5.376,7.252,7.167
		C408.845,1064.34,412.785,1064.392,416.791,1062.192z"/>
	<path fill="#FFFFFF" d="M0,0v2857.407h2857.143V0H0z M2634.701,1540.112c99.291,2.383,152.126,42.948,158.646,121.478h-99.009
		c-3.181-31.254-23.088-48.305-59.637-51.484V1540.112z M2234.837,1006.618h99.047v526.923h-99.047L2234.837,1006.618
		L2234.837,1006.618z M1988.647,1202.075c30.451-40.55,72.198-60.847,125.717-60.847c44.748,0,78.896,13.946,102.762,41.577v78.901
		c-14.297-27.825-38.941-41.732-73.727-41.732c-61.691,0-92.489,40.578-92.489,121.894c0,82.114,30.798,123.063,92.489,123.063
		c34.785,0,59.429-14.077,73.727-42.319v82.479c-23.228,25.879-56.794,38.59-100.369,38.59c-54.89,0-98.1-20.69-129.396-62.215
		c-27.928-37.999-41.784-85.524-41.784-142.196C1945.578,1284.404,1959.847,1238.647,1988.647,1202.075z M1675.108,1188.533
		c25.63-31.418,60.238-47.305,104.15-47.305c92.893,0,139.414,52.497,139.414,157.491v234.821H1814.86v-215.739
		c-0.141-62.653-22.449-94.075-67.376-94.075c-36.371,0-60.443,16.309-72.376,48.928V1188.533z M1360.398,1301.305h70.95
		c-9.156-49.135-32.853-75.956-70.95-80.538v-79.318c57.432,2.162,102.124,25.231,134.573,69.787
		c13.283,18.087,23.632,38.35,30.827,60.237c9.062,29.241,12.88,61.423,10.919,97.035h-176.32v-67.203H1360.398z M937.662,1151.552
		h98.963v70.974v311.015h-98.963L937.662,1151.552L937.662,1151.552z M646.893,1457.379c7.505,1.604,18.744,2.402,32.965,2.402
		c30.452,0,45.781-14.724,45.781-44.335v-381.984h106.57v421.568c-1.182,60.017-41.766,90.087-121.899,90.087
		c-22.862-0.22-43.913-1.637-63.417-3.991L646.893,1457.379L646.893,1457.379z M514.514,1455.62l-8.293,2.331
		c-0.731,3.096-1.05,6.238-1.134,9.452c-0.066,1.365-0.291,2.669-0.891,3.903c-0.76,2.129-1.726,4.291-2.758,6.421
		c-0.713,1.661-1.154,3.311-1.417,5.141c-0.272,1.824-0.76,3.715-1.36,5.609c-0.6,1.656-1.022,3.5-1.294,5.226
		c-0.254,1.993-1.051,3.668-2.252,5.085c-0.469,0.544-0.864,1.201-1.051,1.895c-0.469,1.655-1.229,3.142-2.327,4.325
		c-1.525,0.103-3.114,0.239-4.686,0.558c-2.364,0.746-4.817,1.285-7.415,1.675c-0.966-0.066-1.928-0.151-2.96-0.338
		c-1.267-0.122-2.52-0.122-3.753,0c-1.552,0.272-2.805-0.122-3.902-1.084c-1.642-1.538-3.161-2.94-4.719-4.259
		c-1.046-0.099-2.078-0.352-3.039-0.624c-3.584-1.303-6.544-3.212-8.739-5.816c-0.408-0.474-0.493-1.08-0.304-1.825
		c0.22-0.708,0.741-1.168,1.505-1.253c0.553-0.168,0.994-0.253,1.552-0.253c1.993-0.067,3.988-0.067,5.864-0.132l3.147-3.096
		l4.733-0.947l0.436-2.312l-5.038-2.688v-1.576c0.155-0.202,0.305-0.487,0.511-0.708c0.254-0.234,0.521-0.558,0.76-0.792
		c0.052-0.085,0.169-0.085,0.182-0.085c0.104,0,0.104-0.065,0.306-0.065c0.844-0.545,1.792-0.882,2.842-1.117
		c0.131,0,0.131-0.084,0.305-0.084c0.54-0.239,1.163-0.156,1.825,0.183c0.37,0.239,1.045,0.304,1.637,0.136c0-0.034,0-0.034,0-0.136
		v-14.973l-5.882-3.57l-1.163,0.324l-0.39,1.52l-5.596,7.576c0.929,3.884,0.084,7.382-2.654,10.61
		c-0.592,0.778-1.333,1.505-2.045,2.214c-0.929,0.713-1.891,1.135-2.838,1.135c-0.188,0-0.577,0-0.844,0
		c-0.356-0.591-0.714-1.051-1.201-1.473l-2.876-17.693c2.468-6.342,6.188-11.951,11.005-16.938c0-0.169,0-0.22-0.034-0.22
		c-0.187-0.188-0.422-0.273-0.675-0.273c0.15-0.15,0.305-0.403,0.488-0.52c0-0.104,0-0.188,0-0.357
		c2.35-4.817,5.817-8.907,10.38-12.251c0.962-0.61,1.655-1.487,2.143-2.538c0.765-1.909,1.759-3.786,3.161-5.526
		c-0.352-1.032-0.656-1.993-1.149-2.857c-0.929-1.894-1.468-3.972-1.468-6.102c-0.084-1.811-0.39-3.552-0.934-5.122
		c-2.045-6.506-4.357-12.759-7.149-19.016c-0.778-1.572-1.435-3.161-2.044-4.728c-1.91-4.751-2.162-9.569-0.727-14.626
		c0.305-0.793,0.389-1.688,0.305-2.552c-0.441-3.785-1.336-7.35-2.617-10.934c-0.507-1.505-1.103-2.973-1.474-4.479
		c-3.142-11.323-7.387-22.243-12.843-32.942c-10.413-20.653-20.995-41.258-31.507-61.794c0,2.753-0.187,5.46-0.745,8.213
		c-0.202,1.154-0.319,2.167-0.403,3.199c-1.759,21.192-3.096,42.319-4.226,63.6c-0.085,2.045,0.285,4.024,0.962,6.018
		c0.661,1.571,0.965,3.175,1.032,4.732c0.155,6.033,0.999,11.882,2.434,17.51c6.032,22.683,12.018,45.433,18.087,68.131
		c0.675,2.382,1.552,4.564,2.904,6.811c1.642,2.603,2.791,5.277,3.738,8.044c-3.062,1.356-6.084,2.776-9.095,4.311
		c-0.98,0.371-1.772,0.914-2.654,1.642c-1.215,1.201-1.91,2.449-2.045,3.818c-0.234,4.076,0.291,8.212,1.946,12.205
		c4.831,12.05,8.518,24.49,11.188,37.402c0.272,1.876,0.83,3.856,1.318,5.784c1.557,6.895,3.316,13.907,5.07,20.873
		c0,0.234,0.07,0.553,0.07,0.779c0.371,1.435,0.774,2.669,1.201,4.136c0.488,1.591,0.896,2.993,1.131,4.429
		c1.046,4.971,1.792,10.042,2.233,15.042c0.151,1.421,0.151,2.589,0.319,3.617c0.356,7.068,1.285,13.996,2.5,20.995l-0.455,2.519
		l-0.22-0.792l-2.397,84.205c2.481,4.273,3.767,8.856,4.123,13.823c0.15,3.194-0.084,6.253-0.643,9.33
		c-0.797,3.987-0.714,7.861,0.234,11.745c0.408,1.422,0.797,2.862,1.201,4.175c0.408,1.59,0.797,3.147,0.882,4.751
		c0.605,6.98,0.591,14.011-0.085,20.991c0,0.61,0,1.253-0.356,1.726c-0.202,2.232-0.441,4.427-0.746,6.707
		c0.136,14.115,0.306,28.176,0.357,42.272c0.083,10.939,0.187,21.821,0.389,32.76c0.202,4.156,0.202,8.381-0.033,12.641
		c0,1.134,0,2.317,0,3.448c-0.169,4.193,0,8.349,0.15,12.561l1.961,21.6c1.032,0.727,2.063,1.59,3.025,2.449
		c0.966,0.624,1.572,1.454,2.162,2.467c1.928,3.584,2.284,7.421,0.999,11.713c-0.966,3.452-1.772,7.05-2.129,10.549
		c-0.441,2.585-1.201,4.63-2.486,6.389l-1.332,0.323l1.689,0.605c0.474-0.389,1.468-0.168,2.89,0.882
		c1.993,1.52,2.771,3.378,2.298,5.864l-4.156,2.382l0.558,5.122c1.266,0.877,2.261,1.806,3.194,2.993
		c0.488,0.726,0.657,1.486,0.234,2.312c-0.37,1.032-1.079,2.115-1.759,3.161l0.188,7.524c0.253,0.403,0.404,0.895,0.404,1.332
		c0.088,0.407,0,0.863,0,1.44v0.065c1.81,7.148,1.032,13.842-2.468,20.197l-4.357,2.603c-2.265,2.351-5.511,3.87-9.705,4.616
		c-1.772,0.286-3.513,0.441-5.253,0.76c-3.837,0.455-7.623,0.793-11.459,0.962c-1.238,0-2.453,0.052-3.583,0.155
		c-5.193-1.116-10.278-2.552-15.179-4.414c-1.843-0.741-3.35-1.772-4.362-3.396c-2.74-3.991-4.175-8.503-4.175-13.269
		c0-7.758-0.403-15.395-1.182-23.171c-0.423-3.208-0.625-6.492-0.812-9.7c-0.727-0.122-1.318-0.122-1.961-0.122l-0.202,0.122
		l-0.155-0.122c-0.605-0.047-1.201-0.047-1.624-0.047c-1.941-0.084-3.41-1.097-4.291-2.856c-0.104-0.423-0.235-0.643-0.357-0.934
		l-0.084-0.099l-0.319-2.078l-6.135-9.38l-4.63,0.37c-2.317-0.928-3.738-2.5-4.601-4.817c-1.266-3.48-2.143-7.032-2.669-10.615
		c-0.403-2.753,0.169-5.239,1.59-7.421c0.558-0.793,0.962-1.674,1.15-2.603c1.74-6.52,2.973-13.251,3.448-20.263
		c0.135-3.33,1.167-6.44,2.992-9.349c4.24-6.979,8.331-13.992,12.42-20.957c0.085-0.83,0.239-1.506,0.592-2.229
		c0-0.815,0.084-1.491,0.084-2.2c0-0.168,0-0.168,0-0.272c-0.727-5.356-1.487-10.661-2.027-16.141
		c-0.202-1.182-0.441-2.434-0.727-3.7c-1.571-7.148-1.674-14.166-0.422-21.126c0-0.577,0-1.032,0.103-1.591
		c0.39-2.838,0.76-5.68,0.962-8.569l-1.453-4.48v0.76c-0.151-2.044-0.273-4.207-0.356-6.304l0.084,0.947l0.662-8.485l-1.59-2.331
		c-0.742-0.812-1.469-1.474-2.144-2.149c-1.557-1.435-2.083-3.161-1.844-5.22l2.449-6.506l0.356,2.312l-1.084-8.466
		c-1.163-5.526-3.157-10.817-5.863-15.854c-0.306-0.389-0.493-0.98-0.675-1.858c-1.201-5.328-1.98-10.648-2.233-15.938
		c-0.285-4.429,0.084-8.809,1.187-13.031c0.638-2.27,0.962-4.531,1.046-6.764c0.098-0.694,0.183-1.403,0.183-2.111
		c0-0.334-0.001-0.709-0.013-1.083l-0.072-0.999c0.041,0.309,0.061,0.654,0.072,0.999l0.032,0.441c0-0.286,0-0.643,0-0.947
		c0-0.408,0-0.709,0.117-1.046c-0.319-4.076-0.643-8.134-0.995-12.172c-0.083-1.674-0.524-3.227-0.947-4.751
		c-3.161-8.669-6.388-17.323-9.686-25.944c-0.962-2.299-1.754-4.597-2.519-6.895c-1.234-3.246-2.533-6.422-3.987-9.499
		c-0.746-1.642-1.557-3.246-2.383-4.747c-2.402-4.972-5.376-9.549-8.856-13.762c-0.253-0.488-0.609-0.774-0.965-1.116
		c-2.06-1.82-3.48-4.598-4.396-8.265c-0.117-0.384-0.117-0.844,0-1.299l-1.045-0.54c-2.67,0.695-5.136,1.839-7.336,3.293
		c-2.35,1.575-4.142,3.687-5.221,6.186c-0.408,0.727-0.675,1.506-0.844,2.369c-0.037,0.234-0.207,0.553-0.389,0.877
		c-0.493,0.877-0.849,1.778-1.168,2.707c-2.026,5.76-4.259,11.627-6.623,17.477c-0.188,0.3-0.324,0.469-0.441,0.722
		c-2.421,3.129-3.992,6.576-4.818,10.446c-0.136,0.895-0.371,1.876-0.745,2.81c-3.818,8.65-7.167,17.336-10.239,26.126
		c-2.032,5.849-4.311,11.665-6.609,17.327c-0.221,0.455-0.441,1.37-0.61,2.636c-0.319,2.772-0.675,5.526-1.201,8.316
		c-1.403,7.421-2.669,14.635-3.837,21.652c-0.558,3.495-1.759,6.708-3.547,9.818c-0.596,1.032-0.848,2.083-0.966,3.181
		c-0.272,1.707-0.305,3.448-0.272,5.169c0.272,2.35-0.202,4.699-1.248,7.016c-0.155,0.216-0.304,0.525-0.304,0.877
		c-0.76,1.961-1.811,3.921-3.279,5.68c-0.999,1.15-1.351,2.585-0.999,4.344l-0.793,1.572l-11.29,86.757
		c-0.76,2.284-1.253,4.583-1.525,6.881c-0.286,1.417-0.403,2.67-0.506,3.87c-1.046,7.894-1.3,15.802-1.046,23.678
		c0.337,4.564,0.155,9.315-0.085,14.231c1.487,1.506,3.161,3.148,4.681,4.803c2.181,2.144,3.18,4.987,3.025,8.532
		c0,1.07,0,2.182,0.169,3.265c0.254,3.598,0.103,7.382-0.61,11.037c-0.253,0.099-0.403,0.389-0.469,0.624
		c-0.526,1.234-1.323,2.167-2.382,2.74c-1.103,0.572-2.219,1.064-3.283,1.285c-3.091,0.812-5.967,1.961-8.687,3.396
		c-1.352,0.643-2.229,1.572-2.67,2.772l-1.59,8.082c-1.824,1.182-3.396,2.514-5.019,4.188c-0.844,0.896-1.642,1.811-2.434,2.838
		c-0.877,1.285-1.844,2.486-2.481,3.635c0,0.324,0,0.493-0.122,0.812c-1.299,8.64-5.305,15.719-11.726,21.417
		c-2.693,2.397-5.849,3.649-9.381,3.715c-5.53,0.239-11.192,0.239-16.699,0.239c-1.454,0-2.792,0-3.889,0
		c-2.843-0.304-5.53-0.708-8.214-0.999c-1.998-0.065-3.635-0.877-4.855-2.35c-0.37-0.521-0.643-0.962-0.689-1.45
		c-0.915-4.024-1.623-7.978-2.351-12.055c0.136-0.215,0.136-0.539,0.202-0.76c0.151-0.98,0.033-1.74-0.202-2.415
		c0.202-0.507,0.353-1.084,0.54-1.572c0.61-2.031,0.708-4.09,0.61-6.136c-0.577-4.465,0.487-8.555,2.856-12.289l-2.369-1.571
		c0.169-0.662,0.376-1.201,0.714-1.74c0.319-0.661,0.806-1.149,1.365-1.759c0.764-0.708,1.707-1.337,2.758-1.792
		c0.135,0,0.234,0,0.267,0l-6.337-1.961c0.136-0.117,0.136-0.117,0.136-0.169c-0.305-0.338-0.403-0.877-0.403-1.539
		c0.065-1.097,0.708-1.824,1.824-1.961c0.052-0.168,0.117-0.319,0.306-0.436c0.962-0.765,2.008-1.473,3.091-2.083
		c0.201-0.202,0.403-0.272,0.591-0.37l-1.469-1.267l-0.22-0.999l5.544-3.7l0.254-0.812l0.76-0.558l-0.084-2.603l1.741-1.754
		c0.793-3.233,1.674-6.394,2.571-9.536c0-0.182,0-0.267,0-0.352c0.084-0.999,0.403-1.961,1.064-2.843l-0.779-4.902
		c-1.824-1.806-2.856-4.104-3.025-6.896c-0.169-3.212-0.455-6.388-0.812-9.55c-0.591-4.31-1.201-8.42-1.689-12.576
		c-1.824-12.693-1.909-25.32-0.272-38.012c0.526-3.532,1.454-6.811,3.007-9.888c5.376-10.817,9.011-22.192,10.919-34.195
		c0.61-3.531,0.779-7.045,0.779-10.493c-0.019-5.731,0.187-11.393,0.591-17.223c0.052-0.915,0.272-1.863,0.675-2.753
		c1.149-2.909,1.473-5.751,0.844-8.744c-0.319-1.754-0.844-3.428-1.383-4.948c-0.286-0.915-0.441-1.895-0.441-2.824
		c-0.099-3.025,0.155-5.999,0.675-8.926c0.22-1.454,0.084-2.852-0.371-4.123c-0.15-0.267-0.272-0.488-0.272-0.643
		c-2.772-5.155-4.987-10.357-6.726-15.901c-1.014-3.297-1.721-6.557-2.214-9.841c-0.572-4.597-0.812-9.174-0.844-13.809
		c-0.051-12.42,0-24.742,0.136-37.201c0.136-15.057,1.505-29.847,4.226-44.552c0.183-0.948,0.301-1.91,0.436-2.669
		c0.798-6.426,1.825-12.692,3.35-18.931c1.032-4.362,1.843-8.874,2.181-13.302c0.404-3.467,0.812-7.135,1.248-11.07
		c0.493-3.18,0.999-6.407,1.914-9.803c1.281-5.648,2.805-11.393,4.391-17.172c1.369-4.771,1.961-9.751,1.725-14.672l0.625-0.929
		l2.805-13.134l0.778-0.422c0.455-1.065,1.013-2.13,1.642-3.129c0.962-1.754,1.417-3.5,1.417-5.24c-0.202-1.116-0.169-2.045,0-2.819
		l-2.045-0.745l-1.163-1.572l1.248-5.61l-0.488-1.777c-0.962-0.525-1.811-0.929-2.791-1.253c-0.573-0.202-1.267-0.54-1.792-0.947
		c-0.727-0.657-1.163-1.196-1.572-1.905c-0.065-0.14-0.183-0.324-0.183-0.459c1.877-3.415,3.429-7.064,4.526-10.849
		c0.948-3.617,1.454-7.2,1.642-10.784c0.014-9.784,1.285-19.438,3.5-29.091c3.176-13.303,5.155-26.755,5.981-40.207
		c0.037-0.812,0.037-1.591,0.037-2.299c0.15-4.649,0.553-9.161,1.111-13.438c0.07-1.352,0.291-2.735,0.558-4.02
		c0.966-6.121,0.493-11.984-1.552-17.665c-0.882-2.364-1.609-4.831-2.234-7.265c-0.726-2.857-1.453-5.713-2.28-8.401
		c-0.965-3.818-1.993-7.538-3.11-11.238c-0.591-1.83-0.812-4.006-0.727-6.459c0.085-4.714,0-9.143-0.441-13.505
		c-0.187-1.486-0.441-3.058-0.675-4.564c-1.388,2.857-1.979,5.695-1.979,8.551c0,4.428-0.371,8.94-1.065,13.424
		c-0.065,0.113-0.065,0.268-0.267,0.423c0,0-0.052,0-0.187,0.084c0,0.215,0,0.454-0.118,0.773c-0.253,1.135-0.694,1.994-1.284,2.772
		c-3.33,4.751-5.343,10.057-6.187,15.906c-0.234,2.045-0.76,5.005-1.454,9.011c-0.572,3.935-0.741,7.026-0.487,9.362
		c0.182,2.195-0.254,5.591-1.285,10.258c-1.084,4.583-1.674,8.096-1.674,10.381c0,2.429-0.052,4.897,0,7.369
		c0,1.332-0.221,2.922-0.779,4.512c-0.234,0.371-0.506,1.098-0.69,1.825c-1.369,3.72-2.42,7.42-3.246,11.304
		c-0.474,2.2-1.285,4.006-2.298,5.596l-2.538,6.576c0.117,1.928-0.305,3.565-1.351,5.07c-0.558,0.882-0.966,1.741-1.135,2.843
		c-2.753,16.141-4.071,32.483-4.071,49.031c0.052,0.183,0.286,0.437,0.371,0.761c0.155,0.389,0.324,0.793,0.511,1.284
		c0,0.034,0,0.286,0,0.436c0.014,0.273,0.014,0.324,0,0.545c0,0.371-0.187,0.656-0.389,0.962c0,0.103-0.122,0.254-0.272,0.408
		c0.272,0.384,0.441,0.638,0.661,0.863c1.046,1.45,2.312,2.702,3.954,3.734c2.097,1.351,4.175,2.856,6.084,4.531
		c1.552,1.482,2.974,3.142,3.903,5.15c2.908,5.427,5.797,10.822,8.823,16.178l0.441,6.271l2.702,9.175l-1.384,1.914l-1.604,0.708
		c-1.355-0.103-2.434-0.239-3.316-0.525c-1.552-0.507-3.157-1.234-4.597-2.097c-2.753-1.689-4.611-4.222-5.324-7.434
		c-0.455-1.91-1.046-3.889-1.552-5.953l-4.479-7.078h-2.791l-1.638,2.988l-0.999,0.848l-1.674,22.886l3.096,0.693l0.136,0.085
		c1.247,0.099,1.772,0.69,1.772,2.045c0,0.422-0.117,0.774-0.506,1.06c-0.187,0.038-0.286,0.155-0.371,0.239l-0.895,1.167
		l0.22,2.045l3.157-1.116l0.169,0.117c0.187-0.169,0.324-0.239,0.713-0.337c1.552-0.338,2.449,0.337,2.585,1.674
		c0.117,0.132,0.117,0.286,0.117,0.469l0.084,0.136l-1.453,2.472c1.116,0,2.233,0,3.264,0c0.202,0.15,0.436,0.254,0.591,0.384
		c0.812-0.065,1.487,0.188,2.229,0.812c0.61,0.628,1.201,1.337,1.557,2.182c0.085,0.168,0.202,0.492,0.202,0.811l-0.825,2.2
		l-4.039,3.007l-2.556,0.268c-0.422,0.309-0.877,0.68-1.468,1.017c-0.169,0.065-0.286,0.183-0.455,0.319
		c-0.947,0.441-1.909,0.441-2.706,0.052c-1.149-0.371-2.195-0.708-3.194-1.013v0.234l-0.675,1.895
		c-0.844,0.169-1.557,0.422-2.401,0.488c-1.624,0.07-3.382,0-5.104-0.132c-3.259-0.254-6.675-0.356-10.09-0.61l-3.771-5.122
		l-3.025-0.403c-0.15-0.135-0.305-0.375-0.404-0.544c-1.318-3.246-2.655-6.577-4.259-9.701c-2.843-6.018-6.017-12.05-9.231-17.899
		l-0.877-17.411c-0.169-0.319-0.305-0.572-0.441-0.773c-0.22-0.511-0.474-0.966-0.526-1.525c-0.098-0.169-0.098-0.423-0.098-0.553
		c-0.052-0.239-0.052-0.394-0.052-0.647c0.052-0.267,0.202-0.638,0.404-0.962c0.052-0.202,0.155-0.319,0.272-0.455
		c0.136-0.234,0.169-0.389,0.356-0.628l-2.655-1.585c-1.247-5.714-2.044-11.394-2.448-17.088c-0.084-1.741-0.071-3.415,0.319-5.071
		c1.285-6.577,1.688-13.134,1.116-19.625c-0.104-1.741-0.104-3.378,0-5.052c0-0.948-0.085-1.843-0.272-2.636
		c-0.118-0.441-0.118-1.018-0.118-1.558c0.118-4.695,0.156-9.446,0.306-14.01c0-2.52,0.202-5.001,0.488-7.369
		c0.389-3.57,0.168-6.797-0.488-9.888l0.656-3.636c-1.196-4.681-1.196-9.55,0.156-14.569c2.246-8.771,4.24-17.561,6.017-26.267
		c1.454-7.538,2.519-15.039,3.161-22.613c0.169-1.674,0.436-3.26,0.962-4.766c1.032-3.635,2.112-7.2,3.363-10.836
		c1.233-3.175,2.232-6.421,3.176-9.667c0.596-1.98,0.966-4.024,1.051-6.084c0.15-2.453,0.558-4.798,1.234-7.2
		c1.876-6.863,3.428-13.776,4.699-20.657c0.216-1.656,0.638-3.396,1.013-5.15c0.403-1.811,1.435-5.057,2.89-9.803
		c1.487-4.738,2.974-11.309,4.564-19.476c1.59-8.311,4.479-17.238,8.79-26.873c4.26-9.751,7.486-16.834,9.785-21.328
		c2.317-4.465,3.869-7.744,5.005-9.62c1.116-2.013,2.449-4.189,4.188-6.572c2.299-3.33,5.122-5.966,8.724-8.012
		c1.468-0.934,3.428-1.745,5.812-2.538l0.915-10.446c-7.068-8.077-14.217-15.718-21.821-23.19c-1.571-1.487-3.518-2.599-5.713-3.143
		c-1.201-0.319-2.486-0.403-3.701-0.319c-8.471-0.408-16.852-1.182-25.15-2.453c-2.284-0.32-4.31-1.098-6.22-2.538
		c-2.843-2.157-3.499-4.915-1.811-8.396c-1.116-0.558-1.942-1.318-2.397-2.284c-2.758-4.175-5.596-8.467-8.471-12.726
		c-1.417-2.078-2.06-4.479-1.909-6.83c0-4.193,2.012-6.623,5.83-7.519c1.844-0.22,3.635-0.643,5.427-0.882
		c7.946-1.637,15.737-3.7,23.341-6.285c3.044-0.98,5.408-2.72,7.388-5.239c3.381-4.667,6.304-9.822,8.79-15.179
		c1.079-2.467,2.228-4.7,3.598-6.932c2.401-3.547,5.155-6.474,8.602-8.988c3.889-2.945,8.284-5.53,12.899-7.795
		c0.099-1.891,0.488-3.734,1.116-5.61c1.773-5.441,3.41-10.967,5.085-16.445c1.233-3.804,2.148-7.758,2.89-11.614
		c0.778-3.682,2.655-6.065,5.817-7.28c0.877,0.891,1.623,1.792,1.993,2.974c4.024,10.459,7.978,21.177,11.562,31.839l13.012,5.628
		l17.514-15.853c1.061,0.407,2.008,0.965,2.702,1.744c3.466,3.969,6.168,8.312,7.978,13.064c2.974,7.537,5.408,15.446,7.318,23.443
		c4.479,2.89,9.076,5.849,13.588,8.837c4.681-2.94,9.349-5.765,13.913-8.7c1.201-5.681,2.701-11.31,4.615-16.685
		c1.792-5.558,4.105-10.868,6.91-15.99c1.557-3.007,3.888-4.747,7.083-5.155l17.29,16.074l13.166-5.394
		c3.705-10.68,7.744-21.193,12.018-31.619c0.422-1.051,1.116-2.064,1.961-2.96c2.181,0.506,3.484,1.726,4.226,3.668
		c0.915,2.908,1.946,5.83,2.791,8.921c1.806,5.68,3.462,11.562,4.916,17.411c0.999,3.804,1.83,7.524,2.402,11.323
		c1.708,0.643,3.331,1.525,4.837,2.505c5.07,3.344,9.732,7.13,14.011,11.426c1.792,1.792,3.259,4.038,4.259,6.474
		c1.825,4.357,3.837,8.635,5.948,12.823c1.998,3.804,4.732,6.746,8.302,8.706c7.434,4.109,15.446,7.101,23.983,9.109
		c1.248,0.309,2.566,0.356,3.87,0.356c1.402,0.085,2.824,0.441,4.123,0.947c1.267,0.507,2.434,1.22,3.467,2.247
		c1.52,1.525,2.33,3.298,2.078,5.479c-0.15,1.098-0.455,2.045-0.844,2.839c-2.467,4.648-4.7,9.329-6.778,14.146
		c-0.966,2.453-2.96,4.038-5.596,4.7c1.454,2.805,1.084,5.272-0.792,7.42c-3.518,3.716-7.997,5.526-13.453,5.526
		c-7.05-0.22-14.016-0.085-20.996,0.643c-2.87,0-5.356,0.948-7.505,2.857c-7.505,6.623-14.771,13.757-21.516,21.365
		c1.352,0.319,2.603,0.774,3.889,1.318c2.045,0.812,4.377,1.741,6.793,2.805c2.57,0.91,4.854,2.688,6.966,5.07
		c2.2,2.364,4.109,5.207,5.848,8.532c1.825,3.298,3.649,7.102,5.812,11.225c0.239,0.643,0.713,1.271,1.116,1.909
		c1.065,1.505,1.98,3.096,2.603,4.667c2.571,6.168,5.441,12.201,8.654,17.951c2.115,4.123,3.819,8.162,5.174,12.337
		c-0.187,0.966,0,1.998,0.455,3.044c1.622,3.466,3.259,6.928,4.934,10.478c1.051,2.163,2.13,4.141,3.312,6.136
		c0.895,1.468,1.59,2.922,2.2,4.413c3.161,9.409,7.298,18.439,12.186,27.14c2.35,4.09,4.868,8.166,7.388,12.172
		c1.196,1.759,2.059,3.921,2.818,6.337c0.83,2.688,1.576,5.479,2.369,8.331c0.183,0.394,0.319,0.765,0.591,1.102
		c3.617,5.306,6.478,11.07,8.654,17.172c1.792,5.221,3.039,10.361,3.697,15.601c0.187,2.045,0.693,3.936,1.453,5.916
		c0.592,1.824,1.389,3.55,2.402,5.389c1.154,2.045,1.352,4.278,0.817,6.492c2.833,4.972,4.494,10.347,4.784,16.141
		c0.263,4.193,0.535,8.199,1.033,12.444c0.262,2.5,0.516,5.033,0.938,7.654c0.478,4.663,0.966,9.246,1.276,13.843
		c0.657,7.993,1.014,16.056,1.23,24.189c0.168,3.988,0.609,7.839,1.416,11.83c0.797,3.954,1.069,7.974,0.947,12.233
		c-0.15,5.615-0.15,11.412,0.122,17.022C515.715,1450.836,515.359,1453.322,514.514,1455.62z M848.738,1701.187l-58.445,232.204
		H681.087l-120.53-383.32h110.435l71.128,260.07h1.407l63.229-260.07h41.981v151.116H848.738z M848.738,1150.183h48.285v72.343
		h-48.285V1150.183z M924.894,1933.391l-59.711-228.652v-154.668h43.173l66.034,258.888h1.351l69.599-258.888h109.394
		l-121.899,383.32L924.894,1933.391L924.894,1933.391z M1343.803,1618.656c-0.467,0.014-0.926,0.038-1.389,0.057
		c-58.304,2.377-87.489,43.34-87.489,122.973c0,79.563,29.644,120.159,88.878,121.952v79.913
		c-58.21-0.765-105.342-18.865-140.727-54.664c-35.836-37.201-53.482-86.317-53.482-147.201c0-60.982,17.646-109.708,53.482-145.863
		c30.048-31.066,68.379-48.965,114.863-54.322c-44.11-5.948-80.688-23.866-109.929-53.698
		c-34.757-36.37-52.056-84.477-52.056-144.751c0-37.774,7.908-71.579,23.866-101.172c-9.569-1.844-20.93-2.823-34.045-2.823
		c-43.979,0-73.961,16.094-90.125,48.932v-96.814c23.162-33.448,58.286-49.945,105.2-49.945c7.881,0,15.348,1.196,22.853,3.954
		v89.511c7.608-12.538,16.362-24.237,26.906-35.02c34.411-37,78.53-56.47,131.806-58.225v78.526
		c-51.652,1.824-78.698,28.631-81.1,81.33h81.1v67.202h-81.1c2.402,59.612,29.447,91.509,81.1,96.021v77.765h1.389
		L1343.803,1618.656L1343.803,1618.656z M1543.613,1776.354c-0.545,4.376-1.183,8.739-1.923,12.876
		c-2.439,12.932-5.779,25.305-9.945,36.797c-2.026,5.005-3.987,9.569-5.947,14.133c-8.65,18.101-19.504,34.411-33.397,48.726
		c-33.396,33.585-77.179,51.465-130.689,54.289v-80.35c53.079-5.952,79.947-46.329,79.947-121.14
		c0-75.72-26.868-116.505-79.947-122.25v-80.876h-1.313v-73.797c0.443-0.011,0.874-0.034,1.313-0.049
		c40.363-1.349,65.557-18.004,76.026-49.268h91.373c-0.91,3.378-2.402,6.745-3.311,9.751
		c-25.892,69.566-73.999,108.527-144.377,116.914c44.523,5.797,81.701,23.677,110.979,53.712
		c13.894,13.86,24.748,30.001,33.397,47.918c7.205,15.484,12.505,32.418,15.892,50.485c0.74,4.193,1.378,8.552,1.923,13.101
		L1543.613,1776.354L1543.613,1776.354z M1658.616,1946.116c-42.327-4.123-70.79-18.828-85.115-43.693
		c-3.659-5.981-6.154-12.571-7.946-19.691c-2.373-8.565-3.414-17.899-3.414-28.054v-321.137h-0.545v-381.989h97.02V1946.116z
		 M1747.485,1943.55c-17.749,2.566-38.603,3.799-62.197,3.799c-3.452,0-6.933,0-10.179-0.187v-102.204
		c6.999,11.525,20.049,17.276,39.354,17.276c14.297,0,25.283-0.831,33.022-2.383V1943.55z M1875.707,1933.391h-49.561
		l-130.821-383.32h110.408l69.975,228.277L1875.707,1933.391L1875.707,1933.391z M1893.418,1933.391v-138.579l74.947-244.741
		h104.075l-129.498,383.32L1893.418,1933.391L1893.418,1933.391z M2246.367,1618.877c-50.874,2.148-77.544,29.377-80.115,80.894
		h80.115v67.216h-80.115c2.402,59.242,29.035,91.087,80.115,95.839v80.538c-54.626-1.993-99.018-21.094-133.194-56.86
		c-34.813-36.624-52.329-84.693-52.329-144.818c0-58.411,18.322-106.752,54.665-144.733c34.176-35.78,77.751-54.842,130.858-56.841
		L2246.367,1618.877L2246.367,1618.877z M2264.079,1943.363v-79.726c44.354-1.033,70.416-17.529,78.792-49.509h92.63
		C2408.249,1897.827,2351.155,1940.942,2264.079,1943.363z M2442.969,1766.987h-178.89v-67.216h73.764
		c-9.569-50.114-34.148-76.954-73.764-80.744v-78.915c59.055,1.793,104.553,25.034,137.003,69.571
		C2433.297,1651.87,2447.434,1704.368,2442.969,1766.987z M2616.99,1943.363c-108.578-3.415-164.452-48.51-167.567-135.605h100.333
		c0,39.551,22.345,61.048,67.235,64.242v71.363H2616.99z M2616.99,1609.683c-35.565,1.013-53.303,12.965-53.303,35.612
		c0,12.965,17.739,25.863,53.303,38.401v90.036c-11.323-3.176-23.463-6.337-36.943-9.297
		c-81.128-16.951-121.627-50.738-121.627-101.43c0-80.129,52.769-121.101,158.57-123.076V1609.683z M2634.701,1943.363v-70.988
		c43.107-0.965,64.843-17.327,64.843-48.106c0-16.154-21.735-31.417-64.843-45.349v-89.477c14.138,4.38,30.02,8.738,48.276,12.932
		c81.232,18.673,121.965,54.472,121.965,107.766C2804.942,1897.827,2748.223,1942.18,2634.701,1943.363z"/>
	<path fill="#FFFFFF" d="M453.368,1865.935l0.117,0.085C453.485,1865.935,453.401,1865.935,453.368,1865.935z"/>
</g>
</svg>
