<?xml version="1.0" standalone="no"?>
<!DOCTYPE svg PUBLIC "-//W3C//DTD SVG 1.1//EN" "http://www.w3.org/Graphics/SVG/1.1/DTD/svg11.dtd" >
<svg xmlns="http://www.w3.org/2000/svg">
    <defs>
        <font id="BluuNext-Bold">
            <font-face font-family="BluuNext-Bold"
                       units-per-em="1000"
                       ascent="940"
                       descent="-260"
                       bbox="-12 -232 1098 927"
                    />
            <missing-glyph horiz-adv-x="0" />
            
            <glyph glyph-name="!" unicode="&#x21;" horiz-adv-x="190" d=" M166,657 L118,220 L82,220 L33,657 L100,703 M19,66 L105,159 L190,66 L105,-26"/> 
            <glyph glyph-name="&quot;" unicode="&#x22;" horiz-adv-x="215" d=" M80,475 L40,475 L24,695 L98,695 M197,475 L157,475 L141,695 L215,695"/> 
            <glyph glyph-name="#" unicode="&#x23;" horiz-adv-x="554" d=" M254,429 L372,429 L419,608 L493,608 L446,429 L554,429 L554,379 L433,379 L396,227 L526,227 L526,176 L383,176 L336,0 L262,0 L309,176 L191,176 L143,0 L69,0 L117,176 L30,176 L30,227 L130,227 L167,379 L58,379 L58,429 L180,429 L226,608 L300,608 M204,227 L322,227 L359,379 L241,379"/> 
            <glyph glyph-name="$" unicode="&#x24;" horiz-adv-x="435" d=" M30,233 L40,233 Q59,161 100.5,107 Q142,53 194,34 L194,243 Q164,256 146,265.5 Q128,275 104,291.5 Q80,308 66.5,325.5 Q53,343 43,369.5 Q33,396 33,428 Q33,495 74,541.5 Q115,588 195,595 L195,649 L257,649 L255,596 L346,596 L388,609 L388,421 L381,422 Q343,529 254,559 L247,370 Q343,330 375,305 Q435,258 435,187 Q435,92 381.5,45 Q328,-2 234,-7 L232,-58 L194,-58 L194,-7 Q98,-2 41,24 M195,393 L195,568 Q161,566 139.5,545 Q118,524 118,489 Q118,432 195,393 M235,26 L242,26 Q281,26 310.5,46 Q340,66 340,104 Q340,145 314.5,171.5 Q289,198 242,221"/> 
            <glyph glyph-name="%" unicode="&#x25;" horiz-adv-x="748" d=" M642,719 L190,-33 L143,-33 L594,719 M362,508 Q362,426 312.5,359.5 Q263,293 178,293 Q111,293 72,347 Q33,401 33,474 Q33,557 82,623 Q131,689 216,689 Q284,689 323,635 Q362,581 362,508 M181,660 Q119,660 119,544 Q119,453 146.5,387.5 Q174,322 216,322 Q247,322 262.5,360.5 Q278,399 278,438 Q278,529 250,594.5 Q222,660 181,660 M748,205 Q748,123 698.5,56.5 Q649,-10 564,-10 Q497,-10 458,44 Q419,98 419,171 Q419,254 468,320 Q517,386 602,386 Q670,386 709,332 Q748,278 748,205 M567,357 Q505,357 505,241 Q505,150 532.5,84.5 Q560,19 602,19 Q633,19 648.5,57.5 Q664,96 664,135 Q664,226 636,291.5 Q608,357 567,357"/> 
            <glyph glyph-name="&amp;" unicode="&#x26;" horiz-adv-x="768" d=" M618,368 L522,436 L768,436 L650,366 L552,183 L632,75 L725,0 L533,0 L469,92 Q354,-15 237,-15 Q140,-15 92,24 Q44,63 44,131 Q44,205 115.5,260.5 Q187,316 291,338 L291,383 L289,383 Q204,383 158,424.5 Q112,466 112,525 Q112,591 169.5,643 Q227,695 335,695 Q420,695 467,655 Q514,615 514,557 Q514,503 473,454.5 Q432,406 356,390 L361,350 L430,350 L536,206 M292,669 Q229,669 229,580 Q229,510 259,459 Q289,408 331,408 Q365,408 380.5,439.5 Q396,471 396,503 Q396,572 365.5,620.5 Q335,669 292,669 M454,114 L310,322 Q255,308 218.5,267 Q182,226 182,176 Q182,51 327,51 Q361,51 396.5,68.5 Q432,86 454,114"/> 
            <glyph glyph-name="'" unicode="&#x27;" horiz-adv-x="100" d=" M82,475 L42,475 L26,695 L100,695"/> 
            <glyph glyph-name="(" unicode="&#x28;" horiz-adv-x="281" d=" M266,726 L281,711 Q194,623 161.5,522 Q129,421 129,276 Q129,131 161.5,29.5 Q194,-72 281,-159 L266,-174 Q223,-137 202,-117.5 Q181,-98 142,-51.5 Q103,-5 83.5,35.5 Q64,76 47.5,140 Q31,204 31,276 Q31,317 35,353.5 Q39,390 49.5,423 Q60,456 69.5,482 Q79,508 97,535.5 Q115,563 126.5,580.5 Q138,598 161.5,623 Q185,648 195.5,659 Q206,670 232,694.5 Q258,719 266,726"/> 
            <glyph glyph-name=")" unicode="&#x29;" horiz-adv-x="259" d=" M10,711 L25,726 Q31,720 62.5,690 Q94,660 104,649.5 Q114,639 141.5,608 Q169,577 180,558 Q191,539 210,504 Q229,469 237,437.5 Q245,406 252,364 Q259,322 259,276 Q259,204 242.5,140 Q226,76 206.5,35.5 Q187,-5 148,-51.5 Q109,-98 88.5,-117 Q68,-136 25,-174 L10,-159 Q97,-72 129.5,29.5 Q162,131 162,276 Q162,421 129.5,522 Q97,623 10,711"/> 
            <glyph glyph-name="*" unicode="&#x2A;" horiz-adv-x="331" d=" M178,537 L160,537 L132,654 L168,696 L205,656 M138,515 L147,531 L59,613 L5,603 L21,551 M198,515 L189,531 L276,613 L331,603 L314,551 M138,499 L147,483 L59,400 L5,411 L21,463 M198,499 L189,483 L276,400 L331,411 L314,463 M160,479 L178,479 L206,362 L170,320 L133,360"/> 
            <glyph glyph-name="+" unicode="&#x2B;" horiz-adv-x="468" d=" M289,310 L468,310 L468,238 L289,238 L289,55 L210,25 L210,238 L40,238 L40,310 L210,310 L210,483 L289,513"/> 
            <glyph glyph-name="," unicode="&#x2C;" horiz-adv-x="194" d=" M47,-123 L33,-113 Q98,-59 98,-9 Q98,-2 96.5,4.5 Q95,11 91,17 Q87,23 85,25.5 Q83,28 76.5,35 Q70,42 69,43 L30,74 L113,159 Q142,141 168,113 Q194,85 194,62 Q194,-31 51,-121 Q48,-122 47,-123"/> 
            <glyph glyph-name="-" unicode="&#x2D;" horiz-adv-x="275" d=" M275,242 L30,242 L30,322 L275,322"/> 
            <glyph glyph-name="." unicode="&#x2E;" horiz-adv-x="176" d=" M5,66 L91,159 L176,66 L91,-26"/> 
            <glyph glyph-name="/" unicode="&#x2F;" horiz-adv-x="417" d=" M105,0 L28,0 L340,695 L417,695"/> 
            <glyph glyph-name="0" unicode="&#x30;" horiz-adv-x="521" d=" M521,320 Q521,239 492.5,164.5 Q464,90 401,38 Q338,-14 253,-14 Q155,-14 97.5,69.5 Q40,153 40,268 Q40,349 68.5,423.5 Q97,498 160,550 Q223,602 308,602 Q407,602 464,518.5 Q521,435 521,320 M256,557 Q165,557 165,377 Q165,234 205,132.5 Q245,31 306,31 Q338,31 360,64.5 Q382,98 390,136.5 Q398,175 398,211 Q398,354 357.5,455.5 Q317,557 256,557"/> 
            <glyph glyph-name="1" unicode="&#x31;" horiz-adv-x="347" d=" M36,384 L35,386 L253,607 L253,66 L347,0 L44,0 L133,66 L133,420"/> 
            <glyph glyph-name="2" unicode="&#x32;" horiz-adv-x="488" d=" M43,0 L35,33 Q74,64 114.5,103.5 Q155,143 202,200.5 Q249,258 279,326 Q309,394 309,458 Q309,507 279.5,537.5 Q250,568 199,568 Q149,568 115,531.5 Q81,495 53,422 L48,422 L48,595 L184,595 Q293,595 369,555 Q445,515 445,440 Q445,400 424,362.5 Q403,325 368.5,293 Q334,261 297.5,233.5 Q261,206 221,174 Q181,142 159,116 L161,111 L223,116 L426,119 L484,240 L488,240 L467,0"/> 
            <glyph glyph-name="3" unicode="&#x33;" horiz-adv-x="457" d=" M43,-16 L35,9 Q92,9 149,21.5 Q206,34 252.5,68.5 Q299,103 299,152 Q299,213 254.5,244.5 Q210,276 130,291 Q126,290 115.5,287.5 Q105,285 99,284 L97,301 L130,313 Q161,324 175.5,329.5 Q190,335 221,350 Q252,365 268,378.5 Q284,392 298,414 Q312,436 312,461 Q312,509 278.5,538 Q245,567 190,567 Q140,567 111,530 Q82,493 54,425 L49,425 L49,595 L203,595 Q312,595 380,566.5 Q448,538 448,475 Q448,425 392.5,388.5 Q337,352 216,319 Q457,299 457,186 Q457,136 408,94.5 Q359,53 289,30.5 Q219,8 153.5,-4 Q88,-16 43,-16"/> 
            <glyph glyph-name="4" unicode="&#x34;" horiz-adv-x="528" d=" M400,193 L528,193 L528,148 L400,148 L400,66 L494,0 L191,0 L279,66 L279,149 L35,149 L276,595 L422,595 L138,194 L278,194 L278,274 L400,452"/> 
            <glyph glyph-name="5" unicode="&#x35;" horiz-adv-x="436" d=" M99,354 L138,375 Q189,397 238,397 Q315,397 375.5,345.5 Q436,294 436,213 Q436,109 362.5,55 Q289,1 160,1 L40,1 Q43,106 44,173 L51,173 Q53,167 58,157.5 Q63,148 79,123 Q95,98 113,79 Q131,60 159,44.5 Q187,29 216,29 Q266,29 290,60 Q314,91 314,173 Q314,357 202,357 Q163,357 94,320 L90,320 L85,293 L50,293 L92,586 L93,596 L377,596 L436,647 L425,596 L399,476 L119,476"/> 
            <glyph glyph-name="6" unicode="&#x36;" horiz-adv-x="463" d=" M431,603 L437,584 Q333,537 268,474.5 Q203,412 177,319 Q241,361 286,361 Q361,361 412,314 Q463,267 463,184 Q463,110 401,49 Q339,-12 239,-12 Q154,-12 97,40 Q40,92 40,173 Q40,317 148,426 Q256,535 431,603 M171,294 Q161,250 161,192 Q161,108 186,63 Q211,18 259,18 Q289,18 310,46 Q331,74 338,104.5 Q345,135 345,163 Q345,235 311,277.5 Q277,320 237,320 Q200,320 171,294"/> 
            <glyph glyph-name="7" unicode="&#x37;" horiz-adv-x="463" d=" M38,402 L35,402 L35,595 L463,595 L119,-40 L85,-24 L343,475 L88,475"/> 
            <glyph glyph-name="8" unicode="&#x38;" horiz-adv-x="457" d=" M262,610 Q322,610 370.5,579 Q419,548 419,490 Q419,415 325,357 Q358,335 375,322 Q392,309 414.5,285.5 Q437,262 447,234.5 Q457,207 457,173 Q457,123 433,84.5 Q409,46 371.5,25.5 Q334,5 296.5,-5 Q259,-15 225,-15 Q143,-15 89.5,25.5 Q36,66 36,131 Q36,162 46.5,188 Q57,214 75,232 Q93,250 111.5,263 Q130,276 150,289 Q152,290 153,290.5 Q154,291 156,292 Q158,293 159,294 Q156,297 144,307 Q132,317 128.5,320 Q125,323 115,332.5 Q105,342 101.5,346 Q98,350 90.5,359.5 Q83,369 80,375 Q77,381 72,391 Q67,401 65,410 Q63,419 61.5,430 Q60,441 60,453 Q60,530 121.5,570 Q183,610 262,610 M302,368 Q366,409 366,478 Q366,533 335,559 Q304,585 253,585 Q210,585 179.5,559.5 Q149,534 149,487 Q149,469 156.5,455 Q164,441 183.5,428 Q203,415 215,408 Q227,401 259.5,387 Q292,373 302,368 M187,281 Q147,258 118,220 Q89,182 89,135 Q89,83 123,46.5 Q157,10 226,10 Q286,10 323,39.5 Q360,69 360,125 Q360,146 355.5,163 Q351,180 339.5,193.5 Q328,207 319,216.5 Q310,226 289.5,236.5 Q269,247 259,251.5 Q249,256 222.5,266.5 Q196,277 187,281"/> 
            <glyph glyph-name="9" unicode="&#x39;" horiz-adv-x="463" d=" M66,10 Q170,56 235,119 Q300,182 326,275 Q270,233 217,233 Q142,233 91,280 Q40,327 40,410 Q40,484 102,545 Q164,606 264,606 Q350,606 406.5,558.5 Q463,511 463,430 Q463,332 408.5,244.5 Q354,157 268.5,95.5 Q183,34 72,-10 Q68,2 66,10 M332,299 Q342,351 342,401 Q342,485 317,530.5 Q292,576 244,576 Q214,576 193,548 Q172,520 165,489 Q158,458 158,430 Q158,359 192,316.5 Q226,274 266,274 Q304,274 332,299"/> 
            <glyph glyph-name=":" unicode="&#x3A;" horiz-adv-x="176" d=" M5,335 L91,428 L176,335 L91,243 M5,66 L91,159 L176,66 L91,-26"/> 
            <glyph glyph-name=";" unicode="&#x3B;" horiz-adv-x="212" d=" M41,351 L127,444 L212,351 L127,259 M60,-123 L46,-113 Q111,-59 111,-9 Q111,-2 109.5,4.5 Q108,11 104,17 Q100,23 98,25.5 Q96,28 89.5,35 Q83,42 82,43 L43,74 L126,159 Q155,141 181,113 Q207,85 207,62 Q207,-31 64,-121 Q61,-122 60,-123"/> 
            <glyph glyph-name="&lt;" unicode="&#x3C;" horiz-adv-x="514" d=" M46,292 L514,464 L514,392 L211,275 L514,112 L514,40 L46,212"/> 
            <glyph glyph-name="=" unicode="&#x3D;" horiz-adv-x="426" d=" M426,405 L426,333 L45,333 L45,405 M426,201 L426,129 L45,129 L45,201"/> 
            <glyph glyph-name="&gt;" unicode="&#x3E;" horiz-adv-x="514" d=" M514,212 L46,40 L46,112 L349,229 L46,392 L46,464 L514,292"/> 
            <glyph glyph-name="?" unicode="&#x3F;" horiz-adv-x="460" d=" M66,695 L152,695 Q215,695 262.5,689.5 Q310,684 358.5,669 Q407,654 433.5,621.5 Q460,589 460,540 Q460,503 441.5,472 Q423,441 390.5,418.5 Q358,396 329,381 Q300,366 262,350 Q224,334 212,328 L200,220 L176,220 L158,342 Q226,365 267,415 Q308,465 308,518 Q308,658 230,658 Q177,658 147,623 Q117,588 98,525 L90,524 M104,66 L190,159 L275,66 L190,-26"/> 
            <glyph glyph-name="@" unicode="&#x40;" horiz-adv-x="776" d=" M703,226 L762,267 Q776,201 776,143 Q776,51 721,-23.5 Q666,-98 581.5,-136.5 Q497,-175 403,-175 Q249,-175 147,-83.5 Q45,8 45,163 Q45,230 64,288 Q83,346 121.5,394 Q160,442 226,469.5 Q292,497 379,497 L651,497 L623,416 L623,80 L652,0 L484,0 L484,79 Q481,77 475,72 Q443,47 423,33 Q403,19 366.5,4 Q330,-11 298,-11 Q250,-10 217,20.5 Q184,51 184,97 Q184,125 192,147.5 Q200,170 221.5,190 Q243,210 263,224 Q283,238 324.5,256 Q366,274 395.5,285 Q425,296 484,316 Q484,349 481.5,368 Q479,387 467.5,411 Q456,435 428,446.5 Q400,458 354,458 Q284,458 230.5,433.5 Q177,409 146,366.5 Q115,324 99.5,273.5 Q84,223 84,166 Q84,22 173.5,-60 Q263,-142 403,-142 Q542,-142 639.5,-64 Q737,14 737,120 Q737,179 703,226 M484,106 L484,290 Q310,214 310,132 Q310,99 335,82 Q360,65 398,65 Q438,65 484,106"/> 
            <glyph glyph-name="A" unicode="&#x41;" horiz-adv-x="722" d=" M414,0 L506,69 L445,214 L185,214 L131,78 L226,0 L5,0 L76,79 L330,695 L377,695 L647,67 L722,0 M313,533 L203,259 L427,259"/> 
            <glyph glyph-name="B" unicode="&#x42;" horiz-adv-x="595" d=" M40,685 L269,685 Q406,685 478.5,651.5 Q551,618 551,534 Q551,473 507,436 Q463,399 393,372 Q595,327 595,183 Q595,132 563.5,94 Q532,56 480,37 Q428,18 373,9 Q318,0 260,0 L40,0 L100,106 L100,581 M230,653 L230,378 Q323,378 372.5,415.5 Q422,453 422,514 Q422,653 264,653 M230,39 L261,39 Q341,39 394.5,78 Q448,117 448,186 Q448,279 391.5,316 Q335,353 230,353"/> 
            <glyph glyph-name="C" unicode="&#x43;" horiz-adv-x="616" d=" M565,482 L552,482 Q525,552 472.5,598 Q420,644 347,644 Q263,644 221.5,578 Q180,512 180,406 Q180,273 233.5,189 Q287,105 388,105 Q528,105 601,221 L616,211 Q598,169 573,132 Q548,95 513,61 Q478,27 430,7.5 Q382,-12 327,-12 Q193,-12 114,79.5 Q35,171 35,319 Q35,387 60,451.5 Q85,516 131,568.5 Q177,621 249.5,653 Q322,685 409,685 L565,685"/> 
            <glyph glyph-name="D" unicode="&#x44;" horiz-adv-x="700" d=" M40,685 L306,685 Q414,685 494,656.5 Q574,628 617,581 Q660,534 680,481.5 Q700,429 700,372 Q700,200 587.5,100 Q475,0 289,0 L40,0 L114,106 L114,579 M244,38 L307,38 Q368,38 414.5,58.5 Q461,79 488.5,110 Q516,141 533,184 Q550,227 556,265 Q562,303 562,344 Q562,493 497.5,573 Q433,653 314,653 L244,653"/> 
            <glyph glyph-name="E" unicode="&#x45;" horiz-adv-x="552" d=" M552,217 L541,0 L40,0 L100,106 L100,581 L40,685 L522,685 L522,475 L510,475 L400,649 L230,649 L230,372 L503,372 L503,327 L230,327 L230,36 L409,36 L541,219"/> 
            <glyph glyph-name="F" unicode="&#x46;" horiz-adv-x="522" d=" M40,6 L100,106 L100,581 L40,685 L522,685 L522,481 L512,481 L400,649 L230,649 L230,369 L495,369 L495,323 L230,323 L230,106 L337,0 L40,0"/> 
            <glyph glyph-name="G" unicode="&#x47;" horiz-adv-x="663" d=" M663,309 L663,299 L610,262 L610,-6 L595,-6 L500,47 Q413,-13 327,-13 Q193,-13 114,78.5 Q35,170 35,318 Q35,386 60,450.5 Q85,515 131,567.5 Q177,620 249.5,652 Q322,684 409,684 L565,684 L565,481 L552,481 Q531,518 514.5,541 Q498,564 472,590.5 Q446,617 413,630 Q380,643 340,643 Q264,643 224,582.5 Q184,522 184,405 Q184,354 189,309.5 Q194,265 208.5,217.5 Q223,170 246,136.5 Q269,103 308.5,81.5 Q348,60 399,60 Q443,60 482,79 L482,245 L377,298 L377,309"/> 
            <glyph glyph-name="H" unicode="&#x48;" horiz-adv-x="740" d=" M665,106 L739,0 L461,0 L535,106 L535,333 L234,333 L234,106 L308,0 L30,0 L104,106 L104,580 L31,685 L309,685 L234,579 L234,378 L535,378 L535,580 L462,685 L740,685 L665,579"/> 
            <glyph glyph-name="I" unicode="&#x49;" horiz-adv-x="318" d=" M318,0 L40,0 L114,106 L114,579 L40,685 L318,685 L244,579 L244,106"/> 
            <glyph glyph-name="J" unicode="&#x4A;" horiz-adv-x="308" d=" M308,685 L234,579 L234,4 Q234,-47 189.5,-94.5 Q145,-142 89,-176 L82,-172 Q104,-126 104,-73 L104,579 L30,685"/> 
            <glyph glyph-name="K" unicode="&#x4B;" horiz-adv-x="757" d=" M428,0 L474,63 L286,324 L244,282 L244,106 L318,0 L40,0 L114,106 L114,580 L40,686 L318,686 L244,580 L244,345 L392,495 L502,611 L470,686 L702,686 L557,596 L382,421 L639,76 L757,0"/> 
            <glyph glyph-name="L" unicode="&#x4C;" horiz-adv-x="580" d=" M580,216 L569,0 L40,0 L100,106 L100,581 L40,685 L306,685 L230,580 L230,45 L438,45 L570,216"/> 
            <glyph glyph-name="M" unicode="&#x4D;" horiz-adv-x="881" d=" M153,96 L234,0 L29,0 L106,96 L106,581 L20,685 L218,685 L456,185 L671,685 L880,685 L806,603 L806,105 L881,0 L592,0 L676,104 L676,587 L417,-12 L410,-12 L153,508"/> 
            <glyph glyph-name="N" unicode="&#x4E;" horiz-adv-x="721" d=" M647,58 L690,0 L535,0 L168,489 L168,86 L253,0 L47,0 L121,93 L121,558 L24,685 L189,685 L599,114 L599,599 L513,685 L721,685 L647,592"/> 
            <glyph glyph-name="O" unicode="&#x4F;" horiz-adv-x="703" d=" M703,373 Q703,270 662,184 Q621,98 534.5,43 Q448,-12 331,-12 Q199,-12 117,86 Q35,184 35,313 Q35,416 76,502 Q117,588 203.5,643 Q290,698 407,698 Q539,698 621,600 Q703,502 703,373 M336,655 Q288,655 254.5,632.5 Q221,610 205.5,573 Q190,536 183.5,502.5 Q177,469 177,434 Q177,329 203,238 Q229,147 281.5,88.5 Q334,30 402,30 Q444,30 477,53 Q510,76 528,112 Q546,148 554.5,183.5 Q563,219 563,252 Q563,357 536.5,447.5 Q510,538 457,596.5 Q404,655 336,655"/> 
            <glyph glyph-name="P" unicode="&#x50;" horiz-adv-x="558" d=" M40,0 L114,106 L114,579 L40,685 L280,685 Q315,685 346.5,682 Q378,679 419,668 Q460,657 488.5,638.5 Q517,620 537.5,584.5 Q558,549 558,502 Q558,416 491,362 Q424,308 336,297 Q291,290 244,290 L244,106 L334,0 M244,655 L244,324 Q327,324 371.5,365.5 Q416,407 416,490 Q416,572 371,613.5 Q326,655 244,655"/> 
            <glyph glyph-name="Q" unicode="&#x51;" horiz-adv-x="703" d=" M586,-119 L582,-125 Q487,-91 371,-5 Q345,-7 331,-7 Q199,-7 117,88.5 Q35,184 35,313 Q35,389 59.5,457 Q84,525 129.5,578 Q175,631 246.5,662 Q318,693 407,693 Q539,693 621,597.5 Q703,502 703,373 Q703,274 663,190 Q623,106 548,54 M336,650 Q288,650 254.5,628 Q221,606 205.5,570.5 Q190,535 183.5,502 Q177,469 177,434 Q177,329 203,239.5 Q229,150 281.5,92.5 Q334,35 402,35 Q444,35 477,57.5 Q510,80 528,114.5 Q546,149 554.5,184.5 Q563,220 563,252 Q563,414 500.5,532 Q438,650 336,650"/> 
            <glyph glyph-name="R" unicode="&#x52;" horiz-adv-x="686" d=" M686,0 L484,0 Q341,245 292,312 L244,308 L244,106 L318,0 L40,0 L114,106 L114,579 L40,685 L293,685 Q580,685 580,508 Q580,451 536,407.5 Q492,364 425,339 L580,98 M244,655 L244,341 Q322,343 377.5,383.5 Q433,424 433,496 Q433,655 244,655"/> 
            <glyph glyph-name="S" unicode="&#x53;" horiz-adv-x="493" d=" M35,268 L47,268 Q73,167 137,98.5 Q201,30 279,30 Q319,30 351,55 Q383,80 383,130 Q383,168 364,197.5 Q345,227 314.5,246 Q284,265 247.5,282 Q211,299 174,317.5 Q137,336 106.5,358.5 Q76,381 57,417 Q38,453 38,500 Q38,577 94,631 Q150,685 255,685 L398,685 L446,700 L446,484 L434,485 Q410,564 355,608.5 Q300,653 231,653 Q189,653 162.5,629 Q136,605 136,562 Q136,516 173,482 Q210,448 262,424 Q314,400 366.5,374.5 Q419,349 456,306 Q493,263 493,204 Q493,98 423,45 Q353,-8 246,-8 Q127,-8 47,28"/> 
            <glyph glyph-name="T" unicode="&#x54;" horiz-adv-x="622" d=" M19,466 L19,685 L622,685 L622,466 L614,465 L485,650 L385,650 L385,106 L459,0 L181,0 L255,106 L255,649 L155,649 L27,465"/> 
            <glyph glyph-name="U" unicode="&#x55;" horiz-adv-x="746" d=" M655,595 L654,592 L654,277 Q654,212 645,175 Q636,138 613,96 Q585,45 528.5,15 Q472,-15 397,-15 Q113,-15 113,221 L113,580 L40,685 L318,685 L244,579 L244,236 Q244,170 259,127 Q274,84 303.5,64.5 Q333,45 362,39 Q391,33 434,33 Q606,33 606,301 L606,595 L521,685 L746,685"/> 
            <glyph glyph-name="V" unicode="&#x56;" horiz-adv-x="676" d=" M383,138 L552,599 L467,685 L676,685 L606,596 L367,-20 L319,-20 L55,626 L3,685 L276,685 L196,624 L370,185"/> 
            <glyph glyph-name="W" unicode="&#x57;" horiz-adv-x="1004" d=" M731,141 L881,598 L795,685 L1004,685 L936,599 L722,-12 L661,-12 L516,377 L374,-12 L313,-12 L65,626 L13,685 L286,685 L206,624 L370,185 L380,148 L494,436 L422,628 L372,685 L645,685 L564,624 L719,185"/> 
            <glyph glyph-name="X" unicode="&#x58;" horiz-adv-x="722" d=" M471,99 L327,294 L183,94 L263,0 L4,0 L109,104 L292,341 L117,579 L14,685 L330,685 L250,588 L384,413 L508,584 L435,685 L695,685 L577,582 L418,371 L615,106 L722,0 L382,0"/> 
            <glyph glyph-name="Y" unicode="&#x59;" horiz-adv-x="679" d=" M409,106 L483,0 L205,0 L279,106 L279,281 L101,579 L10,685 L331,685 L246,579 L245,579 L363,390 L379,357 L510,581 L425,685 L679,685 L576,591 L409,318"/> 
            <glyph glyph-name="Z" unicode="&#x5A;" horiz-adv-x="623" d=" M623,216 L612,-1 L37,-1 L30,11 L448,638 L210,638 L78,465 L74,465 L80,694 L186,684 L615,684 L622,670 L198,44 L481,44 L619,216"/> 
            <glyph glyph-name="[" unicode="&#x5B;" horiz-adv-x="196" d=" M5,711 L196,711 L196,655 L73,655 L73,-104 L196,-104 L196,-160 L5,-160"/> 
            <glyph glyph-name="\" unicode="&#x5C;" horiz-adv-x="417" d=" M105,695 L417,0 L340,0 L28,695"/> 
            <glyph glyph-name="]" unicode="&#x5D;" horiz-adv-x="199" d=" M8,-104 L131,-104 L131,655 L8,655 L8,711 L199,711 L199,-160 L8,-160"/> 
            <glyph glyph-name="^" unicode="&#x5E;" horiz-adv-x="461" d=" M273,694 L461,282 L389,282 L203,536 L77,282 L5,282 L193,694 L192,695 L274,695"/> 
            <glyph glyph-name="_" unicode="&#x5F;" horiz-adv-x="556" d=" M556,-60 L0,-60 L0,0 L556,0"/> 
            <glyph glyph-name="`" unicode="&#x60;" horiz-adv-x="164" d=" M164,552 L149,552 L20,681 L146,681"/> 
            <glyph glyph-name="a" unicode="&#x61;" horiz-adv-x="514" d=" M319,0 L319,84 Q222,-10 145,-10 Q90,-10 57.5,18.5 Q25,47 25,105 Q25,142 45,172 Q65,202 109,228.5 Q153,255 198.5,274.5 Q244,294 319,320 Q319,350 318,366.5 Q317,383 313,404 Q309,425 300,435.5 Q291,446 275,454 Q259,462 235,462 Q180,462 140,429 Q100,396 56,330 L49,330 L49,490 L461,490 L439,404 L439,65 L440,65 L514,0 M319,111 L319,292 Q263,269 228,249 Q193,229 178.5,208.5 Q164,188 160.5,174 Q157,160 157,138 Q157,104 178,86.5 Q199,69 232,69 Q279,69 319,111"/> 
            <glyph glyph-name="b" unicode="&#x62;" horiz-adv-x="561" d=" M208,710 L208,425 Q272,500 361,500 Q454,500 507.5,430.5 Q561,361 561,265 Q561,220 546.5,174.5 Q532,129 503,86.5 Q474,44 421.5,17.5 Q369,-9 301,-9 Q242,-9 160,14 L88,-11 L88,576 L20,653 M208,398 L208,103 Q268,35 340,35 Q400,35 421.5,73 Q443,111 443,174 Q443,290 401.5,358 Q360,426 291,426 Q252,426 208,398"/> 
            <glyph glyph-name="c" unicode="&#x63;" horiz-adv-x="438" d=" M414,330 L407,330 Q378,390 341,422.5 Q304,455 250,455 Q196,455 170.5,414.5 Q145,374 145,316 Q145,207 186.5,157 Q228,107 294,107 Q341,107 378.5,136.5 Q416,166 427,197 L438,193 Q429,160 412.5,126.5 Q396,93 370.5,60.5 Q345,28 307,8 Q269,-12 225,-12 Q132,-12 81,58 Q30,128 30,225 Q30,272 45,317 Q60,362 90,401.5 Q120,441 173,465.5 Q226,490 294,490 L414,490"/> 
            <glyph glyph-name="d" unicode="&#x64;" horiz-adv-x="577" d=" M383,-9 L383,89 Q326,-10 230,-10 Q137,-10 86,59 Q35,128 35,225 Q35,293 62,351.5 Q89,410 150.5,450 Q212,490 299,490 L383,490 L383,576 L315,653 L503,710 L503,70 L577,0 M383,125 L383,394 Q326,455 260,455 Q201,455 177.5,414 Q154,373 154,316 Q154,205 196.5,152.5 Q239,100 308,100 Q351,100 383,125"/> 
            <glyph glyph-name="e" unicode="&#x65;" horiz-adv-x="462" d=" M461,283 L461,282 L140,282 Q148,190 191.5,144.5 Q235,99 298,99 Q348,99 389,121 Q430,143 441,175 L456,169 Q425,90 368.5,38 Q312,-14 230,-14 Q136,-14 80.5,56.5 Q25,127 25,223 Q25,330 89.5,415 Q154,500 268,500 Q357,500 408.5,443 Q460,386 461,285 L462,283 M332,312 L332,321 Q332,396 307,433 Q282,470 245,470 Q193,470 165.5,421.5 Q138,373 138,319 L138,312"/> 
            <glyph glyph-name="f" unicode="&#x66;" horiz-adv-x="427" d=" M427,694 L427,544 L420,544 Q399,575 383,595.5 Q367,616 334.5,638 Q302,660 268,660 Q191,660 191,579 Q191,537 209,490 L401,490 L379,436 L209,436 L209,85 L300,-1 L15,-1 L89,85 L89,427 L19,489 L24,487 L19,490 L90,490 Q100,573 154,633.5 Q208,694 307,694"/> 
            <glyph glyph-name="g" unicode="&#x67;" horiz-adv-x="473" d=" M447,589 L451,588 Q445,510 414,446 Q449,405 449,349 Q449,276 390,216 Q331,156 223,156 Q192,156 163,164 Q126,130 126,119 Q126,77 181,71 L450,71 Q473,33 473,-11 Q473,-103 405.5,-167.5 Q338,-232 220,-232 Q121,-232 70.5,-202.5 Q20,-173 20,-119 Q20,-64 105,-28 Q81,-18 63,4.5 Q45,27 45,53 Q45,81 62,106 Q79,131 95,143 Q111,155 138,172 Q93,191 69,229 Q45,267 45,313 Q45,386 103,444 Q161,502 269,502 Q295,502 320,497 M226,473 Q173,473 173,374 Q173,294 198,239 Q223,184 265,184 Q320,184 320,289 Q320,368 294,420.5 Q268,473 226,473 M384,-42 L129,-42 Q96,-68 96,-110 Q96,-209 234,-209 Q312,-209 355,-174.5 Q398,-140 398,-99 Q398,-60 384,-42"/> 
            <glyph glyph-name="h" unicode="&#x68;" horiz-adv-x="604" d=" M214,710 L214,411 Q243,456 287.5,480 Q332,504 379,504 Q453,504 491,460.5 Q529,417 529,344 L529,86 L530,86 L604,0 L336,0 L409,85 L409,310 Q409,375 392,405.5 Q375,436 321,436 Q258,436 214,377 L214,86 L288,0 L20,0 L94,86 L94,566 L26,643"/> 
            <glyph glyph-name="i" unicode="&#x69;" horiz-adv-x="293" d=" M70,639 L156,731 L241,639 L156,546 M31,433 L219,500 L219,86 L293,0 L25,0 L99,86 L99,356"/> 
            <glyph glyph-name="j" unicode="&#x6A;" horiz-adv-x="230" d=" M59,639 L145,731 L230,639 L145,546 M208,500 L208,73 L209,73 L209,-65 Q209,-99 185.5,-129 Q162,-159 123.5,-188 Q85,-217 78,-225 L71,-222 Q78,-211 82,-192.5 Q86,-174 87,-160 L88,-147 L88,356 L20,433"/> 
            <glyph glyph-name="k" unicode="&#x6B;" horiz-adv-x="579" d=" M214,710 L214,242 L380,411 L337,490 L552,490 L552,483 L448,422 L304,292 L498,72 L579,9 L579,0 L402,0 L374,44 L214,233 L214,86 L288,0 L20,0 L94,86 L94,576 L26,653"/> 
            <glyph glyph-name="l" unicode="&#x6C;" horiz-adv-x="288" d=" M94,86 L94,440 L26,517 L94,538 L94,576 L26,653 L214,710 L214,86 L288,0 L20,0"/> 
            <glyph glyph-name="m" unicode="&#x6D;" horiz-adv-x="894" d=" M214,500 L214,427 Q279,502 366,502 Q473,502 504,414 Q532,452 576.5,477 Q621,502 669,502 Q743,502 781,458.5 Q819,415 819,342 L819,86 L820,86 L894,0 L626,0 L699,85 L699,308 Q699,373 682,403.5 Q665,434 611,434 Q558,434 513,383 Q516,363 516,342 L516,86 L517,86 L591,0 L323,0 L396,85 L396,308 Q396,373 379,403.5 Q362,434 308,434 Q257,434 214,388 L214,86 L288,0 L20,0 L94,86 L94,356 L26,433"/> 
            <glyph glyph-name="n" unicode="&#x6E;" horiz-adv-x="607" d=" M607,0 L339,0 L411,86 L411,308 Q411,373 394,403.5 Q377,434 323,434 Q260,434 216,375 L216,86 L288,0 L20,0 L96,86 L96,356 L28,433 L216,500 L216,409 Q245,454 289.5,478 Q334,502 381,502 Q455,502 493,458.5 Q531,415 531,342 L531,86"/> 
            <glyph glyph-name="o" unicode="&#x6F;" horiz-adv-x="520" d=" M520,267 Q520,217 503,168.5 Q486,120 453.5,79 Q421,38 367.5,13 Q314,-12 247,-12 Q146,-12 88,57.5 Q30,127 30,223 Q30,273 47,321.5 Q64,370 96.5,411 Q129,452 182.5,477 Q236,502 303,502 Q404,502 462,432.5 Q520,363 520,267 M249,464 Q157,464 157,314 Q157,194 197.5,110 Q238,26 302,26 Q336,26 358.5,54 Q381,82 388,113.5 Q395,145 395,176 Q395,296 354,380 Q313,464 249,464"/> 
            <glyph glyph-name="p" unicode="&#x70;" horiz-adv-x="567" d=" M214,511 L214,425 Q278,500 367,500 Q460,500 513.5,430.5 Q567,361 567,265 Q567,220 552.5,174.5 Q538,129 509,86.5 Q480,44 427.5,17.5 Q375,-9 307,-9 Q270,-9 214,3 L214,-129 L307,-215 L20,-215 L94,-129 L94,377 L26,454 M214,398 L214,103 Q274,35 346,35 Q406,35 427.5,73 Q449,111 449,174 Q449,289 406,357.5 Q363,426 297,426 Q258,426 214,398"/> 
            <glyph glyph-name="q" unicode="&#x71;" horiz-adv-x="572" d=" M285,-215 L378,-129 L378,91 Q313,-10 225,-10 Q132,-10 81,59 Q30,128 30,225 Q30,293 57,351.5 Q84,410 145.5,450 Q207,490 294,490 Q353,490 407,478 L498,500 L498,-129 L572,-215 M378,124 L378,394 Q321,455 255,455 Q196,455 172.5,414 Q149,373 149,316 Q149,205 191.5,152.5 Q234,100 303,100 Q346,100 378,124"/> 
            <glyph glyph-name="r" unicode="&#x72;" horiz-adv-x="445" d=" M445,313 L437,313 Q406,386 366.5,419.5 Q327,453 288,453 Q268,453 254.5,446 Q241,439 234,430 Q227,421 223.5,397.5 Q220,374 219.5,357 Q219,340 219,301 L219,86 L312,0 L25,0 L99,86 L99,413 L31,490 L445,490"/> 
            <glyph glyph-name="s" unicode="&#x73;" horiz-adv-x="386" d=" M25,189 L33,189 Q53,123 106.5,75.5 Q160,28 220,28 Q253,28 274,44.5 Q295,61 295,93 Q295,120 275.5,139.5 Q256,159 226.5,168.5 Q197,178 162.5,192 Q128,206 98.5,222 Q69,238 49.5,271.5 Q30,305 30,351 Q30,408 76.5,449 Q123,490 197,490 L307,490 L344,511 L344,345 L338,346 Q310,397 267.5,428 Q225,459 178,458 Q147,457 129.5,439.5 Q112,422 112,392 Q112,368 132.5,351 Q153,334 183,324.5 Q213,315 249,301.5 Q285,288 315,272 Q345,256 365.5,225 Q386,194 386,151 Q386,97 352.5,58.5 Q319,20 276.5,5 Q234,-10 190,-10 Q89,-10 34,13"/> 
            <glyph glyph-name="t" unicode="&#x74;" horiz-adv-x="388" d=" M196,632 L196,490 L388,490 L366,436 L196,436 L196,190 Q196,119 214,93.5 Q232,68 277,68 Q304,68 332,82.5 Q360,97 375,126 L387,110 Q350,48 306.5,18 Q263,-12 204,-12 Q147,-12 111.5,25 Q76,62 76,142 L76,427 L10,490"/> 
            <glyph glyph-name="u" unicode="&#x75;" horiz-adv-x="571" d=" M200,491 L200,184 Q200,119 217,88.5 Q234,58 288,58 Q342,58 383,105 L383,404 L309,491 L503,491 L503,82 L571,0 L383,-6 L383,74 Q323,-10 230,-10 Q156,-10 118,33.5 Q80,77 80,150 L80,404 L5,491"/> 
            <glyph glyph-name="v" unicode="&#x76;" horiz-adv-x="538" d=" M361,490 L538,490 L482,427 L285,-14 L281,-22 L261,-22 L61,427 L5,490 L269,490 L196,426 L301,168 L313,134 L434,426"/> 
            <glyph glyph-name="w" unicode="&#x77;" horiz-adv-x="828" d=" M66,409 L0,490 L265,490 L192,426 L297,168 L309,134 L398,349 L372,409 L306,490 L570,490 L498,426 L602,168 L614,146 L722,426 L650,490 L828,490 L769,428 L584,-22 L562,-22 L420,300 L278,-22 L256,-22"/> 
            <glyph glyph-name="x" unicode="&#x78;" horiz-adv-x="584" d=" M584,0 L299,0 L363,66 L265,195 L159,64 L214,0 L5,0 L94,63 L235,235 L89,427 L16,490 L289,490 L225,426 L312,312 L401,426 L346,490 L556,490 L467,427 L340,275 L500,65"/> 
            <glyph glyph-name="y" unicode="&#x79;" horiz-adv-x="535" d=" M0,490 L265,490 L192,426 L297,168 L309,134 L430,426 L357,490 L535,490 L476,428 L243,-129 L315,-215 L100,-215 L188,-125 L247,10 L66,409"/> 
            <glyph glyph-name="z" unicode="&#x7A;" horiz-adv-x="486" d=" M469,15 L469,0 L20,0 L321,454 L166,454 L67,304 L61,304 L61,508 L147,490 L483,490 L182,36 L363,36 L480,209 L486,207"/> 
            <glyph glyph-name="{" unicode="&#x7B;" horiz-adv-x="245" d=" M51,284 L51,280 Q53,279 71,270 Q89,261 105,250 Q121,239 139.5,221.5 Q158,204 169,176.5 Q180,149 180,115 Q180,92 175.5,56 Q171,20 171,-16 Q171,-77 187.5,-104 Q204,-131 245,-131 L243,-162 Q164,-162 123.5,-125 Q83,-88 83,-4 Q83,16 89,65.5 Q95,115 95,140 Q95,215 53,248 Q39,259 11,267 L11,297 Q39,305 53,316 Q95,349 95,424 Q95,449 89,498.5 Q83,548 83,568 Q83,652 123.5,689 Q164,726 243,726 L245,695 Q204,695 187.5,668 Q171,641 171,580 Q171,544 175.5,508 Q180,472 180,449 Q180,415 169,387.5 Q158,360 139.5,342.5 Q121,325 105,314 Q89,303 71,294 Q53,285 51,284"/> 
            <glyph glyph-name="|" unicode="&#x7C;" horiz-adv-x="188" d=" M188,-150 L99,-150 L99,700 L188,700"/> 
            <glyph glyph-name="}" unicode="&#x7D;" horiz-adv-x="253" d=" M213,280 L213,284 Q211,285 193,294 Q175,303 159,314 Q143,325 124.5,342.5 Q106,360 95,387.5 Q84,415 84,449 Q84,472 88.5,508 Q93,544 93,580 Q93,641 76.5,668 Q60,695 19,695 L21,726 Q100,726 140.5,689 Q181,652 181,568 Q181,548 175,498.5 Q169,449 169,424 Q169,349 211,316 Q225,305 253,297 L253,267 Q225,259 211,248 Q169,215 169,140 Q169,115 175,65.5 Q181,16 181,-4 Q181,-88 140.5,-125 Q100,-162 21,-162 L19,-131 Q60,-131 76.5,-104 Q93,-77 93,-16 Q93,20 88.5,56 Q84,92 84,115 Q84,149 95,176.5 Q106,204 124.5,221.5 Q143,239 159,250 Q175,261 193,270 Q211,279 213,280"/> 
            <glyph glyph-name="~" unicode="&#x7E;" horiz-adv-x="379" d=" M320,552 L364,586 L379,580 L320,477 L101,490 L61,447 L47,456 L110,565"/> 
            <glyph glyph-name="¡" unicode="&#xA1;" horiz-adv-x="194" d=" M194,411 L108,318 L23,411 L108,503 M47,-180 L95,257 L131,257 L180,-180 L113,-226"/> 
            <glyph glyph-name="¢" unicode="&#xA2;" horiz-adv-x="433" d=" M409,414 L404,414 Q358,485 298,506 L255,171 Q270,167 289,167 Q336,167 373.5,196.5 Q411,226 422,257 L433,253 Q425,221 409.5,189.5 Q394,158 371,127 Q348,96 313.5,74.5 Q279,53 239,49 L225,-58 L189,-58 L199,49 Q116,58 70.5,126 Q25,194 25,285 Q25,325 37.5,366.5 Q50,408 75,446 Q100,484 144.5,511.5 Q189,539 245,547 L255,649 L317,649 L304,550 L409,550 M212,189 L242,515 Q188,512 164,473 Q140,434 140,376 Q140,237 212,189"/> 
            <glyph glyph-name="£" unicode="&#xA3;" horiz-adv-x="510" d=" M494,0 L8,0 L49,44 L52,44 Q133,50 133,280 L133,310 L50,308 L50,356 L133,356 Q135,391 148.5,430 Q162,469 186.5,507.5 Q211,546 254,570.5 Q297,595 351,595 L471,595 L471,459 L467,459 Q400,560 312,560 Q235,560 235,479 Q235,466 237,452 Q239,438 241,428.5 Q243,419 248,406 Q253,393 255,388 Q257,383 263,371 Q269,359 269,358 L419,358 L419,315 L277,312 Q276,255 266,214 Q256,173 232.5,142.5 Q209,112 189,94.5 Q169,77 131,50 L131,48 L419,63 L504,148 L510,148"/> 
            <glyph glyph-name="¤" unicode="&#xA4;" horiz-adv-x="413" d=" M80,490 L145,428 Q185,457 233,457 Q279,457 319,429 L383,490 L413,458 L351,399 Q381,360 381,309 Q381,258 350,217 L413,157 L383,125 L318,187 Q281,161 233,161 Q186,161 146,188 L80,125 L50,157 L115,219 Q85,258 85,309 Q85,358 114,397 L50,458 M127,353 Q127,265 158,234 Q189,203 233,203 Q277,203 308.5,234 Q340,265 340,309 Q340,353 308.5,384 Q277,415 233,415 Q189,415 127,353"/> 
            <glyph glyph-name="¥" unicode="&#xA5;" horiz-adv-x="699" d=" M438,283 L555,283 L555,233 L429,233 L429,183 L555,183 L555,133 L429,133 L429,101 L513,0 L215,0 L299,101 L299,133 L168,133 L168,182 L299,182 L299,233 L168,233 L168,282 L268,282 L121,489 L30,595 L351,595 L266,489 L265,489 L383,336 L399,313 L530,491 L445,595 L699,595 L596,501"/> 
            <glyph glyph-name="¦" unicode="&#xA6;" horiz-adv-x="188" d=" M99,700 L188,700 L188,370 L99,370 M188,-150 L99,-150 L99,180 L188,180"/> 
            <glyph glyph-name="§" unicode="&#xA7;" horiz-adv-x="529" d=" M264,271 L268,314 Q243,303 213,303 Q135,303 78.5,355.5 Q22,408 22,490 Q22,685 264,685 L265,684 L304,684 L304,685 L442,685 L442,683 L529,683 L461,606 L460,606 L460,0 L394,0 L394,641 L330,641 L330,0 L264,0"/> 
            <glyph glyph-name="¨" unicode="&#xA8;" horiz-adv-x="375" d=" M35,625 L103,701 L170,625 L103,548 M240,625 L308,701 L375,625 L308,548"/> 
            <glyph glyph-name="©" unicode="&#xA9;" horiz-adv-x="684" d=" M497,23 Q233,23 139.5,116.5 Q46,210 46,342 Q46,474 139.5,567.5 Q233,661 365,661 Q497,661 590.5,567.5 Q684,474 684,342 Q684,210 497,23 M251,66 Q479,66 560,147 Q641,228 641,342 Q641,456 560,537 Q479,618 365,618 Q251,618 170,537 Q89,456 89,342 Q89,228 251,66 M498,422 L490,422 Q473,465 437.5,492 Q402,519 354,519 Q308,519 284.5,482 Q261,445 261,390 Q261,312 296,260 Q331,208 395,208 Q447,208 479,228 Q511,248 522,269 L532,263 Q514,213 468.5,172.5 Q423,132 356,132 Q271,132 219.5,189 Q168,246 168,334 Q168,423 229,488 Q290,553 398,553 L498,553"/> 
            <glyph glyph-name="«" unicode="&#xAB;" horiz-adv-x="511" d=" M68,246 L178,246 L290,28 L280,18 L12,246 L280,474 L290,457 M289,246 L399,246 L511,28 L501,18 L233,246 L501,474 L511,457"/> 
            <glyph glyph-name="¬" unicode="&#xAC;" horiz-adv-x="525" d=" M525,267 L525,55 L460,55 L460,241 L33,241 L33,311 L524,311 L524,267"/> 
            <glyph glyph-name="­" unicode="&#xAD;" horiz-adv-x="440" d=" M440,241 L6,241 L6,311 L440,311"/> 
            <glyph glyph-name="®" unicode="&#xAE;" horiz-adv-x="425" d=" M222,414 Q139,414 79.5,473 Q20,532 20,616 Q20,700 79.5,759 Q139,818 222,818 Q307,818 366,759 Q425,700 425,616 Q425,532 366,473 Q307,414 222,414 M222,441 Q295,441 346,492.5 Q397,544 397,616 Q397,689 346,740 Q295,791 222,791 Q150,791 98.5,740 Q47,689 47,616 Q47,544 98.5,492.5 Q150,441 222,441 M265,502 L208,608 L192,606 L192,538 L218,502 L122,502 L147,538 L147,699 L122,736 L204,736 Q217,736 231,734 Q245,732 264,726.5 Q283,721 295,708 Q307,695 307,675 Q307,636 253,617 L298,535 L334,502 M192,725 L192,618 Q218,619 237,632.5 Q256,646 256,670 Q256,725 192,725"/> 
            <glyph glyph-name="¯" unicode="&#xAF;" horiz-adv-x="280" d=" M280,534 L48,534 L48,595 L280,595"/> 
            <glyph glyph-name="°" unicode="&#xB0;" horiz-adv-x="231" d=" M25,660 Q25,746 55,776 Q85,806 128,806 Q171,806 201,776 Q231,746 231,703 Q231,660 201,630 Q171,600 128,600 Q85,600 25,660 M70,726 Q70,680 87.5,662.5 Q105,645 128,645 Q151,645 168.5,662.5 Q186,680 186,703 Q186,726 168.5,743.5 Q151,761 128,761 Q105,761 70,726"/> 
            <glyph glyph-name="±" unicode="&#xB1;" horiz-adv-x="478" d=" M478,95 L478,25 L40,25 L40,95 L215,95 L215,238 L45,238 L45,310 L215,310 L215,483 L294,513 L294,310 L473,310 L473,238 L294,238 L294,95"/> 
            <glyph glyph-name="²" unicode="&#xB2;" horiz-adv-x="344" d=" M31,432 L25,453 Q53,473 81,498 Q109,523 142.5,559.5 Q176,596 197,639.5 Q218,683 218,724 Q218,754 197.5,772 Q177,790 141,790 Q105,790 81,768 Q57,746 38,700 L35,700 L35,810 L130,810 Q207,810 260.5,784.5 Q314,759 314,712 Q314,672 281,636.5 Q248,601 194.5,564 Q141,527 121,506 L123,503 L157,506 L300,508 L341,585 L344,585 L329,432"/> 
            <glyph glyph-name="³" unicode="&#xB3;" horiz-adv-x="340" d=" M48,416 L43,435 Q72,435 102,439.5 Q132,444 161.5,453.5 Q191,463 209.5,481 Q228,499 228,523 Q228,562 197,582 Q166,602 110,611 Q107,611 99.5,609.5 Q92,608 88,607 L86,618 L110,625 Q112,626 116,627 Q150,638 170.5,646.5 Q191,655 214.5,675 Q238,695 238,719 Q238,750 214.5,767.5 Q191,785 152,785 Q117,785 96.5,762.5 Q76,740 56,697 L52,697 L52,805 L162,805 Q334,805 334,728 Q334,697 295.5,674 Q257,651 176,629 Q340,617 340,545 Q340,513 305.5,486.5 Q271,460 221.5,445.5 Q172,431 126,423.5 Q80,416 48,416"/> 
            <glyph glyph-name="´" unicode="&#xB4;" horiz-adv-x="183" d=" M54,552 L39,552 L57,681 L183,681"/> 
            <glyph glyph-name="¶" unicode="&#xB6;" horiz-adv-x="529" d=" M264,273 L268,316 Q243,305 213,305 Q135,305 78.5,357.5 Q22,410 22,492 Q22,687 264,685 L529,685 L461,608 L460,608 L460,0 L394,0 L394,643 L330,643 L330,26 Q330,-23 302,-59 Q274,-95 250,-100 L247,-98 Q264,-63 264,-7"/> 
            <glyph glyph-name="·" unicode="&#xB7;" horiz-adv-x="176" d=" M5,263 L91,356 L176,263 L91,171"/> 
            <glyph glyph-name="¸" unicode="&#xB8;" horiz-adv-x="174" d=" M106,18 L88,-16 Q90,-17 98.5,-20 Q107,-23 111,-24.5 Q115,-26 123,-29.5 Q131,-33 136,-35.5 Q141,-38 147.5,-42 Q154,-46 158,-50 Q162,-54 166,-58.5 Q170,-63 172,-68 Q174,-73 174,-78 Q174,-113 147,-133 Q120,-153 80,-153 Q35,-153 -2,-122 L9,-101 Q42,-129 82,-129 Q129,-129 129,-106 Q129,-76 27,-54 L77,18"/> 
            <glyph glyph-name="¹" unicode="&#xB9;" horiz-adv-x="282" d=" M63,673 L62,674 L215,816 L215,468 L282,426 L69,426 L131,468 L131,696"/> 
            <glyph glyph-name="»" unicode="&#xBB;" horiz-adv-x="506" d=" M229,246 L119,246 L7,464 L17,474 L285,246 L17,18 L7,35 M450,246 L340,246 L228,464 L238,474 L506,246 L238,18 L228,35"/> 
            <glyph glyph-name="¼" unicode="&#xBC;" horiz-adv-x="732" d=" M652,719 L200,-33 L153,-33 L604,719 M63,544 L62,545 L215,687 L215,339 L282,297 L69,297 L131,339 L131,567 M641,123 L732,123 L732,94 L641,94 L641,42 L708,0 L495,0 L557,42 L557,95 L385,95 L555,379 L657,379 L457,124 L556,124 L556,175 L641,288"/> 
            <glyph glyph-name="½" unicode="&#xBD;" horiz-adv-x="782" d=" M611,719 L159,-33 L112,-33 L563,719 M63,544 L62,545 L215,687 L215,339 L282,297 L69,297 L131,339 L131,567 M469,0 L463,21 Q491,41 519,66 Q547,91 580.5,127.5 Q614,164 635,207.5 Q656,251 656,292 Q656,322 635.5,340 Q615,358 579,358 Q543,358 519,336 Q495,314 476,268 L473,268 L473,378 L568,378 Q645,378 698.5,352.5 Q752,327 752,280 Q752,240 719,204.5 Q686,169 632.5,132 Q579,95 559,74 L561,71 L595,74 L738,76 L779,153 L782,153 L767,0"/> 
            <glyph glyph-name="¾" unicode="&#xBE;" horiz-adv-x="767" d=" M687,719 L235,-33 L188,-33 L639,719 M48,296 L43,315 Q72,315 102,319.5 Q132,324 161.5,333.5 Q191,343 209.5,361 Q228,379 228,403 Q228,442 197,462 Q166,482 110,491 Q107,491 99.5,489.5 Q92,488 88,487 L86,498 L110,505 Q112,506 116,507 Q150,518 170.5,526.5 Q191,535 214.5,555 Q238,575 238,599 Q238,630 214.5,647.5 Q191,665 152,665 Q117,665 96.5,642.5 Q76,620 56,577 L52,577 L52,685 L162,685 Q334,685 334,608 Q334,577 295.5,554 Q257,531 176,509 Q340,497 340,425 Q340,393 305.5,366.5 Q271,340 221.5,325.5 Q172,311 126,303.5 Q80,296 48,296 M676,123 L767,123 L767,94 L676,94 L676,42 L743,0 L530,0 L592,42 L592,95 L420,95 L590,379 L692,379 L492,124 L591,124 L591,175 L676,288"/> 
            <glyph glyph-name="¿" unicode="&#xBF;" horiz-adv-x="460" d=" M336,501 L422,409 L336,316 L251,409 M460,-220 L374,-220 Q311,-220 263.5,-214.5 Q216,-209 167.5,-194 Q119,-179 92.5,-146.5 Q66,-114 66,-65 Q66,-28 84.5,3 Q103,34 135.5,56.5 Q168,79 197,94 Q226,109 264,125 Q302,141 314,147 L326,255 L350,255 L368,133 Q300,110 259,60 Q218,10 218,-43 Q218,-183 296,-183 Q349,-183 379,-148 Q409,-113 428,-50 L436,-49"/> 
            <glyph glyph-name="À" unicode="&#xC0;" horiz-adv-x="729" d=" M353,740 L224,869 L355,869 L368,740 M192,214 L138,78 L233,0 L12,0 L83,79 L337,695 L384,695 L654,67 L729,0 L421,0 L513,69 L452,214 M436,254 L320,533 L208,254"/> 
            <glyph glyph-name="Á" unicode="&#xC1;" horiz-adv-x="729" d=" M361,740 L346,740 L359,869 L490,869 M192,214 L138,78 L233,0 L12,0 L83,79 L337,695 L384,695 L654,67 L729,0 L421,0 L513,69 L452,214 M436,254 L320,533 L208,254"/> 
            <glyph glyph-name="Â" unicode="&#xC2;" horiz-adv-x="729" d=" M258,740 L320,869 L403,869 L466,740 L451,740 L362,810 L273,740 M192,214 L138,78 L233,0 L12,0 L83,79 L337,695 L384,695 L654,67 L729,0 L421,0 L513,69 L452,214 M436,254 L320,533 L208,254"/> 
            <glyph glyph-name="Ã" unicode="&#xC3;" horiz-adv-x="722" d=" M490,868 L431,767 Q296,778 277,778 Q262,778 237,735 L223,744 L286,851 Q412,840 431,840 Q448,840 475,874 M414,0 L506,69 L445,214 L185,214 L131,78 L226,0 L5,0 L76,79 L330,695 L377,695 L647,67 L722,0 M313,533 L203,259 L427,259"/> 
            <glyph glyph-name="Ä" unicode="&#xC4;" horiz-adv-x="729" d=" M159,830 L236,917 L313,830 L236,742 M392,830 L470,917 L546,830 L470,742 M192,214 L138,78 L233,0 L12,0 L83,79 L337,695 L384,695 L654,67 L729,0 L421,0 L513,69 L452,214 M436,254 L320,533 L208,254"/> 
            <glyph glyph-name="Å" unicode="&#xC5;" horiz-adv-x="729" d=" M262,788 Q262,870 291,898.5 Q320,927 360,927 Q400,927 429,898.5 Q458,870 458,829 Q458,788 429,759.5 Q400,731 360,731 Q320,731 262,788 M296,855 Q296,803 315,784 Q334,765 360,765 Q386,765 405,784 Q424,803 424,829 Q424,855 405,874 Q386,893 360,893 Q334,893 296,855 M192,214 L138,78 L233,0 L12,0 L83,79 L337,695 L384,695 L654,67 L729,0 L421,0 L513,69 L452,214 M436,254 L320,533 L208,254"/> 
            <glyph glyph-name="Æ" unicode="&#xC6;" horiz-adv-x="885" d=" M874,0 L373,0 L433,106 L433,214 L207,214 L126,76 L209,0 L0,0 L75,85 L397,625 L320,686 L518,686 L517,685 L855,685 L855,475 L849,475 L727,649 L563,649 L563,372 L836,372 L836,332 L563,332 L563,36 L736,36 L880,219 L885,217 M433,598 L429,601 L416,575 L230,254 L433,254"/> 
            <glyph glyph-name="Ç" unicode="&#xC7;" horiz-adv-x="616" d=" M565,482 L552,482 Q525,552 472.5,598 Q420,644 347,644 Q263,644 221.5,578 Q180,512 180,406 Q180,273 233.5,189 Q287,105 388,105 Q528,105 601,221 L616,211 Q598,169 573,132 Q548,95 513,61 Q478,27 430,7.5 Q382,-12 327,-12 Q193,-12 114,79.5 Q35,171 35,319 Q35,387 60,451.5 Q85,516 131,568.5 Q177,621 249.5,653 Q322,685 409,685 L565,685 M341,-12 L329,-34 Q331,-35 342.5,-39 Q354,-43 360,-45.5 Q366,-48 376.5,-52.5 Q387,-57 393,-61.5 Q399,-66 406,-71.5 Q413,-77 416,-83 Q419,-89 419,-96 Q419,-131 390,-151 Q361,-171 321,-171 Q277,-171 239,-137 L250,-119 Q279,-147 323,-147 Q344,-147 359,-140.5 Q374,-134 374,-124 Q374,-115 367,-108 Q360,-101 347,-97 Q334,-93 321.5,-90 Q309,-87 291.5,-84 Q274,-81 265,-79 L265,-76 L310,-12"/> 
            <glyph glyph-name="È" unicode="&#xC8;" horiz-adv-x="552" d=" M327,740 L198,869 L329,869 L342,740 M541,0 L40,0 L100,106 L100,581 L40,685 L522,685 L522,475 L510,475 L400,649 L230,649 L230,372 L503,372 L503,327 L230,327 L230,36 L409,36 L541,219 L552,217"/> 
            <glyph glyph-name="É" unicode="&#xC9;" horiz-adv-x="552" d=" M258,740 L271,869 L402,869 L273,740 M541,0 L40,0 L100,106 L100,581 L40,685 L522,685 L522,475 L510,475 L400,649 L230,649 L230,372 L503,372 L503,327 L230,327 L230,36 L409,36 L541,219 L552,217"/> 
            <glyph glyph-name="Ê" unicode="&#xCA;" horiz-adv-x="552" d=" M199,740 L261,869 L344,869 L407,740 L392,740 L303,810 L214,740 M541,0 L40,0 L100,106 L100,581 L40,685 L522,685 L522,475 L510,475 L400,649 L230,649 L230,372 L503,372 L503,327 L230,327 L230,36 L409,36 L541,219 L552,217"/> 
            <glyph glyph-name="Ë" unicode="&#xCB;" horiz-adv-x="552" d=" M110,829 L188,916 L264,829 L188,741 M344,829 L422,916 L498,829 L422,741 M541,0 L40,0 L100,106 L100,581 L40,685 L522,685 L522,475 L510,475 L400,649 L230,649 L230,372 L503,372 L503,327 L230,327 L230,36 L409,36 L541,219 L552,217"/> 
            <glyph glyph-name="Ì" unicode="&#xCC;" horiz-adv-x="318" d=" M203,740 L74,869 L205,869 L218,740 M318,0 L40,0 L114,106 L114,579 L40,685 L318,685 L244,579 L244,106"/> 
            <glyph glyph-name="Í" unicode="&#xCD;" horiz-adv-x="318" d=" M156,740 L141,740 L154,869 L285,869 M318,0 L40,0 L114,106 L114,579 L40,685 L318,685 L244,579 L244,106"/> 
            <glyph glyph-name="Î" unicode="&#xCE;" horiz-adv-x="318" d=" M78,740 L140,869 L223,869 L286,740 L271,740 L182,810 L93,740 M318,0 L40,0 L114,106 L114,579 L40,685 L318,685 L244,579 L244,106"/> 
            <glyph glyph-name="Ï" unicode="&#xCF;" horiz-adv-x="416" d=" M30,830 L106,917 L184,830 L106,742 M262,830 L340,917 L416,830 L340,742 M362,0 L84,0 L158,106 L158,579 L84,685 L362,685 L288,579 L288,106"/> 
            <glyph glyph-name="Ð" unicode="&#xD0;" horiz-adv-x="673" d=" M25,685 L291,685 Q399,685 477,658.5 Q555,632 596,586 Q637,540 655,490 Q673,440 673,382 Q673,202 566.5,101 Q460,0 274,0 L25,0 L99,106 L99,328 L25,328 L25,378 L99,378 L99,579 M229,38 L292,38 Q533,38 533,344 Q533,653 299,653 L229,653 L229,378 L375,378 L375,328 L229,328"/> 
            <glyph glyph-name="Ñ" unicode="&#xD1;" horiz-adv-x="721" d=" M511,836 L452,735 Q317,746 298,746 Q283,746 258,703 L244,712 L307,819 Q433,808 452,808 Q469,808 496,842 M647,58 L690,0 L535,0 L168,489 L168,86 L253,0 L47,0 L121,93 L121,558 L24,685 L189,685 L599,114 L599,599 L513,685 L721,685 L647,592"/> 
            <glyph glyph-name="Ò" unicode="&#xD2;" horiz-adv-x="703" d=" M337,740 L208,869 L339,869 L352,740 M703,373 Q703,270 662,184 Q621,98 534.5,43 Q448,-12 331,-12 Q199,-12 117,86 Q35,184 35,313 Q35,416 76,502 Q117,588 203.5,643 Q290,698 407,698 Q539,698 621,600 Q703,502 703,373 M336,655 Q288,655 254.5,632.5 Q221,610 205.5,573 Q190,536 183.5,502.5 Q177,469 177,434 Q177,329 203,238 Q229,147 281.5,88.5 Q334,30 402,30 Q444,30 477,53 Q510,76 528,112 Q546,148 554.5,183.5 Q563,219 563,252 Q563,357 536.5,447.5 Q510,538 457,596.5 Q404,655 336,655"/> 
            <glyph glyph-name="Ó" unicode="&#xD3;" horiz-adv-x="703" d=" M346,740 L331,740 L344,869 L475,869 M703,373 Q703,270 662,184 Q621,98 534.5,43 Q448,-12 331,-12 Q199,-12 117,86 Q35,184 35,313 Q35,416 76,502 Q117,588 203.5,643 Q290,698 407,698 Q539,698 621,600 Q703,502 703,373 M336,655 Q288,655 254.5,632.5 Q221,610 205.5,573 Q190,536 183.5,502.5 Q177,469 177,434 Q177,329 203,238 Q229,147 281.5,88.5 Q334,30 402,30 Q444,30 477,53 Q510,76 528,112 Q546,148 554.5,183.5 Q563,219 563,252 Q563,357 536.5,447.5 Q510,538 457,596.5 Q404,655 336,655"/> 
            <glyph glyph-name="Ô" unicode="&#xD4;" horiz-adv-x="703" d=" M263,740 L325,869 L408,869 L471,740 L456,740 L367,810 L278,740 M703,373 Q703,270 662,184 Q621,98 534.5,43 Q448,-12 331,-12 Q199,-12 117,86 Q35,184 35,313 Q35,416 76,502 Q117,588 203.5,643 Q290,698 407,698 Q539,698 621,600 Q703,502 703,373 M336,655 Q288,655 254.5,632.5 Q221,610 205.5,573 Q190,536 183.5,502.5 Q177,469 177,434 Q177,329 203,238 Q229,147 281.5,88.5 Q334,30 402,30 Q444,30 477,53 Q510,76 528,112 Q546,148 554.5,183.5 Q563,219 563,252 Q563,357 536.5,447.5 Q510,538 457,596.5 Q404,655 336,655"/> 
            <glyph glyph-name="Õ" unicode="&#xD5;" horiz-adv-x="703" d=" M222,739 L285,846 Q411,835 430,835 Q447,835 474,869 L489,863 L430,762 Q295,773 276,773 Q261,773 236,730 M703,373 Q703,270 662,184 Q621,98 534.5,43 Q448,-12 331,-12 Q199,-12 117,86 Q35,184 35,313 Q35,416 76,502 Q117,588 203.5,643 Q290,698 407,698 Q539,698 621,600 Q703,502 703,373 M336,655 Q288,655 254.5,632.5 Q221,610 205.5,573 Q190,536 183.5,502.5 Q177,469 177,434 Q177,329 203,238 Q229,147 281.5,88.5 Q334,30 402,30 Q444,30 477,53 Q510,76 528,112 Q546,148 554.5,183.5 Q563,219 563,252 Q563,357 536.5,447.5 Q510,538 457,596.5 Q404,655 336,655"/> 
            <glyph glyph-name="Ö" unicode="&#xD6;" horiz-adv-x="703" d=" M171,828 L249,915 L325,828 L249,740 M405,828 L483,915 L559,828 L483,740 M703,373 Q703,270 662,184 Q621,98 534.5,43 Q448,-12 331,-12 Q199,-12 117,86 Q35,184 35,313 Q35,416 76,502 Q117,588 203.5,643 Q290,698 407,698 Q539,698 621,600 Q703,502 703,373 M336,655 Q288,655 254.5,632.5 Q221,610 205.5,573 Q190,536 183.5,502.5 Q177,469 177,434 Q177,329 203,238 Q229,147 281.5,88.5 Q334,30 402,30 Q444,30 477,53 Q510,76 528,112 Q546,148 554.5,183.5 Q563,219 563,252 Q563,357 536.5,447.5 Q510,538 457,596.5 Q404,655 336,655"/> 
            <glyph glyph-name="×" unicode="&#xD7;" horiz-adv-x="371" d=" M247,254 L371,124 L320,73 L197,202 L73,72 L22,129 L144,257 L31,376 L82,427 L194,309 L311,432 L362,375"/> 
            <glyph glyph-name="Ø" unicode="&#xD8;" horiz-adv-x="722" d=" M722,690 L636,594 Q713,502 713,373 Q713,270 672,184 Q631,98 544.5,43 Q458,-12 341,-12 Q232,-12 154,58 L97,-5 L30,-5 L120,95 Q45,187 45,313 Q45,416 86,502 Q127,588 213.5,643 Q300,698 417,698 Q523,698 601,630 L655,690 M223,209 L512,531 Q448,655 346,655 Q298,655 264.5,632.5 Q231,610 215.5,573 Q200,536 193.5,502.5 Q187,469 187,434 Q187,310 223,209 M534,481 L244,159 Q308,30 412,30 Q454,30 487,53 Q520,76 538,112 Q556,148 564.5,183.5 Q573,219 573,252 Q573,380 534,481"/> 
            <glyph glyph-name="Ù" unicode="&#xD9;" horiz-adv-x="728" d=" M438,740 L309,869 L440,869 L453,740 M244,579 L244,236 Q244,170 259,127 Q274,84 303.5,64.5 Q333,45 362,39 Q391,33 434,33 Q606,33 606,301 L606,595 L529,685 L728,685 L654,595 L654,277 Q654,212 645,175 Q636,138 613,96 Q585,45 528.5,15 Q472,-15 397,-15 Q113,-15 113,221 L113,580 L40,685 L318,685"/> 
            <glyph glyph-name="Ú" unicode="&#xDA;" horiz-adv-x="728" d=" M398,740 L383,740 L396,869 L527,869 M244,579 L244,236 Q244,170 259,127 Q274,84 303.5,64.5 Q333,45 362,39 Q391,33 434,33 Q606,33 606,301 L606,595 L529,685 L728,685 L654,595 L654,277 Q654,212 645,175 Q636,138 613,96 Q585,45 528.5,15 Q472,-15 397,-15 Q113,-15 113,221 L113,580 L40,685 L318,685"/> 
            <glyph glyph-name="Û" unicode="&#xDB;" horiz-adv-x="728" d=" M309,740 L371,869 L454,869 L517,740 L502,740 L413,810 L324,740 M244,579 L244,236 Q244,170 259,127 Q274,84 303.5,64.5 Q333,45 362,39 Q391,33 434,33 Q606,33 606,301 L606,595 L529,685 L728,685 L654,595 L654,277 Q654,212 645,175 Q636,138 613,96 Q585,45 528.5,15 Q472,-15 397,-15 Q113,-15 113,221 L113,580 L40,685 L318,685"/> 
            <glyph glyph-name="Ü" unicode="&#xDC;" horiz-adv-x="728" d=" M222,828 L303,919 L384,828 L303,736 M467,828 L549,919 L629,828 L549,736 M244,579 L244,236 Q244,170 259,127 Q274,84 303.5,64.5 Q333,45 362,39 Q391,33 434,33 Q606,33 606,301 L606,595 L529,685 L728,685 L654,595 L654,277 Q654,212 645,175 Q636,138 613,96 Q585,45 528.5,15 Q472,-15 397,-15 Q113,-15 113,221 L113,580 L40,685 L318,685"/> 
            <glyph glyph-name="Ý" unicode="&#xDD;" horiz-adv-x="679" d=" M350,740 L363,869 L494,869 L365,740 M493,0 L195,0 L279,101 L279,281 L101,579 L10,685 L331,685 L246,579 L245,579 L363,390 L379,357 L510,581 L425,685 L679,685 L576,591 L409,318 L409,101"/> 
            <glyph glyph-name="Þ" unicode="&#xDE;" horiz-adv-x="558" d=" M244,558 L280,558 Q308,558 337,555 Q366,552 408,541 Q450,530 481.5,511.5 Q513,493 535.5,457.5 Q558,422 558,375 Q558,289 491,235 Q424,181 336,170 Q291,163 244,163 L244,106 L334,0 L40,0 L114,106 L114,579 L40,685 L318,685 L244,579 M244,528 L244,197 Q327,197 371.5,238.5 Q416,280 416,363 Q416,445 371,486.5 Q326,528 244,528"/> 
            <glyph glyph-name="ß" unicode="&#xDF;" horiz-adv-x="559" d=" M24,490 L94,490 Q94,508 106.5,539.5 Q119,571 143,607 Q167,643 212,669 Q257,695 312,695 Q479,695 479,563 Q479,519 442.5,470 Q406,421 371,391 Q379,385 406,368.5 Q433,352 448.5,341.5 Q464,331 488,311 Q512,291 525,272 Q538,253 548.5,225.5 Q559,198 559,168 Q559,87 514.5,41.5 Q470,-4 381,-4 Q317,-4 264,0 L271,165 L282,165 Q310,88 345,59 Q380,30 411,30 Q479,30 479,111 Q479,168 397,233 Q315,298 265,315 Q324,388 348,438 Q372,488 372,549 Q372,604 344,632.5 Q316,661 277,661 Q228,661 200.5,621.5 Q173,582 200,521 L214,490 L214,0 L20,0 L94,86 L94,427"/> 
            <glyph glyph-name="à" unicode="&#xE0;" horiz-adv-x="514" d=" M306,552 L177,681 L303,681 L321,552 M319,0 L319,84 Q222,-10 145,-10 Q90,-10 57.5,18.5 Q25,47 25,105 Q25,142 45.5,172.5 Q66,203 108.5,227.5 Q151,252 199,270.5 Q247,289 319,310 Q319,343 318,360.5 Q317,378 312.5,399.5 Q308,421 298,431 Q288,441 270.5,448 Q253,455 226,455 Q118,455 56,330 L49,330 L49,490 L487,490 L439,425 L439,65 L440,65 L514,0 M319,111 L319,283 Q234,257 195.5,218 Q157,179 157,138 Q157,104 178,86.5 Q199,69 232,69 Q279,69 319,111"/> 
            <glyph glyph-name="á" unicode="&#xE1;" horiz-adv-x="514" d=" M227,552 L212,552 L230,681 L356,681 M319,0 L319,84 Q222,-10 145,-10 Q90,-10 57.5,18.5 Q25,47 25,105 Q25,142 45.5,172.5 Q66,203 108.5,227.5 Q151,252 199,270.5 Q247,289 319,310 Q319,343 318,360.5 Q317,378 312.5,399.5 Q308,421 298,431 Q288,441 270.5,448 Q253,455 226,455 Q118,455 56,330 L49,330 L49,490 L487,490 L439,425 L439,65 L440,65 L514,0 M319,111 L319,283 Q234,257 195.5,218 Q157,179 157,138 Q157,104 178,86.5 Q199,69 232,69 Q279,69 319,111"/> 
            <glyph glyph-name="â" unicode="&#xE2;" horiz-adv-x="514" d=" M156,552 L213,681 L296,681 L354,552 L338,552 L255,625 L170,552 M319,0 L319,84 Q222,-10 145,-10 Q90,-10 57.5,18.5 Q25,47 25,105 Q25,142 45.5,172.5 Q66,203 108.5,227.5 Q151,252 199,270.5 Q247,289 319,310 Q319,343 318,360.5 Q317,378 312.5,399.5 Q308,421 298,431 Q288,441 270.5,448 Q253,455 226,455 Q118,455 56,330 L49,330 L49,490 L487,490 L439,425 L439,65 L440,65 L514,0 M319,111 L319,283 Q234,257 195.5,218 Q157,179 157,138 Q157,104 178,86.5 Q199,69 232,69 Q279,69 319,111"/> 
            <glyph glyph-name="ã" unicode="&#xE3;" horiz-adv-x="514" d=" M133,571 L196,680 Q203,679 255.5,673 Q308,667 335,667 Q352,667 379,701 L394,695 L335,592 Q327,593 271.5,599 Q216,605 187,605 Q172,605 147,562 M319,0 L319,84 Q222,-10 145,-10 Q90,-10 57.5,18.5 Q25,47 25,105 Q25,142 45.5,172.5 Q66,203 108.5,227.5 Q151,252 199,270.5 Q247,289 319,310 Q319,343 318,360.5 Q317,378 312.5,399.5 Q308,421 298,431 Q288,441 270.5,448 Q253,455 226,455 Q118,455 56,330 L49,330 L49,490 L487,490 L439,425 L439,65 L440,65 L514,0 M319,111 L319,283 Q234,257 195.5,218 Q157,179 157,138 Q157,104 178,86.5 Q199,69 232,69 Q279,69 319,111"/> 
            <glyph glyph-name="ä" unicode="&#xE4;" horiz-adv-x="514" d=" M92,622 L160,698 L227,622 L160,545 M297,622 L365,698 L432,622 L365,545 M319,0 L319,84 Q222,-10 145,-10 Q90,-10 57.5,18.5 Q25,47 25,105 Q25,142 45.5,172.5 Q66,203 108.5,227.5 Q151,252 199,270.5 Q247,289 319,310 Q319,343 318,360.5 Q317,378 312.5,399.5 Q308,421 298,431 Q288,441 270.5,448 Q253,455 226,455 Q118,455 56,330 L49,330 L49,490 L487,490 L439,425 L439,65 L440,65 L514,0 M319,111 L319,283 Q234,257 195.5,218 Q157,179 157,138 Q157,104 178,86.5 Q199,69 232,69 Q279,69 319,111"/> 
            <glyph glyph-name="å" unicode="&#xE5;" horiz-adv-x="514" d=" M174,598 Q174,672 200,698 Q226,724 263,724 Q300,724 326,698 Q352,672 352,635 Q352,598 326,572 Q300,546 263,546 Q226,546 174,598 M202,660 Q202,610 220,592 Q238,574 263,574 Q288,574 306,592 Q324,610 324,635 Q324,660 306,678 Q288,696 263,696 Q238,696 202,660 M319,0 L319,84 Q222,-10 145,-10 Q90,-10 57.5,18.5 Q25,47 25,105 Q25,142 45.5,172.5 Q66,203 108.5,227.5 Q151,252 199,270.5 Q247,289 319,310 Q319,343 318,360.5 Q317,378 312.5,399.5 Q308,421 298,431 Q288,441 270.5,448 Q253,455 226,455 Q118,455 56,330 L49,330 L49,490 L487,490 L439,425 L439,65 L440,65 L514,0 M319,111 L319,283 Q234,257 195.5,218 Q157,179 157,138 Q157,104 178,86.5 Q199,69 232,69 Q279,69 319,111"/> 
            <glyph glyph-name="æ" unicode="&#xE6;" horiz-adv-x="745" d=" M745,284 L424,284 Q432,192 475.5,146.5 Q519,101 582,101 Q632,101 673,123 Q714,145 725,177 L740,171 Q709,92 652.5,40 Q596,-12 514,-12 Q398,-12 339,97 Q243,-10 145,-10 Q90,-10 57.5,18.5 Q25,47 25,105 Q25,142 45.5,172.5 Q66,203 108.5,227.5 Q151,252 199,270.5 Q247,289 319,310 Q327,384 308,421 Q289,458 226,458 Q171,458 126,427 Q81,396 55,344 L49,344 L49,490 L476,490 Q511,502 552,502 Q642,502 693.5,444 Q745,386 745,284 M422,310 L615,310 Q616,314 616,323 Q616,398 591,435 Q566,472 529,472 Q477,472 449.5,423.5 Q422,375 422,321 M232,69 Q290,69 328,121 Q309,172 309,225 Q309,251 314,281 Q232,255 194.5,216.5 Q157,178 157,138 Q157,104 178,86.5 Q199,69 232,69"/> 
            <glyph glyph-name="ç" unicode="&#xE7;" horiz-adv-x="438" d=" M414,354 L409,354 Q342,455 255,455 Q197,455 171,415.5 Q145,376 145,316 Q145,207 186.5,157 Q228,107 294,107 Q341,107 378.5,136.5 Q416,166 427,197 L438,193 Q419,120 367.5,57 Q316,-6 238,-12 L226,-34 Q228,-35 236.5,-38 Q245,-41 249,-42.5 Q253,-44 261,-47.5 Q269,-51 274,-53.5 Q279,-56 285.5,-60 Q292,-64 296,-68 Q300,-72 304,-76.5 Q308,-81 310,-86 Q312,-91 312,-96 Q312,-123 284,-142.5 Q256,-162 218,-162 Q176,-162 143,-133 L150,-119 Q181,-145 220,-145 Q267,-145 267,-128 Q267,-115 251,-105 Q235,-95 216,-91 Q197,-87 181,-82 Q165,-77 165,-72 L207,-11 Q122,-4 76,64.5 Q30,133 30,225 Q30,272 45,317 Q60,362 90,401.5 Q120,441 173,465.5 Q226,490 294,490 L414,490"/> 
            <glyph glyph-name="è" unicode="&#xE8;" horiz-adv-x="467" d=" M267,550 L138,679 L264,679 L282,550 M466,283 L466,282 L145,282 Q153,190 196.5,144.5 Q240,99 303,99 Q353,99 394,121 Q435,143 446,175 L461,169 Q430,90 373.5,38 Q317,-14 235,-14 Q141,-14 85.5,56.5 Q30,127 30,223 Q30,330 94.5,415 Q159,500 273,500 Q362,500 413.5,443 Q465,386 466,285 L467,283 M337,312 L337,321 Q337,396 312,433 Q287,470 250,470 Q198,470 170.5,421.5 Q143,373 143,319 L143,312"/> 
            <glyph glyph-name="é" unicode="&#xE9;" horiz-adv-x="467" d=" M241,550 L226,550 L244,679 L370,679 M466,283 L466,282 L145,282 Q153,190 196.5,144.5 Q240,99 303,99 Q353,99 394,121 Q435,143 446,175 L461,169 Q430,90 373.5,38 Q317,-14 235,-14 Q141,-14 85.5,56.5 Q30,127 30,223 Q30,330 94.5,415 Q159,500 273,500 Q362,500 413.5,443 Q465,386 466,285 L467,283 M337,312 L337,321 Q337,396 312,433 Q287,470 250,470 Q198,470 170.5,421.5 Q143,373 143,319 L143,312"/> 
            <glyph glyph-name="ê" unicode="&#xEA;" horiz-adv-x="467" d=" M175,550 L161,550 L218,679 L301,679 L359,550 L343,550 L260,623 M466,283 L466,282 L145,282 Q153,190 196.5,144.5 Q240,99 303,99 Q353,99 394,121 Q435,143 446,175 L461,169 Q430,90 373.5,38 Q317,-14 235,-14 Q141,-14 85.5,56.5 Q30,127 30,223 Q30,330 94.5,415 Q159,500 273,500 Q362,500 413.5,443 Q465,386 466,285 L467,283 M337,312 L337,321 Q337,396 312,433 Q287,470 250,470 Q198,470 170.5,421.5 Q143,373 143,319 L143,312"/> 
            <glyph glyph-name="ë" unicode="&#xEB;" horiz-adv-x="467" d=" M160,543 L92,620 L160,696 L227,620 M365,543 L297,620 L365,696 L432,620 M466,283 L466,282 L145,282 Q153,190 196.5,144.5 Q240,99 303,99 Q353,99 394,121 Q435,143 446,175 L461,169 Q430,90 373.5,38 Q317,-14 235,-14 Q141,-14 85.5,56.5 Q30,127 30,223 Q30,330 94.5,415 Q159,500 273,500 Q362,500 413.5,443 Q465,386 466,285 L467,283 M337,312 L337,321 Q337,396 312,433 Q287,470 250,470 Q198,470 170.5,421.5 Q143,373 143,319 L143,312"/> 
            <glyph glyph-name="ì" unicode="&#xEC;" horiz-adv-x="293" d=" M180,552 L165,552 L36,681 L162,681 M31,433 L219,500 L219,86 L293,0 L25,0 L99,86 L99,356"/> 
            <glyph glyph-name="í" unicode="&#xED;" horiz-adv-x="293" d=" M113,552 L98,552 L116,681 L242,681 M31,433 L219,500 L219,86 L293,0 L25,0 L99,86 L99,356"/> 
            <glyph glyph-name="î" unicode="&#xEE;" horiz-adv-x="293" d=" M51,552 L108,681 L191,681 L249,552 L233,552 L150,625 L65,552 M31,433 L219,500 L219,86 L293,0 L25,0 L99,86 L99,356"/> 
            <glyph glyph-name="ï" unicode="&#xEF;" horiz-adv-x="365" d=" M25,622 L93,698 L160,622 L93,545 M230,622 L298,698 L365,622 L298,545 M77,433 L265,500 L265,86 L339,0 L71,0 L145,86 L145,356"/> 
            <glyph glyph-name="ð" unicode="&#xF0;" horiz-adv-x="510" d=" M426,669 L338,626 Q510,430 510,267 Q510,217 494,169 Q478,121 446.5,79.5 Q415,38 362,13 Q309,-12 242,-12 Q141,-12 85.5,57 Q30,126 30,223 Q30,273 46,321 Q62,369 93.5,410.5 Q125,452 178,477 Q231,502 298,502 L300,502 Q284,531 248,582 L131,525 L131,559 L224,613 Q185,663 135,717 L251,717 Q287,681 307,660 L424,727 M244,464 Q215,464 196,450 Q177,436 169,410 Q161,384 159,363.5 Q157,343 157,314 Q157,192 195,109 Q233,26 297,26 Q323,26 341.5,41.5 Q360,57 369,82 Q378,107 381.5,130 Q385,153 385,176 Q385,297 346.5,380.5 Q308,464 244,464"/> 
            <glyph glyph-name="ñ" unicode="&#xF1;" horiz-adv-x="604" d=" M182,571 L245,680 Q252,679 304.5,673 Q357,667 384,667 Q401,667 428,701 L443,695 L384,592 Q376,593 320.5,599 Q265,605 236,605 Q221,605 196,562 M214,500 L214,409 Q243,454 287.5,478 Q332,502 379,502 Q453,502 491,458.5 Q529,415 529,342 L529,86 L530,86 L604,0 L336,0 L409,85 L409,308 Q409,373 392,403.5 Q375,434 321,434 Q258,434 214,375 L214,86 L288,0 L20,0 L94,86 L94,356 L26,433"/> 
            <glyph glyph-name="ò" unicode="&#xF2;" horiz-adv-x="520" d=" M291,552 L162,681 L288,681 L306,552 M520,267 Q520,217 503,168.5 Q486,120 453.5,79 Q421,38 367.5,13 Q314,-12 247,-12 Q146,-12 88,57.5 Q30,127 30,223 Q30,273 47,321.5 Q64,370 96.5,411 Q129,452 182.5,477 Q236,502 303,502 Q404,502 462,432.5 Q520,363 520,267 M249,464 Q157,464 157,314 Q157,194 197.5,110 Q238,26 302,26 Q336,26 358.5,54 Q381,82 388,113.5 Q395,145 395,176 Q395,296 354,380 Q313,464 249,464"/> 
            <glyph glyph-name="ó" unicode="&#xF3;" horiz-adv-x="520" d=" M242,552 L227,552 L245,681 L371,681 M520,267 Q520,217 503,168.5 Q486,120 453.5,79 Q421,38 367.5,13 Q314,-12 247,-12 Q146,-12 88,57.5 Q30,127 30,223 Q30,273 47,321.5 Q64,370 96.5,411 Q129,452 182.5,477 Q236,502 303,502 Q404,502 462,432.5 Q520,363 520,267 M249,464 Q157,464 157,314 Q157,194 197.5,110 Q238,26 302,26 Q336,26 358.5,54 Q381,82 388,113.5 Q395,145 395,176 Q395,296 354,380 Q313,464 249,464"/> 
            <glyph glyph-name="ô" unicode="&#xF4;" horiz-adv-x="520" d=" M176,552 L233,681 L316,681 L374,552 L358,552 L275,625 L190,552 M520,267 Q520,217 503,168.5 Q486,120 453.5,79 Q421,38 367.5,13 Q314,-12 247,-12 Q146,-12 88,57.5 Q30,127 30,223 Q30,273 47,321.5 Q64,370 96.5,411 Q129,452 182.5,477 Q236,502 303,502 Q404,502 462,432.5 Q520,363 520,267 M249,464 Q157,464 157,314 Q157,194 197.5,110 Q238,26 302,26 Q336,26 358.5,54 Q381,82 388,113.5 Q395,145 395,176 Q395,296 354,380 Q313,464 249,464"/> 
            <glyph glyph-name="õ" unicode="&#xF5;" horiz-adv-x="520" d=" M337,635 L381,669 L396,663 L337,560 L189,573 L149,530 L135,539 L198,648 M520,267 Q520,217 503,168.5 Q486,120 453.5,79 Q421,38 367.5,13 Q314,-12 247,-12 Q146,-12 88,57.5 Q30,127 30,223 Q30,273 47,321.5 Q64,370 96.5,411 Q129,452 182.5,477 Q236,502 303,502 Q404,502 462,432.5 Q520,363 520,267 M249,464 Q157,464 157,314 Q157,194 197.5,110 Q238,26 302,26 Q336,26 358.5,54 Q381,82 388,113.5 Q395,145 395,176 Q395,296 354,380 Q313,464 249,464"/> 
            <glyph glyph-name="ö" unicode="&#xF6;" horiz-adv-x="520" d=" M101,625 L169,701 L236,625 L169,548 M306,625 L374,701 L441,625 L374,548 M520,267 Q520,217 503,168.5 Q486,120 453.5,79 Q421,38 367.5,13 Q314,-12 247,-12 Q146,-12 88,57.5 Q30,127 30,223 Q30,273 47,321.5 Q64,370 96.5,411 Q129,452 182.5,477 Q236,502 303,502 Q404,502 462,432.5 Q520,363 520,267 M249,464 Q157,464 157,314 Q157,194 197.5,110 Q238,26 302,26 Q336,26 358.5,54 Q381,82 388,113.5 Q395,145 395,176 Q395,296 354,380 Q313,464 249,464"/> 
            <glyph glyph-name="÷" unicode="&#xF7;" horiz-adv-x="423" d=" M140,437 L224,527 L307,437 L224,346 M423,241 L23,241 L23,311 L423,311 M140,116 L224,206 L307,116 L224,25"/> 
            <glyph glyph-name="ø" unicode="&#xF8;" horiz-adv-x="533" d=" M533,564 L454,450 Q529,382 529,267 Q529,217 512,168.5 Q495,120 462.5,79 Q430,38 376.5,13 Q323,-12 256,-12 Q199,-12 153,12 L102,-62 L35,-62 L109,45 Q39,113 39,223 Q39,273 56,321.5 Q73,370 105.5,411 Q138,452 191.5,477 Q245,502 312,502 Q364,502 409,481 L466,564 M187,159 L353,399 Q313,464 258,464 Q166,464 166,314 Q166,226 187,159 M379,341 L212,98 Q253,26 311,26 Q345,26 367.5,54 Q390,82 397,113.5 Q404,145 404,176 Q404,268 379,341"/> 
            <glyph glyph-name="ù" unicode="&#xF9;" horiz-adv-x="571" d=" M280,552 L151,681 L277,681 L295,552 M200,491 L200,184 Q200,119 217,88.5 Q234,58 288,58 Q342,58 383,105 L383,404 L309,491 L503,491 L503,82 L571,0 L383,-6 L383,74 Q323,-10 230,-10 Q156,-10 118,33.5 Q80,77 80,150 L80,404 L5,491"/> 
            <glyph glyph-name="ú" unicode="&#xFA;" horiz-adv-x="571" d=" M270,552 L255,552 L273,681 L399,681 M200,491 L200,184 Q200,119 217,88.5 Q234,58 288,58 Q342,58 383,105 L383,404 L309,491 L503,491 L503,82 L571,0 L383,-6 L383,74 Q323,-10 230,-10 Q156,-10 118,33.5 Q80,77 80,150 L80,404 L5,491"/> 
            <glyph glyph-name="û" unicode="&#xFB;" horiz-adv-x="571" d=" M169,552 L226,681 L309,681 L367,552 L351,552 L268,625 L183,552 M200,491 L200,184 Q200,119 217,88.5 Q234,58 288,58 Q342,58 383,105 L383,404 L309,491 L503,491 L503,82 L571,0 L383,-6 L383,74 Q323,-10 230,-10 Q156,-10 118,33.5 Q80,77 80,150 L80,404 L5,491"/> 
            <glyph glyph-name="ü" unicode="&#xFC;" horiz-adv-x="571" d=" M106,625 L174,701 L241,625 L174,548 M311,625 L379,701 L446,625 L379,548 M200,491 L200,184 Q200,119 217,88.5 Q234,58 288,58 Q342,58 383,105 L383,404 L309,491 L503,491 L503,82 L571,0 L383,-6 L383,74 Q323,-10 230,-10 Q156,-10 118,33.5 Q80,77 80,150 L80,404 L5,491"/> 
            <glyph glyph-name="ý" unicode="&#xFD;" horiz-adv-x="535" d=" M294,552 L279,552 L297,681 L423,681 M0,490 L265,490 L192,426 L297,168 L309,134 L430,426 L357,490 L535,490 L476,428 L244,-129 L316,-215 L100,-215 L188,-125 L247,10 L66,409"/> 
            <glyph glyph-name="þ" unicode="&#xFE;" horiz-adv-x="567" d=" M214,710 L214,425 Q278,500 367,500 Q460,500 513.5,430.5 Q567,361 567,265 Q567,220 552.5,174.5 Q538,129 509,86.5 Q480,44 427.5,17.5 Q375,-9 307,-9 Q270,-9 214,3 L214,-129 L307,-215 L20,-215 L94,-129 L94,576 L26,653 M214,398 L214,103 Q274,35 346,35 Q406,35 427.5,73 Q449,111 449,174 Q449,289 406,357.5 Q363,426 297,426 Q258,426 214,398"/> 
            <glyph glyph-name="ÿ" unicode="&#xFF;" horiz-adv-x="535" d=" M122,622 L190,698 L257,622 L190,545 M327,622 L395,698 L462,622 L395,545 M0,490 L265,490 L192,426 L297,168 L309,134 L430,426 L357,490 L535,490 L476,428 L244,-129 L316,-215 L100,-215 L188,-125 L247,10 L66,409"/> 
            <glyph glyph-name="Ć" unicode="&#x106;" horiz-adv-x="616" d=" M341,740 L326,740 L339,869 L470,869 M565,482 L552,482 Q525,552 472.5,598 Q420,644 347,644 Q263,644 221.5,578 Q180,512 180,406 Q180,273 233.5,189 Q287,105 388,105 Q528,105 601,221 L616,211 Q598,169 573,132 Q548,95 513,61 Q478,27 430,7.5 Q382,-12 327,-12 Q193,-12 114,79.5 Q35,171 35,319 Q35,387 60,451.5 Q85,516 131,568.5 Q177,621 249.5,653 Q322,685 409,685 L565,685"/> 
            <glyph glyph-name="ć" unicode="&#x107;" horiz-adv-x="438" d=" M256,552 L241,552 L259,681 L385,681 M414,354 L409,354 Q342,455 255,455 Q197,455 171,415.5 Q145,376 145,316 Q145,207 186.5,157 Q228,107 294,107 Q341,107 378.5,136.5 Q416,166 427,197 L438,193 Q429,160 412.5,126.5 Q396,93 370.5,60.5 Q345,28 307,8 Q269,-12 225,-12 Q132,-12 81,58 Q30,128 30,225 Q30,272 45,317 Q60,362 90,401.5 Q120,441 173,465.5 Q226,490 294,490 L414,490"/> 
            <glyph glyph-name="Ĉ" unicode="&#x108;" horiz-adv-x="616" d=" M264,740 L326,869 L409,869 L472,740 L457,740 L368,810 L279,740 M565,482 L552,482 Q525,552 472.5,598 Q420,644 347,644 Q263,644 221.5,578 Q180,512 180,406 Q180,273 233.5,189 Q287,105 388,105 Q528,105 601,221 L616,211 Q598,169 573,132 Q548,95 513,61 Q478,27 430,7.5 Q382,-12 327,-12 Q193,-12 114,79.5 Q35,171 35,319 Q35,387 60,451.5 Q85,516 131,568.5 Q177,621 249.5,653 Q322,685 409,685 L565,685"/> 
            <glyph glyph-name="ĉ" unicode="&#x109;" horiz-adv-x="438" d=" M156,552 L213,681 L296,681 L354,552 L338,552 L255,625 L170,552 M414,354 L409,354 Q342,455 255,455 Q197,455 171,415.5 Q145,376 145,316 Q145,207 186.5,157 Q228,107 294,107 Q341,107 378.5,136.5 Q416,166 427,197 L438,193 Q429,160 412.5,126.5 Q396,93 370.5,60.5 Q345,28 307,8 Q269,-12 225,-12 Q132,-12 81,58 Q30,128 30,225 Q30,272 45,317 Q60,362 90,401.5 Q120,441 173,465.5 Q226,490 294,490 L414,490"/> 
            <glyph glyph-name="ċ" unicode="&#x10B;" horiz-adv-x="438" d=" M184,627 L255,707 L325,627 L255,546 M414,354 L409,354 Q342,455 255,455 Q197,455 171,415.5 Q145,376 145,316 Q145,207 186.5,157 Q228,107 294,107 Q341,107 378.5,136.5 Q416,166 427,197 L438,193 Q429,160 412.5,126.5 Q396,93 370.5,60.5 Q345,28 307,8 Q269,-12 225,-12 Q132,-12 81,58 Q30,128 30,225 Q30,272 45,317 Q60,362 90,401.5 Q120,441 173,465.5 Q226,490 294,490 L414,490"/> 
            <glyph glyph-name="Č" unicode="&#x10C;" horiz-adv-x="616" d=" M361,799 L450,869 L465,869 L402,740 L319,740 L257,869 L272,869 M565,482 L552,482 Q525,552 472.5,598 Q420,644 347,644 Q263,644 221.5,578 Q180,512 180,406 Q180,273 233.5,189 Q287,105 388,105 Q528,105 601,221 L616,211 Q598,169 573,132 Q548,95 513,61 Q478,27 430,7.5 Q382,-12 327,-12 Q193,-12 114,79.5 Q35,171 35,319 Q35,387 60,451.5 Q85,516 131,568.5 Q177,621 249.5,653 Q322,685 409,685 L565,685"/> 
            <glyph glyph-name="č" unicode="&#x10D;" horiz-adv-x="438" d=" M259,608 L342,681 L358,681 L300,552 L217,552 L160,681 L174,681 M414,354 L409,354 Q342,455 255,455 Q197,455 171,415.5 Q145,376 145,316 Q145,207 186.5,157 Q228,107 294,107 Q341,107 378.5,136.5 Q416,166 427,197 L438,193 Q429,160 412.5,126.5 Q396,93 370.5,60.5 Q345,28 307,8 Q269,-12 225,-12 Q132,-12 81,58 Q30,128 30,225 Q30,272 45,317 Q60,362 90,401.5 Q120,441 173,465.5 Q226,490 294,490 L414,490"/> 
            <glyph glyph-name="Ď" unicode="&#x10E;" horiz-adv-x="700" d=" M348,799 L437,869 L452,869 L389,740 L306,740 L244,869 L259,869 M40,685 L306,685 Q414,685 494,656.5 Q574,628 617,581 Q660,534 680,481.5 Q700,429 700,372 Q700,200 587.5,100 Q475,0 289,0 L40,0 L114,106 L114,579 M244,38 L307,38 Q368,38 414.5,58.5 Q461,79 488.5,110 Q516,141 533,184 Q550,227 556,265 Q562,303 562,344 Q562,493 497.5,573 Q433,653 314,653 L244,653"/> 
            <glyph glyph-name="ď" unicode="&#x10F;" horiz-adv-x="733" d=" M586,459 L572,469 Q597,483 606.5,489 Q616,495 628,510 Q640,525 640,543 Q640,552 636.5,560.5 Q633,569 629.5,573 Q626,577 618,585 Q610,593 608,595 L569,626 L652,711 Q681,693 707,665 Q733,637 733,614 Q733,580 713.5,549.5 Q694,519 667,501 Q640,483 619,472.5 Q598,462 586,459 M383,-9 L383,89 Q326,-10 230,-10 Q137,-10 86,59 Q35,128 35,225 Q35,293 62,351.5 Q89,410 150.5,450 Q212,490 299,490 L383,490 L383,576 L315,653 L503,710 L503,70 L577,0 M383,125 L383,394 Q326,455 260,455 Q201,455 177.5,414 Q154,373 154,316 Q154,205 196.5,152.5 Q239,100 308,100 Q351,100 383,125"/> 
            <glyph glyph-name="Ė" unicode="&#x116;" horiz-adv-x="552" d=" M231,820 L302,900 L372,820 L302,739 M541,0 L40,0 L100,106 L100,581 L40,685 L522,685 L522,475 L510,475 L400,649 L230,649 L230,372 L503,372 L503,327 L230,327 L230,36 L409,36 L541,219 L552,217"/> 
            <glyph glyph-name="ė" unicode="&#x117;" horiz-adv-x="466" d=" M194,627 L265,707 L335,627 L265,546 M466,284 L145,284 Q153,192 196.5,146.5 Q240,101 303,101 Q353,101 394,123 Q435,145 446,177 L461,171 Q430,92 373.5,40 Q317,-12 235,-12 Q141,-12 85.5,58.5 Q30,129 30,225 Q30,332 94.5,417 Q159,502 273,502 Q363,502 414.5,444 Q466,386 466,284 M143,310 L336,310 Q337,314 337,323 Q337,398 312,435 Q287,472 250,472 Q198,472 170.5,423.5 Q143,375 143,321"/> 
            <glyph glyph-name="Ě" unicode="&#x11A;" horiz-adv-x="552" d=" M308,799 L397,869 L412,869 L349,740 L266,740 L204,869 L219,869 M541,0 L40,0 L100,106 L100,581 L40,685 L522,685 L522,475 L510,475 L400,649 L230,649 L230,372 L503,372 L503,327 L230,327 L230,36 L409,36 L541,219 L552,217"/> 
            <glyph glyph-name="ě" unicode="&#x11B;" horiz-adv-x="466" d=" M259,608 L342,681 L358,681 L300,552 L217,552 L160,681 L174,681 M466,284 L145,284 Q153,192 196.5,146.5 Q240,101 303,101 Q353,101 394,123 Q435,145 446,177 L461,171 Q430,92 373.5,40 Q317,-12 235,-12 Q141,-12 85.5,58.5 Q30,129 30,225 Q30,332 94.5,417 Q159,502 273,502 Q363,502 414.5,444 Q466,386 466,284 M143,310 L336,310 Q337,314 337,323 Q337,398 312,435 Q287,472 250,472 Q198,472 170.5,423.5 Q143,375 143,321"/> 
            <glyph glyph-name="ı" unicode="&#x131;" horiz-adv-x="293" d=" M31,433 L219,500 L219,86 L293,0 L25,0 L99,86 L99,356"/> 
            <glyph glyph-name="Ĳ" unicode="&#x132;" horiz-adv-x="651" d=" M318,0 L40,0 L114,106 L114,579 L40,685 L318,685 L244,579 L244,106 M651,685 L577,579 L577,4 Q577,-47 532.5,-94.5 Q488,-142 432,-176 L425,-172 Q447,-126 447,-73 L447,579 L373,685"/> 
            <glyph glyph-name="ĳ" unicode="&#x133;" horiz-adv-x="545" d=" M70,639 L156,731 L241,639 L156,546 M374,639 L460,731 L545,639 L460,546 M31,433 L219,500 L219,86 L293,0 L25,0 L99,86 L99,356 M523,500 L523,73 L524,73 L524,-65 Q524,-99 500.5,-129 Q477,-159 438.5,-188 Q400,-217 393,-225 L386,-222 Q393,-211 397,-192.5 Q401,-174 402,-160 L403,-147 L403,356 L335,433"/> 
            <glyph glyph-name="Ĺ" unicode="&#x139;" horiz-adv-x="580" d=" M163,740 L148,740 L161,869 L292,869 M580,216 L569,0 L40,0 L100,106 L100,581 L40,685 L306,685 L230,580 L230,45 L438,45 L570,216"/> 
            <glyph glyph-name="ĺ" unicode="&#x13A;" horiz-adv-x="288" d=" M122,740 L107,740 L125,869 L251,869 M94,86 L94,440 L26,517 L94,538 L94,576 L26,653 L214,710 L214,86 L288,0 L20,0"/> 
            <glyph glyph-name="Ľ" unicode="&#x13D;" horiz-adv-x="580" d=" M413,429 L399,439 Q464,493 464,543 Q464,550 462.5,556.5 Q461,563 457,569 Q453,575 451,577.5 Q449,580 442.5,587 Q436,594 435,595 L396,626 L479,711 Q508,693 534,665 Q560,637 560,614 Q560,521 417,431 Q414,430 413,429 M580,216 L569,0 L40,0 L100,106 L100,581 L40,685 L306,685 L230,580 L230,45 L438,45 L570,216"/> 
            <glyph glyph-name="ľ" unicode="&#x13E;" horiz-adv-x="439" d=" M292,459 L278,469 Q303,483 312.5,489 Q322,495 334,510 Q346,525 346,543 Q346,552 342.5,560.5 Q339,569 335.5,573 Q332,577 324,585 Q316,593 314,595 L275,626 L358,711 Q387,693 413,665 Q439,637 439,614 Q439,580 419.5,549.5 Q400,519 373,501 Q346,483 325,472.5 Q304,462 292,459 M94,86 L94,440 L26,517 L94,538 L94,576 L26,653 L214,710 L214,86 L288,0 L20,0"/> 
            <glyph glyph-name="Ŀ" unicode="&#x13F;" horiz-adv-x="580" d=" M580,216 L569,0 L40,0 L100,106 L100,581 L40,685 L306,685 L230,580 L230,45 L438,45 L570,216 M457,287 L371,379 L457,472 L542,379"/> 
            <glyph glyph-name="ŀ" unicode="&#x140;" horiz-adv-x="456" d=" M94,86 L94,440 L26,517 L94,538 L94,576 L26,653 L214,710 L214,86 L288,0 L20,0 M285,304 L371,397 L456,304 L371,212"/> 
            <glyph glyph-name="Ł" unicode="&#x141;" horiz-adv-x="589" d=" M578,0 L49,0 L109,106 L109,289 L10,260 L10,322 L109,351 L109,581 L49,685 L315,685 L239,580 L239,389 L370,428 L370,364 L239,326 L239,36 L440,36 L579,215 L589,215"/> 
            <glyph glyph-name="ł" unicode="&#x142;" horiz-adv-x="316" d=" M208,86 L282,0 L14,0 L88,86 L88,307 L-5,268 L-5,330 L88,369 L88,440 L20,517 L88,538 L88,576 L20,653 L208,710 L208,420 L316,465 L316,401 L208,356"/> 
            <glyph glyph-name="Ń" unicode="&#x143;" horiz-adv-x="721" d=" M361,740 L346,740 L359,869 L490,869 M164,487 L164,86 L250,0 L36,0 L110,93 L110,558 L13,685 L178,685 L593,130 L593,599 L507,685 L721,685 L647,592 L647,58 L690,0 L535,0"/> 
            <glyph glyph-name="ń" unicode="&#x144;" horiz-adv-x="604" d=" M305,552 L290,552 L308,681 L434,681 M214,500 L214,409 Q243,454 287.5,478 Q332,502 379,502 Q453,502 491,458.5 Q529,415 529,342 L529,86 L604,0 L336,0 L409,85 L409,308 Q409,373 392,403.5 Q375,434 321,434 Q258,434 214,375 L214,86 L288,0 L20,0 L94,86 L94,356 L26,433"/> 
            <glyph glyph-name="Ň" unicode="&#x147;" horiz-adv-x="721" d=" M380,799 L469,869 L484,869 L421,740 L338,740 L276,869 L291,869 M164,487 L164,86 L250,0 L36,0 L110,93 L110,558 L13,685 L178,685 L593,130 L593,599 L507,685 L721,685 L647,592 L647,58 L690,0 L535,0"/> 
            <glyph glyph-name="ň" unicode="&#x148;" horiz-adv-x="604" d=" M315,608 L398,681 L414,681 L356,552 L273,552 L216,681 L230,681 M214,500 L214,409 Q243,454 287.5,478 Q332,502 379,502 Q453,502 491,458.5 Q529,415 529,342 L529,86 L530,86 L604,0 L336,0 L409,85 L409,308 Q409,373 392,403.5 Q375,434 321,434 Q258,434 214,375 L214,86 L288,0 L20,0 L94,86 L94,356 L26,433"/> 
            <glyph glyph-name="Œ" unicode="&#x152;" horiz-adv-x="954" d=" M905,372 L905,332 L632,332 L632,36 L811,36 L943,213 L954,211 L943,0 L331,0 Q198,0 116.5,92.5 Q35,185 35,313 Q35,389 59,456 Q83,523 129,574.5 Q175,626 246.5,655.5 Q318,685 407,685 L924,685 L924,481 L912,481 L802,649 L632,649 L632,372 M501,648 L378,648 Q318,648 275.5,620 Q233,592 213,549 Q193,506 185,468 Q177,430 177,396 Q177,243 238,139.5 Q299,36 402,36 L501,36"/> 
            <glyph glyph-name="œ" unicode="&#x153;" horiz-adv-x="808" d=" M789,177 L803,171 Q774,94 717.5,41 Q661,-12 583,-12 Q490,-12 434,69 Q361,-12 246,-12 Q146,-12 90.5,57 Q35,126 35,223 Q35,273 51.5,321.5 Q68,370 99,411 Q130,452 182,477 Q234,502 299,502 Q399,502 456,425 Q520,502 620,502 Q706,502 757,444 Q808,386 808,284 L505,284 Q505,281 505.5,275.5 Q506,270 506,267 Q506,264 505.5,259.5 Q505,255 505,252 Q516,175 554.5,138 Q593,101 648,101 Q697,101 737.5,123 Q778,145 789,177 M502,310 L680,310 Q682,391 658,431.5 Q634,472 598,472 Q550,472 526,424 Q502,376 501,320 M248,464 Q161,464 161,314 Q161,194 199,110 Q237,26 298,26 Q331,26 352,54 Q373,82 380,113.5 Q387,145 387,176 Q387,296 348.5,380 Q310,464 248,464"/> 
            <glyph glyph-name="Ŕ" unicode="&#x154;" horiz-adv-x="686" d=" M301,740 L286,740 L299,869 L430,869 M686,0 L484,0 Q341,245 292,312 L244,308 L244,106 L318,0 L40,0 L114,106 L114,579 L40,685 L293,685 Q580,685 580,508 Q580,451 536,407.5 Q492,364 425,339 L580,98 M244,655 L244,341 Q322,343 377.5,383.5 Q433,424 433,496 Q433,655 244,655"/> 
            <glyph glyph-name="ŕ" unicode="&#x155;" horiz-adv-x="445" d=" M215,552 L233,681 L359,681 L230,552 M445,313 L437,313 Q406,386 366.5,419.5 Q327,453 288,453 Q268,453 254.5,446 Q241,439 234,430 Q227,421 223.5,397.5 Q220,374 219.5,357 Q219,340 219,301 L219,86 L312,0 L25,0 L99,86 L99,413 L31,490 L445,490"/> 
            <glyph glyph-name="Ř" unicode="&#x158;" horiz-adv-x="686" d=" M310,799 L399,869 L414,869 L351,740 L268,740 L206,869 L221,869 M686,0 L484,0 Q341,245 292,312 L244,308 L244,106 L318,0 L40,0 L114,106 L114,579 L40,685 L293,685 Q580,685 580,508 Q580,451 536,407.5 Q492,364 425,339 L580,98 M244,655 L244,341 Q322,343 377.5,383.5 Q433,424 433,496 Q433,655 244,655"/> 
            <glyph glyph-name="ř" unicode="&#x159;" horiz-adv-x="445" d=" M159,681 L173,681 L258,608 L341,681 L357,681 L299,552 L216,552 M445,313 L437,313 Q406,386 366.5,419.5 Q327,453 288,453 Q268,453 254.5,446 Q241,439 234,430 Q227,421 223.5,397.5 Q220,374 219.5,357 Q219,340 219,301 L219,86 L312,0 L25,0 L99,86 L99,413 L31,490 L445,490"/> 
            <glyph glyph-name="Ś" unicode="&#x15A;" horiz-adv-x="493" d=" M253,740 L238,740 L251,869 L382,869 M35,268 L47,268 Q73,167 137,98.5 Q201,30 279,30 Q323,30 353,58 Q383,86 383,130 Q383,168 364,197.5 Q345,227 314.5,246 Q284,265 247.5,282 Q211,299 174,317.5 Q137,336 106.5,358.5 Q76,381 57,417 Q38,453 38,500 Q38,577 94,631 Q150,685 255,685 L398,685 L446,700 L446,484 L434,485 Q410,564 355,608.5 Q300,653 231,653 Q189,653 162.5,629 Q136,605 136,562 Q136,516 173,482 Q210,448 262,424 Q314,400 366.5,374.5 Q419,349 456,306 Q493,263 493,204 Q493,98 423,45 Q353,-8 246,-8 Q127,-8 47,28"/> 
            <glyph glyph-name="ś" unicode="&#x15B;" horiz-adv-x="386" d=" M201,552 L186,552 L204,681 L330,681 M25,189 L33,189 Q53,123 106.5,75.5 Q160,28 220,28 Q253,28 274,44.5 Q295,61 295,93 Q295,120 275.5,139.5 Q256,159 226.5,168.5 Q197,178 162.5,192 Q128,206 98.5,222 Q69,238 49.5,271.5 Q30,305 30,351 Q30,408 76.5,449 Q123,490 197,490 L307,490 L344,511 L344,345 L338,346 Q311,394 265,426 Q219,458 178,458 Q147,458 129.5,440 Q112,422 112,392 Q112,368 132.5,351 Q153,334 183,324.5 Q213,315 249,301.5 Q285,288 315,272 Q345,256 365.5,225 Q386,194 386,151 Q386,97 352.5,58.5 Q319,20 276.5,5 Q234,-10 190,-10 Q89,-10 34,13"/> 
            <glyph glyph-name="Š" unicode="&#x160;" horiz-adv-x="493" d=" M279,799 L368,869 L383,869 L320,740 L237,740 L175,869 L190,869 M35,268 L47,268 Q73,167 137,98.5 Q201,30 279,30 Q323,30 353,58 Q383,86 383,130 Q383,168 364,197.5 Q345,227 314.5,246 Q284,265 247.5,282 Q211,299 174,317.5 Q137,336 106.5,358.5 Q76,381 57,417 Q38,453 38,500 Q38,577 94,631 Q150,685 255,685 L398,685 L446,700 L446,484 L434,485 Q410,564 355,608.5 Q300,653 231,653 Q189,653 162.5,629 Q136,605 136,562 Q136,516 173,482 Q210,448 262,424 Q314,400 366.5,374.5 Q419,349 456,306 Q493,263 493,204 Q493,98 423,45 Q353,-8 246,-8 Q127,-8 47,28"/> 
            <glyph glyph-name="š" unicode="&#x161;" horiz-adv-x="386" d=" M215,608 L298,681 L314,681 L256,552 L173,552 L116,681 L130,681 M25,189 L33,189 Q53,123 106.5,75.5 Q160,28 220,28 Q253,28 274,44.5 Q295,61 295,93 Q295,120 275.5,139.5 Q256,159 226.5,168.5 Q197,178 162.5,192 Q128,206 98.5,222 Q69,238 49.5,271.5 Q30,305 30,351 Q30,408 76.5,449 Q123,490 197,490 L307,490 L344,511 L344,345 L338,346 Q311,394 265,426 Q219,458 178,458 Q147,458 129.5,440 Q112,422 112,392 Q112,368 132.5,351 Q153,334 183,324.5 Q213,315 249,301.5 Q285,288 315,272 Q345,256 365.5,225 Q386,194 386,151 Q386,97 352.5,58.5 Q319,20 276.5,5 Q234,-10 190,-10 Q89,-10 34,13"/> 
            <glyph glyph-name="Ť" unicode="&#x164;" horiz-adv-x="622" d=" M314,799 L403,869 L418,869 L355,740 L272,740 L210,869 L225,869 M19,466 L19,685 L622,685 L622,466 L614,465 L485,650 L385,650 L385,106 L459,0 L181,0 L255,106 L255,649 L155,649 L27,465"/> 
            <glyph glyph-name="ť" unicode="&#x165;" horiz-adv-x="510" d=" M363,559 L349,569 Q374,583 383.5,589 Q393,595 405,610 Q417,625 417,643 Q417,652 413.5,660.5 Q410,669 406.5,673 Q403,677 395,685 Q387,693 385,695 L346,726 L429,811 Q458,793 484,765 Q510,737 510,714 Q510,680 490.5,649.5 Q471,619 444,601 Q417,583 396,572.5 Q375,562 363,559 M76,427 L76,142 Q76,62 111.5,25 Q147,-12 204,-12 Q263,-12 306.5,18 Q350,48 387,110 L375,126 Q360,97 332,82.5 Q304,68 277,68 Q232,68 214,93.5 Q196,119 196,190 L196,436 L366,436 L388,490 L196,490 L196,632 L10,490"/> 
            <glyph glyph-name="Ů" unicode="&#x16E;" horiz-adv-x="728" d=" M315,768 Q315,848 343.5,877 Q372,906 413,906 Q454,906 482.5,877 Q511,848 511,808 Q511,768 482.5,739 Q454,710 413,710 Q372,710 315,768 M349,834 Q349,782 368,763 Q387,744 413,744 Q439,744 458,763 Q477,782 477,808 Q477,834 458,853 Q439,872 413,872 Q387,872 349,834 M244,579 L244,236 Q244,170 259,127 Q274,84 303.5,64.5 Q333,45 362,39 Q391,33 434,33 Q606,33 606,301 L606,595 L529,685 L728,685 L654,595 L654,277 Q654,212 645,175 Q636,138 613,96 Q585,45 528.5,15 Q472,-15 397,-15 Q113,-15 113,221 L113,580 L40,685 L318,685"/> 
            <glyph glyph-name="ů" unicode="&#x16F;" horiz-adv-x="571" d=" M191,598 Q191,672 217,698 Q243,724 280,724 Q317,724 343,698 Q369,672 369,635 Q369,598 343,572 Q317,546 280,546 Q243,546 191,598 M219,660 Q219,610 236.5,592 Q254,574 280,574 Q306,574 323.5,592 Q341,610 341,635 Q341,660 323.5,678 Q306,696 280,696 Q254,696 219,660 M200,491 L200,184 Q200,119 217,88.5 Q234,58 288,58 Q342,58 383,105 L383,404 L309,491 L503,491 L503,82 L571,0 L383,-6 L383,74 Q323,-10 230,-10 Q156,-10 118,33.5 Q80,77 80,150 L80,404 L5,491"/> 
            <glyph glyph-name="Ŵ" unicode="&#x174;" horiz-adv-x="1004" d=" M408,740 L470,869 L553,869 L616,740 L601,740 L512,810 L423,740 M731,141 L881,598 L795,685 L1004,685 L936,599 L722,-12 L661,-12 L516,377 L374,-12 L313,-12 L65,626 L13,685 L286,685 L206,624 L370,185 L380,148 L494,436 L422,628 L372,685 L645,685 L564,624 L719,185"/> 
            <glyph glyph-name="ŵ" unicode="&#x175;" horiz-adv-x="828" d=" M329,552 L381,681 L464,681 L517,552 L501,552 L423,625 L343,552 M66,409 L0,490 L265,490 L192,426 L297,168 L309,134 L398,349 L372,409 L306,490 L570,490 L498,426 L602,168 L614,146 L722,426 L650,490 L828,490 L769,428 L584,-22 L562,-22 L420,300 L278,-22 L256,-22"/> 
            <glyph glyph-name="Ŷ" unicode="&#x176;" horiz-adv-x="679" d=" M272,740 L334,869 L417,869 L480,740 L465,740 L376,810 L287,740 M409,101 L493,0 L195,0 L279,101 L279,281 L101,579 L10,685 L331,685 L246,579 L245,579 L363,390 L379,357 L510,581 L425,685 L679,685 L576,591 L409,318"/> 
            <glyph glyph-name="ŷ" unicode="&#x177;" horiz-adv-x="535" d=" M206,552 L263,681 L346,681 L404,552 L388,552 L305,625 L220,552 M0,490 L265,490 L192,426 L297,168 L309,134 L430,426 L357,490 L535,490 L476,428 L243,-129 L315,-215 L100,-215 L188,-125 L247,10 L66,409"/> 
            <glyph glyph-name="Ÿ" unicode="&#x178;" horiz-adv-x="679" d=" M173,830 L250,917 L327,830 L250,742 M406,830 L484,917 L560,830 L484,742 M409,101 L493,0 L195,0 L279,101 L279,281 L101,579 L10,685 L331,685 L246,579 L245,579 L363,390 L379,357 L510,581 L425,685 L679,685 L576,591 L409,318"/> 
            <glyph glyph-name="Ź" unicode="&#x179;" horiz-adv-x="623" d=" M302,740 L287,740 L305,869 L431,869 M192,36 L476,36 L615,215 L623,215 L612,0 L37,0 L30,12 L455,649 L216,649 L82,468 L74,468 L80,695 L186,685 L615,685 L622,671"/> 
            <glyph glyph-name="ź" unicode="&#x17A;" horiz-adv-x="487" d=" M254,552 L239,552 L257,681 L383,681 M182,36 L363,36 L487,216 L469,15 L469,0 L20,0 L321,454 L166,454 L61,296 L61,508 L147,490 L483,490"/> 
            <glyph glyph-name="Ż" unicode="&#x17B;" horiz-adv-x="623" d=" M261,820 L332,900 L402,820 L332,739 M192,36 L476,36 L615,215 L623,215 L612,0 L37,0 L30,12 L455,649 L216,649 L82,468 L74,468 L80,695 L186,685 L615,685 L622,671"/> 
            <glyph glyph-name="ż" unicode="&#x17C;" horiz-adv-x="487" d=" M199,625 L270,705 L340,625 L270,544 M182,36 L363,36 L487,216 L469,15 L469,0 L20,0 L321,454 L166,454 L61,296 L61,508 L147,490 L483,490"/> 
            <glyph glyph-name="Ž" unicode="&#x17D;" horiz-adv-x="623" d=" M342,799 L431,869 L446,869 L383,740 L300,740 L238,869 L253,869 M192,36 L476,36 L615,215 L623,215 L612,0 L37,0 L30,12 L455,649 L216,649 L82,468 L74,468 L80,695 L186,685 L615,685 L622,671"/> 
            <glyph glyph-name="ž" unicode="&#x17E;" horiz-adv-x="487" d=" M271,608 L354,681 L370,681 L312,552 L229,552 L172,681 L186,681 M182,36 L363,36 L487,216 L469,15 L469,0 L20,0 L321,454 L166,454 L61,296 L61,508 L147,490 L483,490"/> 
            <glyph glyph-name="ƒ" unicode="&#x192;" horiz-adv-x="511" d=" M511,783 L511,623 L504,623 Q442,748 381,748 Q349,748 338.5,716 Q328,684 324,609 L316,490 L479,490 L479,449 L314,445 L290,74 Q286,7 268.5,-49 Q251,-105 209.5,-148 Q168,-191 108,-191 L-12,-191 L-12,-31 L-5,-31 Q57,-156 118,-156 Q150,-156 160.5,-124.5 Q171,-93 175,-17 L204,443 L115,441 L115,490 L207,490 L209,518 Q213,585 230.5,641 Q248,697 289.5,740 Q331,783 391,783"/> 
            <glyph glyph-name="ˆ" unicode="&#x2C6;" horiz-adv-x="207" d=" M9,552 L66,681 L149,681 L207,552 L191,552 L108,625 L23,552"/> 
            <glyph glyph-name="ˇ" unicode="&#x2C7;" horiz-adv-x="207" d=" M108,608 L191,681 L207,681 L149,552 L66,552 L9,681 L23,681"/> 
            <glyph glyph-name="˙" unicode="&#x2D9;" horiz-adv-x="158" d=" M17,625 L88,705 L158,625 L88,544"/> 
            <glyph glyph-name="˚" unicode="&#x2DA;" horiz-adv-x="201" d=" M5,594 Q5,676 33.5,704.5 Q62,733 103,733 Q144,733 172.5,704.5 Q201,676 201,635 Q201,594 172.5,565.5 Q144,537 103,537 Q62,537 5,594 M39,661 Q39,609 58,590 Q77,571 103,571 Q129,571 148,590 Q167,609 167,635 Q167,661 148,680 Q129,699 103,699 Q77,699 39,661"/> 
            <glyph glyph-name="˜" unicode="&#x2DC;" horiz-adv-x="311" d=" M50,553 L113,662 Q120,661 172.5,655 Q225,649 252,649 Q269,649 296,683 L311,677 L252,574 Q244,575 188.5,581 Q133,587 104,587 Q89,587 64,544"/> 
            <glyph glyph-name="Λ" unicode="&#x39B;" horiz-adv-x="678" d=" M298,547 L129,86 L214,0 L5,0 L75,89 L314,705 L362,705 L626,59 L678,0 L405,0 L485,61 L311,500"/> 
            <glyph glyph-name="μ" unicode="&#x3BC;" horiz-adv-x="571" d=" M383,-6 L383,74 Q323,-10 230,-10 Q212,-10 194,-3 L200,-31 L200,-214 L6,-214 L80,-128 L80,404 L5,491 L200,491 L200,184 Q200,119 217,88.5 Q234,58 288,58 Q342,58 383,105 L383,404 L309,491 L503,491 L503,82 L571,0"/> 
            <glyph glyph-name="π" unicode="&#x3C0;" horiz-adv-x="598" d=" M588,84 L598,72 Q565,28 536,8.5 Q507,-11 461,-11 Q357,-11 357,114 L357,378 L228,378 L228,0 L52,0 L136,53 L145,378 L136,378 Q98,378 75.5,363 Q53,348 32,308 L25,308 L31,338 Q51,435 76,462.5 Q101,490 169,490 L571,490 L571,378 L477,378 L477,134 Q477,54 523,54 Q562,54 588,84"/> 
            <glyph glyph-name="Ẁ" unicode="&#x1E80;" horiz-adv-x="1004" d=" M512,740 L383,869 L514,869 L527,740 M731,141 L881,598 L795,685 L1004,685 L936,599 L722,-12 L661,-12 L516,377 L374,-12 L313,-12 L65,626 L13,685 L286,685 L206,624 L370,185 L380,148 L494,436 L422,628 L372,685 L645,685 L564,624 L719,185"/> 
            <glyph glyph-name="ẁ" unicode="&#x1E81;" horiz-adv-x="828" d=" M461,552 L332,681 L458,681 L476,552 M66,409 L0,490 L265,490 L192,426 L297,168 L309,134 L398,349 L372,409 L306,490 L570,490 L498,426 L602,168 L614,146 L722,426 L650,490 L828,490 L769,428 L584,-22 L562,-22 L420,300 L278,-22 L256,-22"/> 
            <glyph glyph-name="Ẃ" unicode="&#x1E82;" horiz-adv-x="1004" d=" M509,740 L494,740 L507,869 L638,869 M731,141 L881,598 L795,685 L1004,685 L936,599 L722,-12 L661,-12 L516,377 L374,-12 L313,-12 L65,626 L13,685 L286,685 L206,624 L370,185 L380,148 L494,436 L422,628 L372,685 L645,685 L564,624 L719,185"/> 
            <glyph glyph-name="ẃ" unicode="&#x1E83;" horiz-adv-x="828" d=" M415,552 L400,552 L418,681 L544,681 M66,409 L0,490 L265,490 L192,426 L297,168 L309,134 L398,349 L372,409 L306,490 L570,490 L498,426 L602,168 L614,146 L722,426 L650,490 L828,490 L769,428 L584,-22 L562,-22 L420,300 L278,-22 L256,-22"/> 
            <glyph glyph-name="Ẅ" unicode="&#x1E84;" horiz-adv-x="1004" d=" M313,829 L391,916 L467,829 L391,741 M547,829 L625,916 L701,829 L625,741 M731,141 L881,598 L795,685 L1004,685 L936,599 L722,-12 L661,-12 L516,377 L374,-12 L313,-12 L65,626 L13,685 L286,685 L206,624 L370,185 L380,148 L494,436 L422,628 L372,685 L645,685 L564,624 L719,185"/> 
            <glyph glyph-name="ẅ" unicode="&#x1E85;" horiz-adv-x="828" d=" M271,622 L339,698 L406,622 L339,545 M476,622 L544,698 L611,622 L544,545 M66,409 L0,490 L265,490 L192,426 L297,168 L309,134 L398,349 L372,409 L306,490 L570,490 L498,426 L602,168 L614,146 L722,426 L650,490 L828,490 L769,428 L584,-22 L562,-22 L420,300 L278,-22 L256,-22"/> 
            <glyph glyph-name="Ỳ" unicode="&#x1EF2;" horiz-adv-x="679" d=" M375,740 L246,869 L377,869 L390,740 M409,101 L493,0 L195,0 L279,101 L279,281 L101,579 L10,685 L331,685 L246,579 L245,579 L363,390 L379,357 L510,581 L425,685 L679,685 L576,591 L409,318"/> 
            <glyph glyph-name="ỳ" unicode="&#x1EF3;" horiz-adv-x="535" d=" M320,552 L305,552 L176,681 L302,681 M0,490 L265,490 L192,426 L297,168 L309,134 L430,426 L357,490 L535,490 L476,428 L243,-129 L315,-215 L100,-215 L188,-125 L247,10 L66,409"/> 
            <glyph glyph-name="–" unicode="&#x2013;" horiz-adv-x="500" d=" M500,241 L0,241 L0,311 L500,311"/> 
            <glyph glyph-name="—" unicode="&#x2014;" horiz-adv-x="900" d=" M900,241 L0,241 L0,311 L900,311"/> 
            <glyph glyph-name="‘" unicode="&#x2018;" horiz-adv-x="194" d=" M177,711 L191,701 Q126,647 126,597 Q126,590 127.5,583.5 Q129,577 133,571 Q137,565 139,562.5 Q141,560 147.5,553 Q154,546 155,545 L194,514 L111,429 Q82,447 56,475 Q30,503 30,526 Q30,619 173,709 Q176,710 177,711"/> 
            <glyph glyph-name="’" unicode="&#x2019;" horiz-adv-x="194" d=" M47,429 L33,439 Q98,493 98,543 Q98,550 96.5,556.5 Q95,563 91,569 Q87,575 85,577.5 Q83,580 76.5,587 Q70,594 69,595 L30,626 L113,711 Q142,693 168,665 Q194,637 194,614 Q194,521 51,431 Q48,430 47,429"/> 
            <glyph glyph-name="‚" unicode="&#x201A;" horiz-adv-x="194" d=" M47,-123 L33,-113 Q98,-59 98,-9 Q98,-2 96.5,4.5 Q95,11 91,17 Q87,23 85,25.5 Q83,28 76.5,35 Q70,42 69,43 L30,74 L113,159 Q142,141 168,113 Q194,85 194,62 Q194,-31 51,-121 Q48,-122 47,-123"/> 
            <glyph glyph-name="“" unicode="&#x201C;" horiz-adv-x="394" d=" M177,711 L191,701 Q126,647 126,597 Q126,590 127.5,583.5 Q129,577 133,571 Q137,565 139,562.5 Q141,560 147.5,553 Q154,546 155,545 L194,514 L111,429 Q82,447 56,475 Q30,503 30,526 Q30,619 173,709 Q176,710 177,711 M377,711 L391,701 Q326,647 326,597 Q326,590 327.5,583.5 Q329,577 333,571 Q337,565 339,562.5 Q341,560 347.5,553 Q354,546 355,545 L394,514 L311,429 Q282,447 256,475 Q230,503 230,526 Q230,619 373,709 Q376,710 377,711"/> 
            <glyph glyph-name="”" unicode="&#x201D;" horiz-adv-x="394" d=" M47,429 L33,439 Q98,493 98,543 Q98,550 96.5,556.5 Q95,563 91,569 Q87,575 85,577.5 Q83,580 76.5,587 Q70,594 69,595 L30,626 L113,711 Q142,693 168,665 Q194,637 194,614 Q194,521 51,431 Q48,430 47,429 M247,429 L233,439 Q298,493 298,543 Q298,550 296.5,556.5 Q295,563 291,569 Q287,575 285,577.5 Q283,580 276.5,587 Q270,594 269,595 L230,626 L313,711 Q342,693 368,665 Q394,637 394,614 Q394,521 251,431 Q248,430 247,429"/> 
            <glyph glyph-name="„" unicode="&#x201E;" horiz-adv-x="394" d=" M47,-122 L33,-112 Q98,-58 98,-8 Q98,-1 96.5,5.5 Q95,12 91,18 Q87,24 85,26.5 Q83,29 76.5,36 Q70,43 69,44 L30,75 L113,160 Q142,142 168,114 Q194,86 194,63 Q194,-30 51,-120 Q48,-121 47,-122 M247,-122 L233,-112 Q298,-58 298,-8 Q298,-1 296.5,5.5 Q295,12 291,18 Q287,24 285,26.5 Q283,29 276.5,36 Q270,43 269,44 L230,75 L313,160 Q342,142 368,114 Q394,86 394,63 Q394,-30 251,-120 Q248,-121 247,-122"/> 
            <glyph glyph-name="†" unicode="&#x2020;" horiz-adv-x="380" d=" M10,376 L10,490 L162,490 L135,700 L255,700 L228,490 L294,490 L380,564 L380,450 L255,450 L255,362 L202,-80 L188,-80 L135,362 L135,450 L96,450"/> 
            <glyph glyph-name="‡" unicode="&#x2021;" horiz-adv-x="380" d=" M294,180 L380,254 L380,140 L228,140 L255,-70 L135,-70 L162,140 L96,140 L10,66 L10,180 L162,180 L162,450 L96,450 L10,376 L10,490 L162,490 L135,700 L255,700 L228,490 L294,490 L380,564 L380,450 L228,450 L228,180"/> 
            <glyph glyph-name="•" unicode="&#x2022;" horiz-adv-x="302" d=" M45,263 L174,402 L302,263 L174,125"/> 
            <glyph glyph-name="…" unicode="&#x2026;" horiz-adv-x="738" d=" M25,66 L111,158 L196,66 L111,-26 M296,66 L382,158 L467,66 L382,-26 M567,66 L653,158 L738,66 L653,-26"/> 
            <glyph glyph-name="‰" unicode="&#x2030;" horiz-adv-x="1098" d=" M642,719 L170,-33 L120,-33 L591,719 M356,516 Q356,435 307.5,371 Q259,307 175,307 Q109,307 71,359 Q33,411 33,482 Q33,563 81,627 Q129,691 213,691 Q279,691 317.5,639 Q356,587 356,516 M178,663 Q118,663 118,550 Q118,462 145,398.5 Q172,335 213,335 Q234,335 248.5,356 Q263,377 268,401 Q273,425 273,448 Q273,536 246,599.5 Q219,663 178,663 M726,199 Q726,118 677.5,54 Q629,-10 545,-10 Q479,-10 441,42 Q403,94 403,165 Q403,246 451,310 Q499,374 582,374 Q649,374 687.5,322 Q726,270 726,199 M1098,199 Q1098,118 1050,54 Q1002,-10 918,-10 Q852,-10 814,42 Q776,94 776,165 Q776,246 824,310 Q872,374 955,374 Q1021,374 1059.5,322 Q1098,270 1098,199 M548,346 Q487,346 487,233 Q487,145 514,81.5 Q541,18 582,18 Q603,18 618,39 Q633,60 638,84.5 Q643,109 643,131 Q643,219 616,282.5 Q589,346 548,346 M921,346 Q860,346 860,233 Q860,145 887,81.5 Q914,18 955,18 Q976,18 991,39 Q1006,60 1011,84.5 Q1016,109 1016,131 Q1016,219 989,282.5 Q962,346 921,346"/> 
            <glyph glyph-name="‹" unicode="&#x2039;" horiz-adv-x="290" d=" M68,246 L178,246 L290,28 L280,18 L12,246 L280,474 L290,464"/> 
            <glyph glyph-name="›" unicode="&#x203A;" horiz-adv-x="284" d=" M228,246 L118,246 L6,464 L16,474 L284,246 L16,18 L6,28"/> 
            <glyph glyph-name="⁄" unicode="&#x2044;" horiz-adv-x="503" d=" M503,719 L51,-33 L4,-33 L455,719"/> 
            <glyph glyph-name="⁰" unicode="&#x2070;" horiz-adv-x="369" d=" M369,603 Q369,521 319.5,454.5 Q270,388 185,388 Q118,388 79,442 Q40,496 40,569 Q40,652 89,718 Q138,784 223,784 Q291,784 330,730 Q369,676 369,603 M188,755 Q126,755 126,639 Q126,548 153.5,482.5 Q181,417 223,417 Q254,417 269.5,455.5 Q285,494 285,533 Q285,624 257,689.5 Q229,755 188,755"/> 
            <glyph glyph-name="⁴" unicode="&#x2074;" horiz-adv-x="367" d=" M276,549 L367,549 L367,520 L276,520 L276,468 L343,426 L130,426 L192,468 L192,521 L20,521 L190,805 L292,805 L92,550 L191,550 L191,601 L276,714"/> 
            <glyph glyph-name="⁵" unicode="&#x2075;" horiz-adv-x="317" d=" M80,652 L108,663 Q143,677 178,677 Q232,677 274.5,644.5 Q317,612 317,560 Q317,494 265.5,460 Q214,426 124,426 L39,426 Q41,492 41,535 L46,535 Q48,531 51.5,525 Q55,519 66.5,504 Q78,489 90.5,477 Q103,465 123,455.5 Q143,446 163,446 Q198,446 215,464.5 Q232,483 232,535 Q232,652 152,652 Q112,652 72,622 L70,611 L46,611 L74,791 L76,804 L276,804 L317,836 L310,804 L291,728 L95,728"/> 
            <glyph glyph-name="⁶" unicode="&#x2076;" horiz-adv-x="293" d=" M271,817 L275,801 Q127,747 93,634 Q139,658 169,658 Q222,658 257.5,628.5 Q293,599 293,546 Q293,499 249.5,460 Q206,421 136,421 Q75,421 35.5,455.5 Q-4,490 -4,548 Q-4,634 73,704.5 Q150,775 271,817 M87,612 Q81,588 81,551 Q81,500 100,471 Q119,442 150,442 Q181,442 195.5,472 Q210,502 210,532 Q210,578 186.5,605 Q163,632 135,632 Q115,632 87,612"/> 
            <glyph glyph-name="⁷" unicode="&#x2077;" horiz-adv-x="327" d=" M37,680 L35,680 L35,802 L327,802 L100,414 L72,424 L240,726 L71,726"/> 
            <glyph glyph-name="⁸" unicode="&#x2078;" horiz-adv-x="330" d=" M189,819 Q231,819 267,798.5 Q303,778 303,743 Q303,696 237,658 Q268,639 283.5,628 Q299,617 314.5,593 Q330,569 330,541 Q330,499 300,470.5 Q270,442 235.5,431.5 Q201,421 169,421 Q109,421 71,447 Q33,473 33,514 Q33,523 35,531 Q37,539 38.5,545.5 Q40,552 45.5,559 Q51,566 53.5,570 Q56,574 63.5,580.5 Q71,587 74,589.5 Q77,592 86.5,598 Q96,604 97.5,605 Q99,606 110,612 L120,618 Q76,652 65,669 Q50,691 50,719 Q50,767 92,793 Q134,819 189,819 M221,665 Q256,688 256,735 Q256,768 234,784.5 Q212,801 183,801 Q154,801 133.5,785 Q113,769 113,741 Q113,730 118,721 Q123,712 137,703.5 Q151,695 159,690.5 Q167,686 191,677 Q215,668 221,665 M140,610 Q80,575 80,517 Q80,484 103,461.5 Q126,439 170,439 Q210,439 235.5,457 Q261,475 261,510 Q261,523 258,534 Q255,545 247,553.5 Q239,562 232.5,568 Q226,574 212,581 Q198,588 190.5,591 Q183,594 165,600.5 Q147,607 140,610"/> 
            <glyph glyph-name="⁹" unicode="&#x2079;" horiz-adv-x="369" d=" M85,419 L81,435 Q234,489 269,602 Q221,578 190,578 Q136,578 99.5,607.5 Q63,637 63,690 Q63,737 107.5,776 Q152,815 224,815 Q288,815 328.5,780.5 Q369,746 369,688 Q369,602 289.5,531.5 Q210,461 85,419 M275,624 Q281,648 281,685 Q281,736 261.5,765 Q242,794 210,794 Q178,794 163,764 Q148,734 148,704 Q148,658 172,631 Q196,604 225,604 Q245,604 275,624"/> 
            <glyph glyph-name="€" unicode="&#x20AC;" horiz-adv-x="595" d=" M583,193 L595,184 Q561,103 498.5,46.5 Q436,-10 346,-10 Q243,-10 182.5,54.5 Q122,119 111,230 L8,227 L8,275 L109,275 L109,276 Q109,310 115,343 L22,340 L22,389 L127,389 Q157,479 231,537 Q305,595 416,595 L541,595 L541,418 L535,418 Q505,483 465,521 Q425,559 363,559 Q241,559 227,390 L387,390 L387,351 L226,346 Q226,312 231,277 L373,277 L373,238 L240,234 Q277,92 398,92 Q519,92 583,193"/> 
            <glyph glyph-name="™" unicode="&#x2122;" horiz-adv-x="899" d=" M45,681 L45,804 L381,804 L381,681 L377,681 L305,784 L250,784 L250,485 L291,426 L136,426 L176,485 L176,783 L122,783 L50,681 M494,480 L538,426 L425,426 L467,480 L467,746 L420,804 L530,804 L662,529 L782,804 L898,804 L857,759 L857,485 L899,426 L739,426 L785,485 L785,749 L641,420 L636,420 L494,704"/> 
            <glyph glyph-name="⅛" unicode="&#x215B;" horiz-adv-x="770" d=" M662,719 L210,-33 L163,-33 L614,719 M63,544 L62,545 L215,687 L215,339 L282,297 L69,297 L131,339 L131,567 M629,388 Q574,388 532,362 Q490,336 490,288 Q490,280 491,273 Q492,266 493.5,260.5 Q495,255 498.5,248.5 Q502,242 504,238.5 Q506,235 511.5,229 Q517,223 519.5,220.5 Q522,218 529.5,211.5 Q537,205 539,203.5 Q541,202 549.5,195 Q558,188 560,187 L550,181 Q539,175 537.5,174 Q536,173 526.5,167 Q517,161 514,158.5 Q511,156 503.5,149.5 Q496,143 493.5,139 Q491,135 485.5,128 Q480,121 478.5,114.5 Q477,108 475,100 Q473,92 473,83 Q473,42 511,16 Q549,-10 609,-10 Q641,-10 675.5,0.5 Q710,11 740,39.5 Q770,68 770,110 Q770,138 754.5,162 Q739,186 723.5,197 Q708,208 677,227 Q743,265 743,312 Q743,347 707,367.5 Q671,388 629,388 M661,234 Q655,237 631,246 Q607,255 599,259.5 Q591,264 577,272.5 Q563,281 558,290 Q553,299 553,310 Q553,338 573.5,354 Q594,370 623,370 Q652,370 674,353.5 Q696,337 696,304 Q696,257 661,234 M580,179 Q587,176 605,169.5 Q623,163 630.5,160 Q638,157 652,150 Q666,143 672.5,137 Q679,131 687,122.5 Q695,114 698,103 Q701,92 701,79 Q701,44 675.5,26 Q650,8 610,8 Q566,8 543,30.5 Q520,53 520,86 Q520,144 580,179"/> 
            </font>
</defs>
</svg>
