<?xml version="1.0" encoding="UTF-8" standalone="no"?>
<svg width="75px" height="65px" viewBox="0 0 75 65" version="1.1" xmlns="http://www.w3.org/2000/svg" xmlns:xlink="http://www.w3.org/1999/xlink">
    <!-- Generator: Sketch 41.1 (35376) - http://www.bohemiancoding.com/sketch -->
    <title>born-in-a</title>
    <desc>Created with Sketch.</desc>
    <defs></defs>
    <g id="Page-1" stroke="none" stroke-width="1" fill="none" fill-rule="evenodd">
        <g id="born-in-a" fill="#FB3131">
            <g id="Group">
                <g id="Shape">
                    <path d="M9.7,10.6 C9.7,12.8 8.8,14.9 5.7,14.9 L0.5,14.9 C0.2,14.9 0,14.7 0,14.4 L0,0.6 C0,0.3 0.2,0.1 0.5,0.1 L4.9,0.1 C8.1,0.1 9,2.2 9,4.4 C9,5.4 8.8,6.3 8.3,7.1 C9.4,7.9 9.7,9.3 9.7,10.6 Z M4.8,2.5 L2.5,2.5 L2.5,6.3 L4.8,6.3 C6.3,6.3 6.4,5.4 6.4,4.4 C6.4,3.5 6.3,2.5 4.8,2.5 Z M5.6,12.5 C7.1,12.5 7.1,11.6 7.1,10.6 C7.1,9.7 7.1,8.7 5.6,8.7 L2.5,8.7 L2.5,12.4 L5.6,12.5 Z"></path>
                    <path d="M22.7,7.5 C22.7,12.8 21.9,15 17.2,15 C12.5,15 11.7,12.7 11.7,7.4 C11.7,2.1 12.5,0 17.2,0 C22,0 22.7,2.2 22.7,7.5 Z M14.4,7.5 C14.4,12.1 15.2,12.7 17.3,12.7 C19.4,12.7 20.2,12.1 20.2,7.6 C20.2,3.1 19.5,2.5 17.3,2.5 C15.1,2.4 14.4,2.9 14.4,7.5 Z"></path>
                    <path d="M34.6,14.5 C34.7,14.8 34.5,14.9 34.2,14.9 L32.6,14.9 C32.3,14.9 32,14.9 31.9,14.6 L30.1,10.8 L27.5,10.8 L27.5,14.4 C27.5,14.7 27.3,14.9 27,14.9 L25.6,14.9 C25.3,14.9 25.1,14.7 25.1,14.4 L25.1,0.6 C25.1,0.3 25.3,0.1 25.6,0.1 L30.8,0.1 C34,0.1 34.8,2.7 34.8,5.2 C34.8,7.2 34.3,9.4 32.7,10.4 L34.6,14.5 Z M30.6,8.4 C32,8.4 32.1,6.8 32.1,5.4 C32.1,3.9 32.1,2.4 30.6,2.4 L27.5,2.4 L27.5,8.3 L30.6,8.3 L30.6,8.4 Z"></path>
                    <path d="M48.3,0.1 C48.6,0.1 48.8,0.3 48.8,0.6 L48.8,14.4 C48.8,14.7 48.6,14.9 48.3,14.9 L46.9,14.9 L46.7,14.9 C46.6,14.9 46.5,14.8 46.4,14.7 L40.7,6.6 L39.5,4.8 L39.5,14.4 C39.5,14.7 39.3,14.9 39,14.9 L37.6,14.9 C37.3,14.9 37.1,14.7 37.1,14.4 L37.1,0.6 C37.1,0.3 37.3,0.1 37.6,0.1 L39,0.1 C39.2,0.1 39.4,0.2 39.5,0.4 L45.2,8.5 L46.4,10.3 L46.4,0.6 C46.4,0.3 46.6,0.1 46.9,0.1 L48.3,0.1 L48.3,0.1 Z"></path>
                    <path d="M60.2,12.6 C60.5,12.6 60.7,12.8 60.7,13.1 L60.7,14.3 C60.7,14.6 60.5,14.8 60.2,14.8 L56.3,14.8 C56,14.8 55.8,14.6 55.8,14.3 L55.8,13.1 C55.8,12.8 56,12.6 56.3,12.6 L57,12.6 L57,2.4 L56.3,2.4 C56,2.4 55.8,2.2 55.8,1.9 L55.8,0.6 C55.8,0.3 56,0.1 56.3,0.1 L60.2,0.1 C60.5,0.1 60.7,0.3 60.7,0.6 L60.7,1.8 C60.7,2.1 60.5,2.3 60.2,2.3 L59.5,2.3 L59.5,12.5 L60.2,12.5 L60.2,12.6 Z"></path>
                    <path d="M74.4,0.1 C74.7,0.1 74.9,0.3 74.9,0.6 L74.9,14.4 C74.9,14.7 74.7,14.9 74.4,14.9 L73,14.9 L72.8,14.9 C72.7,14.9 72.6,14.8 72.5,14.7 L66.8,6.6 L65.6,4.8 L65.6,14.4 C65.6,14.7 65.4,14.9 65.1,14.9 L63.7,14.9 C63.4,14.9 63.2,14.7 63.2,14.4 L63.2,0.6 C63.2,0.3 63.4,0.1 63.7,0.1 L65,0.1 C65.2,0.1 65.4,0.2 65.5,0.4 L71.2,8.5 L72.4,10.3 L72.4,0.6 C72.4,0.3 72.6,0.1 72.9,0.1 L74.4,0.1 L74.4,0.1 Z"></path>
                </g>
                <g transform="translate(1.000000, 22.000000)" id="Shape">
                    <path d="M47.5,43 L44.2,33.5 L28.6,33.5 L25.3,43 L16.2,43 L32.5,0.5 L40.8,0.5 L56.8,43 L47.5,43 Z M38.5,17.8 C37.6,15.3 36.8,12.8 36.4,11.2 C36,12.8 35.1,15.3 34.3,17.8 L31.6,25.5 L41.3,25.5 L38.5,17.8 Z"></path>
                    <path d="M14.4,23 C14.2,23.6 13.5,23.9 13,23.7 L1.2,19.7 C0.6,19.5 0.3,18.8 0.5,18.3 L1.5,15.4 C1.7,14.8 2.4,14.5 2.9,14.7 L14.7,18.7 C15.3,18.9 15.6,19.6 15.4,20.1 L14.4,23 Z"></path>
                    <path d="M13.8,32.3 C14,32.9 13.7,33.5 13.1,33.7 L4.7,36.7 C4,36.9 3.4,36.6 3.2,36 L2.2,33.1 C2,32.5 2.3,31.9 2.9,31.7 L11.3,28.7 C11.9,28.5 12.5,28.8 12.7,29.4 L13.8,32.3 Z"></path>
                    <path d="M11.5,5.2 C11,5.6 10.9,6.3 11.3,6.8 L16.6,14 C17,14.5 17.7,14.6 18.2,14.2 L20.6,12.3 C21.1,11.9 21.2,11.2 20.8,10.7 L15.5,3.5 C15.1,3 14.4,2.9 13.9,3.3 L11.5,5.2 Z"></path>
                    <path d="M58.5,23 C58.7,23.6 59.4,23.9 59.9,23.7 L71.7,19.7 C72.3,19.5 72.6,18.8 72.4,18.3 L71.4,15.4 C71.2,14.8 70.5,14.5 70,14.7 L58.2,18.7 C57.6,18.9 57.3,19.6 57.5,20.1 L58.5,23 Z"></path>
                    <path d="M59.1,32.3 C58.9,32.9 59.2,33.5 59.8,33.7 L68.2,36.7 C68.8,36.9 69.4,36.6 69.6,36 L70.6,33.1 C70.8,32.5 70.5,31.9 69.9,31.7 L61.5,28.7 C60.9,28.5 60.3,28.8 60.1,29.4 L59.1,32.3 Z"></path>
                    <path d="M61.4,5.2 C61.9,5.6 62,6.3 61.6,6.8 L56.3,14 C55.9,14.5 55.2,14.6 54.7,14.2 L52.3,12.3 C51.8,11.9 51.7,11.2 52.1,10.7 L57.4,3.5 C57.8,3 58.5,2.9 59,3.3 L61.4,5.2 Z"></path>
                </g>
            </g>
        </g>
    </g>
</svg>