<?xml version="1.0" encoding="utf-8"?>
<!-- Generator: Adobe Illustrator 18.1.1, SVG Export Plug-In . SVG Version: 6.00 Build 0)  -->
<svg version="1.1" id="Layer_1" xmlns="http://www.w3.org/2000/svg" xmlns:xlink="http://www.w3.org/1999/xlink" x="0px" y="0px"
	 width="74.9px" height="65px" viewBox="0 0 74.9 65" enable-background="new 0 0 74.9 65" xml:space="preserve">
<g>
	<g>
		<path fill="#FFFFFF" d="M9.7,10.6c0,2.2-0.9,4.3-4,4.3H0.5c-0.3,0-0.5-0.2-0.5-0.5V0.6c0-0.3,0.2-0.5,0.5-0.5h4.4
			C8.1,0.1,9,2.2,9,4.4c0,1-0.2,1.9-0.7,2.7C9.4,7.9,9.7,9.3,9.7,10.6z M4.8,2.5l-2.3,0v3.8c0.5,0,1.2,0,2.3,0
			c1.5,0,1.6-0.9,1.6-1.9C6.4,3.5,6.3,2.5,4.8,2.5z M5.6,12.5c1.5,0,1.5-0.9,1.5-1.9c0-0.9,0-1.9-1.5-1.9c-1.8,0-2.7,0-3.1,0v3.7
			L5.6,12.5z"/>
		<path fill="#FFFFFF" d="M22.7,7.5c0,5.3-0.8,7.5-5.5,7.5c-4.7,0-5.5-2.3-5.5-7.6S12.5,0,17.2,0C22,0,22.7,2.2,22.7,7.5z M14.4,7.5
			c0,4.6,0.8,5.2,2.9,5.2c2.1,0,2.9-0.6,2.9-5.1c0-4.5-0.7-5.1-2.9-5.1C15.1,2.4,14.4,2.9,14.4,7.5z"/>
		<path fill="#FFFFFF" d="M34.6,14.5c0.1,0.3-0.1,0.4-0.4,0.4h-1.6c-0.3,0-0.6,0-0.7-0.3l-1.8-3.8h-2.6v3.6c0,0.3-0.2,0.5-0.5,0.5
			h-1.4c-0.3,0-0.5-0.2-0.5-0.5V0.6c0-0.3,0.2-0.5,0.5-0.5h5.2c3.2,0,4,2.6,4,5.1c0,2-0.5,4.2-2.1,5.2L34.6,14.5z M30.6,8.4
			c1.4,0,1.5-1.6,1.5-3c0-1.5,0-3-1.5-3l-3.1,0v5.9H30.6L30.6,8.4z"/>
		<path fill="#FFFFFF" d="M48.3,0.1c0.3,0,0.5,0.2,0.5,0.5v13.8c0,0.3-0.2,0.5-0.5,0.5h-1.4c-0.1,0-0.1,0-0.2,0
			c-0.1,0-0.2-0.1-0.3-0.2l-5.7-8.1l-1.2-1.8v9.6c0,0.3-0.2,0.5-0.5,0.5h-1.4c-0.3,0-0.5-0.2-0.5-0.5V0.6c0-0.3,0.2-0.5,0.5-0.5h1.4
			c0.2,0,0.4,0.1,0.5,0.3l5.7,8.1l1.2,1.8V0.6c0-0.3,0.2-0.5,0.5-0.5L48.3,0.1L48.3,0.1z"/>
		<path fill="#FFFFFF" d="M60.2,12.6c0.3,0,0.5,0.2,0.5,0.5v1.2c0,0.3-0.2,0.5-0.5,0.5h-3.9c-0.3,0-0.5-0.2-0.5-0.5v-1.2
			c0-0.3,0.2-0.5,0.5-0.5H57V2.4h-0.7c-0.3,0-0.5-0.2-0.5-0.5V0.6c0-0.3,0.2-0.5,0.5-0.5h3.9c0.3,0,0.5,0.2,0.5,0.5v1.2
			c0,0.3-0.2,0.5-0.5,0.5h-0.7v10.2H60.2L60.2,12.6z"/>
		<path fill="#FFFFFF" d="M74.4,0.1c0.3,0,0.5,0.2,0.5,0.5v13.8c0,0.3-0.2,0.5-0.5,0.5H73c-0.1,0-0.1,0-0.2,0
			c-0.1,0-0.2-0.1-0.3-0.2l-5.7-8.1l-1.2-1.8v9.6c0,0.3-0.2,0.5-0.5,0.5h-1.4c-0.3,0-0.5-0.2-0.5-0.5V0.6c0-0.3,0.2-0.5,0.5-0.5H65
			c0.2,0,0.4,0.1,0.5,0.3l5.7,8.1l1.2,1.8V0.6c0-0.3,0.2-0.5,0.5-0.5L74.4,0.1L74.4,0.1z"/>
	</g>
	<g>
		<g>
			<path fill="#FFFFFF" d="M48.5,65l-3.3-9.5H29.6L26.3,65h-9.1l16.3-42.5h8.3L57.8,65H48.5z M39.5,39.8c-0.9-2.5-1.7-5-2.1-6.6
				c-0.4,1.6-1.3,4.1-2.1,6.6l-2.7,7.7h9.7L39.5,39.8z"/>
		</g>
		<path fill="#FFFFFF" d="M15.4,45c-0.2,0.6-0.9,0.9-1.4,0.7l-11.8-4c-0.6-0.2-0.9-0.9-0.7-1.4l1-2.9c0.2-0.6,0.9-0.9,1.4-0.7
			l11.8,4c0.6,0.2,0.9,0.9,0.7,1.4L15.4,45z"/>
		<path fill="#FFFFFF" d="M14.8,54.3c0.2,0.6-0.1,1.2-0.7,1.4l-8.4,3C5,58.9,4.4,58.6,4.2,58l-1-2.9c-0.2-0.6,0.1-1.2,0.7-1.4l8.4-3
			c0.6-0.2,1.2,0.1,1.4,0.7L14.8,54.3z"/>
		<path fill="#FFFFFF" d="M12.5,27.2c-0.5,0.4-0.6,1.1-0.2,1.6l5.3,7.2c0.4,0.5,1.1,0.6,1.6,0.2l2.4-1.9c0.5-0.4,0.6-1.1,0.2-1.6
			l-5.3-7.2c-0.4-0.5-1.1-0.6-1.6-0.2L12.5,27.2z"/>
		<path fill="#FFFFFF" d="M59.5,45c0.2,0.6,0.9,0.9,1.4,0.7l11.8-4c0.6-0.2,0.9-0.9,0.7-1.4l-1-2.9c-0.2-0.6-0.9-0.9-1.4-0.7
			l-11.8,4c-0.6,0.2-0.9,0.9-0.7,1.4L59.5,45z"/>
		<path fill="#FFFFFF" d="M60.1,54.3c-0.2,0.6,0.1,1.2,0.7,1.4l8.4,3c0.6,0.2,1.2-0.1,1.4-0.7l1-2.9c0.2-0.6-0.1-1.2-0.7-1.4l-8.4-3
			c-0.6-0.2-1.2,0.1-1.4,0.7L60.1,54.3z"/>
		<path fill="#FFFFFF" d="M62.4,27.2c0.5,0.4,0.6,1.1,0.2,1.6L57.3,36c-0.4,0.5-1.1,0.6-1.6,0.2l-2.4-1.9c-0.5-0.4-0.6-1.1-0.2-1.6
			l5.3-7.2c0.4-0.5,1.1-0.6,1.6-0.2L62.4,27.2z"/>
	</g>
</g>
</svg>
